%TF.GenerationSoftware,KiCad,Pcbnew,9.0.7*%
%TF.CreationDate,2026-04-17T21:52:01+02:00*%
%TF.ProjectId,SensorHub_2.0,53656e73-6f72-4487-9562-5f322e302e6b,rev?*%
%TF.SameCoordinates,Original*%
%TF.FileFunction,Copper,L3,Inr*%
%TF.FilePolarity,Positive*%
%FSLAX46Y46*%
G04 Gerber Fmt 4.6, Leading zero omitted, Abs format (unit mm)*
G04 Created by KiCad (PCBNEW 9.0.7) date 2026-04-17 21:52:01*
%MOMM*%
%LPD*%
G01*
G04 APERTURE LIST*
%TA.AperFunction,ComponentPad*%
%ADD10C,1.000000*%
%TD*%
%TA.AperFunction,HeatsinkPad*%
%ADD11O,2.000000X0.900000*%
%TD*%
%TA.AperFunction,HeatsinkPad*%
%ADD12O,1.700000X0.900000*%
%TD*%
%TA.AperFunction,ViaPad*%
%ADD13C,0.300000*%
%TD*%
%TA.AperFunction,ViaPad*%
%ADD14C,0.600000*%
%TD*%
%TA.AperFunction,ViaPad*%
%ADD15C,0.400000*%
%TD*%
%TA.AperFunction,Conductor*%
%ADD16C,0.200000*%
%TD*%
G04 APERTURE END LIST*
D10*
%TO.N,/GP2*%
%TO.C,TP7*%
X153100000Y-90000000D03*
%TD*%
%TO.N,/SDA_0*%
%TO.C,TP3*%
X167000000Y-93900000D03*
%TD*%
%TO.N,/RA4E2_microcontroller/EXTAL*%
%TO.C,TP6*%
X163600000Y-72200000D03*
%TD*%
%TO.N,/RES*%
%TO.C,TP5*%
X139500000Y-75900000D03*
%TD*%
%TO.N,GND*%
%TO.C,TP10*%
X148600000Y-90000000D03*
%TD*%
%TO.N,/GP3*%
%TO.C,TP2*%
X150800000Y-90000000D03*
%TD*%
%TO.N,/TXD*%
%TO.C,TP8*%
X167000000Y-89900000D03*
%TD*%
%TO.N,/SCL_0*%
%TO.C,TP4*%
X167000000Y-91900000D03*
%TD*%
%TO.N,/RA4E2_microcontroller/Boot*%
%TO.C,TP1*%
X141600000Y-75900000D03*
%TD*%
D11*
%TO.N,GND*%
%TO.C,J8*%
X136263550Y-80570000D03*
D12*
X132093550Y-80570000D03*
D11*
X136263550Y-89210000D03*
D12*
X132093550Y-89210000D03*
%TD*%
%TO.N,GND*%
%TO.C,J6*%
X132093550Y-89210000D03*
D11*
X136263550Y-89210000D03*
D12*
X132093550Y-80570000D03*
D11*
X136263550Y-80570000D03*
%TD*%
D13*
%TO.N,/USB_C_2.0+SBUS/SBU2*%
X135058547Y-84890000D03*
X145499999Y-79490000D03*
X139599999Y-78290000D03*
X146899999Y-79490000D03*
%TO.N,/USB_C_2.0+SBUS/CC1*%
X139699999Y-85890000D03*
X135533550Y-84890000D03*
%TO.N,/Can_H*%
X149999999Y-80965003D03*
X155289999Y-81345000D03*
X153600000Y-81400000D03*
%TO.N,/Can_L*%
X149999999Y-80490000D03*
%TO.N,GND*%
X160748999Y-90640000D03*
D14*
X162200000Y-92150000D03*
X157788909Y-92911091D03*
X166159999Y-77490000D03*
X147499999Y-97290000D03*
X158198999Y-95900000D03*
X151300000Y-75200000D03*
D13*
X161748999Y-90640000D03*
D14*
X155061177Y-83288758D03*
X161599999Y-83690000D03*
X140837499Y-79390000D03*
X156400000Y-97700000D03*
D13*
X159748999Y-90640000D03*
D14*
X159700000Y-92900000D03*
D13*
X159754127Y-98140000D03*
D14*
X142500000Y-76900000D03*
X157409306Y-77240066D03*
X141599999Y-86690000D03*
X147499999Y-95790000D03*
X152600999Y-77700000D03*
X163000000Y-73900000D03*
X144899999Y-81390000D03*
X161299999Y-77390000D03*
D13*
X144400000Y-71490000D03*
D14*
X157300000Y-81800000D03*
X166499999Y-79390000D03*
D13*
X157254127Y-98140000D03*
D14*
X161599999Y-78290000D03*
X158800000Y-71800000D03*
D13*
X158254127Y-98140000D03*
D14*
X150300000Y-75600000D03*
X161800000Y-96100000D03*
D13*
X160754127Y-98140000D03*
D14*
X151000000Y-94900000D03*
X146100000Y-85679616D03*
X140999999Y-90800000D03*
X159900000Y-95900000D03*
X154625701Y-94930093D03*
X140799999Y-84790000D03*
X157199999Y-86390000D03*
D13*
X157248999Y-90640000D03*
D14*
X145599999Y-91590000D03*
D13*
%TO.N,/RES*%
X150000000Y-79900000D03*
X152000000Y-90800000D03*
X150000000Y-82100000D03*
%TO.N,/RXD*%
X160800000Y-86600000D03*
%TO.N,/USB_DM*%
X147100000Y-86600000D03*
X149600000Y-86700000D03*
X152500000Y-84300000D03*
X137751279Y-84251419D03*
X141999999Y-82690000D03*
%TO.N,/USB_DP*%
X149500000Y-85400000D03*
X152500000Y-83600000D03*
X135933597Y-85528338D03*
X141999999Y-85890000D03*
%TO.N,/Analog*%
X165400000Y-89000000D03*
X163000000Y-93600000D03*
X160254127Y-98140000D03*
D14*
%TO.N,+5V*%
X142300000Y-97600000D03*
D13*
X157754127Y-98140000D03*
D14*
%TO.N,+3.3V*%
X167354999Y-79390000D03*
X161599999Y-82090000D03*
X166600000Y-75600000D03*
X160500000Y-71700000D03*
X152599999Y-79690000D03*
X154900000Y-85550000D03*
D13*
X161254127Y-98140000D03*
D14*
X148500000Y-94800000D03*
X160099999Y-79290000D03*
X165599999Y-79390000D03*
X161599999Y-80590000D03*
X164099999Y-80690000D03*
D13*
X149800000Y-77100000D03*
D14*
X155799999Y-77190000D03*
D13*
X145200000Y-71490000D03*
D14*
X156299999Y-86490000D03*
X145599999Y-90190000D03*
X141000000Y-92200000D03*
D13*
%TO.N,/CS*%
X159248999Y-90640000D03*
%TO.N,/SCK*%
X158748999Y-90640000D03*
%TO.N,/INT2*%
X158600000Y-88900000D03*
X159254127Y-98140000D03*
X156800000Y-90300000D03*
%TO.N,/SCL_0*%
X160499999Y-77290000D03*
X161248999Y-90640000D03*
%TO.N,/SDA_0*%
X160248999Y-90640000D03*
X165099999Y-75690000D03*
X159699999Y-77290000D03*
X164199999Y-74790000D03*
D14*
%TO.N,/V_Bus*%
X146899999Y-81990000D03*
D13*
X134582547Y-84900000D03*
D14*
%TO.N,/RA4E2_microcontroller/VCL*%
X158799999Y-77190000D03*
D13*
%TO.N,/RA4E2_microcontroller/SWDIO*%
X153300000Y-86700000D03*
X151900000Y-88100000D03*
%TO.N,/MOSI*%
X158248999Y-90640000D03*
%TO.N,/GP1*%
X158754127Y-98140000D03*
%TO.N,/MISO*%
X157748999Y-90640000D03*
D14*
%TO.N,/RA4E2_microcontroller/Boot*%
X147149999Y-74390000D03*
D13*
X149900000Y-82700000D03*
X150000000Y-78000000D03*
%TO.N,/RA4E2_microcontroller/EXTAL*%
X160000000Y-73900000D03*
%TO.N,/USB_C_2.0+SBUS/CC2*%
X139699999Y-82690000D03*
X138633550Y-84890000D03*
%TO.N,/RA4E2_microcontroller/LED*%
X153300000Y-79700000D03*
X153300000Y-77500000D03*
%TO.N,/TXD*%
X160300000Y-86600000D03*
%TO.N,/USB_C_2.0+SBUS/SBU1*%
X146105000Y-79395000D03*
X139599999Y-81490000D03*
X138133550Y-84890000D03*
%TO.N,Net-(U10B-+)*%
X144749999Y-85696857D03*
X144696089Y-83386091D03*
%TO.N,Net-(U10D-+)*%
X143299999Y-86390000D03*
X144699999Y-82690000D03*
D15*
%TO.N,/USB_C_2.0+SBUS/EN*%
X142100000Y-81490000D03*
X146900000Y-78964998D03*
D13*
%TO.N,/GP3*%
X150000000Y-86200000D03*
%TO.N,/USB_C_2.0+SBUS/cable_orient*%
X145199999Y-78490000D03*
%TD*%
D16*
%TO.N,/USB_DP*%
X139199999Y-85390000D02*
X140199999Y-85390000D01*
X140199999Y-85390000D02*
X140699999Y-85890000D01*
X138949999Y-85640000D02*
X139199999Y-85390000D01*
X136043234Y-85640000D02*
X138949999Y-85640000D01*
X135933597Y-85530363D02*
X136043234Y-85640000D01*
X135933597Y-85528338D02*
X135933597Y-85530363D01*
X140699999Y-85890000D02*
X141999999Y-85890000D01*
%TO.N,/USB_C_2.0+SBUS/CC1*%
X139499999Y-86090000D02*
X139699999Y-85890000D01*
X135870976Y-86090000D02*
X139499999Y-86090000D01*
X135499207Y-85718231D02*
X135870976Y-86090000D01*
X135499207Y-84924343D02*
X135499207Y-85718231D01*
X135533550Y-84890000D02*
X135499207Y-84924343D01*
%TO.N,/USB_DM*%
X139593550Y-82190000D02*
X141499999Y-82190000D01*
X141499999Y-82190000D02*
X141999999Y-82690000D01*
X137749812Y-84033738D02*
X139593550Y-82190000D01*
X137749812Y-84249952D02*
X137749812Y-84033738D01*
X137751279Y-84251419D02*
X137749812Y-84249952D01*
%TO.N,/USB_C_2.0+SBUS/SBU2*%
X135058547Y-84890000D02*
X135099999Y-84848548D01*
X135099999Y-84690000D02*
X139599999Y-80190000D01*
X144397544Y-78290000D02*
X145499999Y-79392455D01*
X139599999Y-78290000D02*
X144397544Y-78290000D01*
X139599999Y-80190000D02*
X139599999Y-78290000D01*
X135099999Y-84848548D02*
X135099999Y-84690000D01*
X145499999Y-79392455D02*
X145499999Y-79490000D01*
%TO.N,/RES*%
X149573999Y-81673999D02*
X150000000Y-82100000D01*
X149885002Y-80014998D02*
X149872546Y-80014998D01*
X149872546Y-80014998D02*
X149573999Y-80313545D01*
X150000000Y-79900000D02*
X149885002Y-80014998D01*
X149573999Y-80313545D02*
X149573999Y-81673999D01*
%TO.N,/USB_DM*%
X152500000Y-84302455D02*
X150102455Y-86700000D01*
X152500000Y-84300000D02*
X152500000Y-84302455D01*
X150102455Y-86700000D02*
X149600000Y-86700000D01*
%TO.N,/USB_DP*%
X152500000Y-83600000D02*
X150700000Y-85400000D01*
X150700000Y-85400000D02*
X149500000Y-85400000D01*
%TO.N,+3.3V*%
X161460000Y-98140000D02*
X161500000Y-98100000D01*
X161254127Y-98140000D02*
X161460000Y-98140000D01*
%TO.N,/RA4E2_microcontroller/Boot*%
X149222999Y-82022999D02*
X149900000Y-82700000D01*
X150000000Y-78000000D02*
X150000000Y-79200000D01*
X149222999Y-79977001D02*
X149222999Y-82022999D01*
X150000000Y-79200000D02*
X149222999Y-79977001D01*
%TO.N,/USB_C_2.0+SBUS/CC2*%
X138633550Y-83756449D02*
X139699999Y-82690000D01*
X138633550Y-84890000D02*
X138633550Y-83756449D01*
%TO.N,/USB_C_2.0+SBUS/SBU1*%
X146105000Y-79595000D02*
X145784000Y-79916000D01*
X138133550Y-84890000D02*
X137499999Y-84890000D01*
X141173999Y-79916000D02*
X139599999Y-81490000D01*
X137499999Y-84890000D02*
X137099999Y-84490000D01*
X137099999Y-83990000D02*
X139299999Y-81790000D01*
X139299999Y-81790000D02*
X139599999Y-81490000D01*
X137099999Y-84490000D02*
X137099999Y-83990000D01*
X146105000Y-79395000D02*
X146105000Y-79595000D01*
X145784000Y-79916000D02*
X141173999Y-79916000D01*
%TD*%
%TA.AperFunction,Conductor*%
%TO.N,+3.3V*%
G36*
X143692539Y-71355185D02*
G01*
X143738294Y-71407989D01*
X143749500Y-71459500D01*
X143749500Y-71554069D01*
X143749500Y-71554071D01*
X143749499Y-71554071D01*
X143774497Y-71679738D01*
X143774499Y-71679744D01*
X143823533Y-71798124D01*
X143823538Y-71798133D01*
X143894723Y-71904668D01*
X143894726Y-71904672D01*
X143985327Y-71995273D01*
X143985331Y-71995276D01*
X144091866Y-72066461D01*
X144091872Y-72066464D01*
X144091873Y-72066465D01*
X144210256Y-72115501D01*
X144210260Y-72115501D01*
X144210261Y-72115502D01*
X144335928Y-72140500D01*
X144335931Y-72140500D01*
X144464071Y-72140500D01*
X144548615Y-72123682D01*
X144589744Y-72115501D01*
X144708127Y-72066465D01*
X144814669Y-71995276D01*
X144905276Y-71904669D01*
X144976465Y-71798127D01*
X145025501Y-71679744D01*
X145045570Y-71578855D01*
X145050500Y-71554071D01*
X145050500Y-71459500D01*
X145070185Y-71392461D01*
X145122989Y-71346706D01*
X145174500Y-71335500D01*
X157940368Y-71335500D01*
X158007407Y-71355185D01*
X158053162Y-71407989D01*
X158063106Y-71477147D01*
X158054929Y-71506952D01*
X158030264Y-71566498D01*
X158030261Y-71566510D01*
X157999500Y-71721153D01*
X157999500Y-71878846D01*
X158030261Y-72033489D01*
X158030264Y-72033501D01*
X158090602Y-72179172D01*
X158090609Y-72179185D01*
X158178210Y-72310288D01*
X158178213Y-72310292D01*
X158289707Y-72421786D01*
X158289711Y-72421789D01*
X158420814Y-72509390D01*
X158420827Y-72509397D01*
X158566498Y-72569735D01*
X158566503Y-72569737D01*
X158721153Y-72600499D01*
X158721156Y-72600500D01*
X158721158Y-72600500D01*
X158878844Y-72600500D01*
X158878845Y-72600499D01*
X159033497Y-72569737D01*
X159179179Y-72509394D01*
X159310289Y-72421789D01*
X159421789Y-72310289D01*
X159509394Y-72179179D01*
X159569737Y-72033497D01*
X159600500Y-71878842D01*
X159600500Y-71721158D01*
X159600500Y-71721155D01*
X159600499Y-71721153D01*
X159588226Y-71659452D01*
X159569737Y-71566503D01*
X159567962Y-71562218D01*
X159545071Y-71506952D01*
X159537602Y-71437482D01*
X159568878Y-71375003D01*
X159628967Y-71339352D01*
X159659632Y-71335500D01*
X162750216Y-71335500D01*
X162817255Y-71355185D01*
X162863010Y-71407989D01*
X162872954Y-71477147D01*
X162843929Y-71540703D01*
X162837897Y-71547181D01*
X162822863Y-71562214D01*
X162822860Y-71562218D01*
X162713371Y-71726079D01*
X162713364Y-71726092D01*
X162637950Y-71908160D01*
X162637947Y-71908170D01*
X162599500Y-72101456D01*
X162599500Y-72101459D01*
X162599500Y-72298541D01*
X162599500Y-72298543D01*
X162599499Y-72298543D01*
X162637947Y-72491829D01*
X162637950Y-72491839D01*
X162713364Y-72673907D01*
X162713371Y-72673920D01*
X162822860Y-72837781D01*
X162822863Y-72837785D01*
X162893424Y-72908346D01*
X162926909Y-72969669D01*
X162921925Y-73039361D01*
X162880053Y-73095294D01*
X162829936Y-73117644D01*
X162766507Y-73130261D01*
X162766498Y-73130264D01*
X162620827Y-73190602D01*
X162620814Y-73190609D01*
X162489711Y-73278210D01*
X162489707Y-73278213D01*
X162378213Y-73389707D01*
X162378210Y-73389711D01*
X162290609Y-73520814D01*
X162290602Y-73520827D01*
X162230264Y-73666498D01*
X162230261Y-73666510D01*
X162199500Y-73821153D01*
X162199500Y-73978846D01*
X162230261Y-74133489D01*
X162230264Y-74133501D01*
X162290602Y-74279172D01*
X162290609Y-74279185D01*
X162378210Y-74410288D01*
X162378213Y-74410292D01*
X162489707Y-74521786D01*
X162489711Y-74521789D01*
X162620814Y-74609390D01*
X162620827Y-74609397D01*
X162679426Y-74633669D01*
X162766503Y-74669737D01*
X162887264Y-74693758D01*
X162921153Y-74700499D01*
X162921156Y-74700500D01*
X162921158Y-74700500D01*
X163078844Y-74700500D01*
X163078845Y-74700499D01*
X163233497Y-74669737D01*
X163378046Y-74609862D01*
X163447516Y-74602394D01*
X163509995Y-74633669D01*
X163545647Y-74693758D01*
X163549499Y-74724424D01*
X163549499Y-74725931D01*
X163549499Y-74854069D01*
X163549499Y-74854071D01*
X163549498Y-74854071D01*
X163574496Y-74979738D01*
X163574498Y-74979744D01*
X163623532Y-75098124D01*
X163623537Y-75098133D01*
X163694722Y-75204668D01*
X163694725Y-75204672D01*
X163785326Y-75295273D01*
X163785330Y-75295276D01*
X163891865Y-75366461D01*
X163891874Y-75366466D01*
X163918691Y-75377574D01*
X164010255Y-75415501D01*
X164010259Y-75415501D01*
X164010260Y-75415502D01*
X164135927Y-75440500D01*
X164135930Y-75440500D01*
X164264068Y-75440500D01*
X164313529Y-75430661D01*
X164383118Y-75436887D01*
X164438296Y-75479749D01*
X164461542Y-75545638D01*
X164459337Y-75576469D01*
X164449499Y-75625926D01*
X164449499Y-75625931D01*
X164449499Y-75754069D01*
X164449499Y-75754071D01*
X164449498Y-75754071D01*
X164474496Y-75879738D01*
X164474498Y-75879744D01*
X164523532Y-75998124D01*
X164523537Y-75998133D01*
X164594722Y-76104668D01*
X164594725Y-76104672D01*
X164685326Y-76195273D01*
X164685330Y-76195276D01*
X164791865Y-76266461D01*
X164791871Y-76266464D01*
X164791872Y-76266465D01*
X164910255Y-76315501D01*
X164910259Y-76315501D01*
X164910260Y-76315502D01*
X165035927Y-76340500D01*
X165035930Y-76340500D01*
X165164070Y-76340500D01*
X165248614Y-76323682D01*
X165289743Y-76315501D01*
X165408126Y-76266465D01*
X165514668Y-76195276D01*
X165605275Y-76104669D01*
X165676464Y-75998127D01*
X165725500Y-75879744D01*
X165750499Y-75754069D01*
X165750499Y-75625931D01*
X165750499Y-75625928D01*
X165725501Y-75500261D01*
X165725500Y-75500260D01*
X165725500Y-75500256D01*
X165676464Y-75381873D01*
X165676463Y-75381872D01*
X165676460Y-75381866D01*
X165636771Y-75322467D01*
X165615893Y-75255789D01*
X165634378Y-75188409D01*
X165686357Y-75141719D01*
X165723688Y-75130637D01*
X165724729Y-75130500D01*
X165724733Y-75130500D01*
X165952237Y-75100548D01*
X166173886Y-75041158D01*
X166385887Y-74953344D01*
X166584611Y-74838611D01*
X166766660Y-74698919D01*
X166766664Y-74698914D01*
X166766669Y-74698911D01*
X166928910Y-74536670D01*
X166928913Y-74536665D01*
X166928918Y-74536661D01*
X167068610Y-74354612D01*
X167183343Y-74155888D01*
X167271157Y-73943887D01*
X167330547Y-73722238D01*
X167360499Y-73494734D01*
X167360499Y-73265266D01*
X167330547Y-73037762D01*
X167271157Y-72816113D01*
X167194250Y-72630443D01*
X167183348Y-72604123D01*
X167183345Y-72604117D01*
X167183343Y-72604112D01*
X167068610Y-72405388D01*
X167068607Y-72405385D01*
X167068606Y-72405382D01*
X166928917Y-72223338D01*
X166928910Y-72223330D01*
X166766669Y-72061089D01*
X166766660Y-72061081D01*
X166584616Y-71921392D01*
X166561697Y-71908160D01*
X166385887Y-71806656D01*
X166385885Y-71806655D01*
X166385875Y-71806650D01*
X166173886Y-71718842D01*
X165952237Y-71659452D01*
X165914214Y-71654446D01*
X165724740Y-71629500D01*
X165724733Y-71629500D01*
X165495265Y-71629500D01*
X165495257Y-71629500D01*
X165278714Y-71658009D01*
X165267761Y-71659452D01*
X165174075Y-71684554D01*
X165046111Y-71718842D01*
X164834122Y-71806650D01*
X164834112Y-71806655D01*
X164703075Y-71882309D01*
X164635175Y-71898781D01*
X164569148Y-71875928D01*
X164526515Y-71822373D01*
X164486635Y-71726091D01*
X164486628Y-71726079D01*
X164377139Y-71562218D01*
X164377136Y-71562214D01*
X164362103Y-71547181D01*
X164328618Y-71485858D01*
X164333602Y-71416166D01*
X164375474Y-71360233D01*
X164440938Y-71335816D01*
X164449784Y-71335500D01*
X166089107Y-71335500D01*
X166150571Y-71335500D01*
X166159417Y-71335816D01*
X166359560Y-71350130D01*
X166377062Y-71352647D01*
X166568796Y-71394355D01*
X166585754Y-71399334D01*
X166747063Y-71459500D01*
X166769611Y-71467910D01*
X166785690Y-71475253D01*
X166957915Y-71569294D01*
X166972783Y-71578849D01*
X167107563Y-71679744D01*
X167129866Y-71696440D01*
X167143236Y-71708026D01*
X167281972Y-71846762D01*
X167293558Y-71860132D01*
X167411146Y-72017210D01*
X167420711Y-72032095D01*
X167514740Y-72204298D01*
X167522090Y-72220390D01*
X167590662Y-72404236D01*
X167595646Y-72421212D01*
X167637351Y-72612931D01*
X167639869Y-72630442D01*
X167654183Y-72830566D01*
X167654499Y-72839413D01*
X167654499Y-88903010D01*
X167634814Y-88970049D01*
X167582010Y-89015804D01*
X167512852Y-89025748D01*
X167479859Y-89014933D01*
X167479543Y-89015699D01*
X167291839Y-88937950D01*
X167291829Y-88937947D01*
X167098543Y-88899500D01*
X167098541Y-88899500D01*
X166901459Y-88899500D01*
X166901457Y-88899500D01*
X166708170Y-88937947D01*
X166708160Y-88937950D01*
X166526092Y-89013364D01*
X166526079Y-89013371D01*
X166362218Y-89122860D01*
X166247547Y-89237531D01*
X166186224Y-89271015D01*
X166116532Y-89266031D01*
X166060599Y-89224159D01*
X166036182Y-89158695D01*
X166038249Y-89125656D01*
X166040094Y-89116384D01*
X166050500Y-89064069D01*
X166050500Y-88935931D01*
X166050500Y-88935928D01*
X166025502Y-88810261D01*
X166025501Y-88810260D01*
X166025501Y-88810256D01*
X165976465Y-88691873D01*
X165976464Y-88691872D01*
X165976461Y-88691866D01*
X165905276Y-88585331D01*
X165905273Y-88585327D01*
X165814672Y-88494726D01*
X165814668Y-88494723D01*
X165708133Y-88423538D01*
X165708124Y-88423533D01*
X165589744Y-88374499D01*
X165589738Y-88374497D01*
X165464071Y-88349500D01*
X165464069Y-88349500D01*
X165335931Y-88349500D01*
X165335929Y-88349500D01*
X165210261Y-88374497D01*
X165210255Y-88374499D01*
X165091875Y-88423533D01*
X165091866Y-88423538D01*
X164985331Y-88494723D01*
X164985327Y-88494726D01*
X164894726Y-88585327D01*
X164894723Y-88585331D01*
X164823538Y-88691866D01*
X164823533Y-88691875D01*
X164774499Y-88810255D01*
X164774497Y-88810261D01*
X164749500Y-88935928D01*
X164749500Y-88935931D01*
X164749500Y-89064069D01*
X164749500Y-89064071D01*
X164749499Y-89064071D01*
X164774497Y-89189738D01*
X164774499Y-89189744D01*
X164823533Y-89308124D01*
X164823538Y-89308133D01*
X164894723Y-89414668D01*
X164894726Y-89414672D01*
X164985327Y-89505273D01*
X164985331Y-89505276D01*
X165091866Y-89576461D01*
X165091872Y-89576464D01*
X165091873Y-89576465D01*
X165210256Y-89625501D01*
X165210260Y-89625501D01*
X165210261Y-89625502D01*
X165335928Y-89650500D01*
X165335931Y-89650500D01*
X165464071Y-89650500D01*
X165548615Y-89633682D01*
X165589744Y-89625501D01*
X165708127Y-89576465D01*
X165814669Y-89505276D01*
X165829928Y-89490017D01*
X165891250Y-89456530D01*
X165960942Y-89461513D01*
X166016876Y-89503383D01*
X166041295Y-89568847D01*
X166037639Y-89601893D01*
X166039137Y-89602191D01*
X165999500Y-89801456D01*
X165999500Y-89801459D01*
X165999500Y-89998541D01*
X165999500Y-89998543D01*
X165999499Y-89998543D01*
X166037947Y-90191829D01*
X166037950Y-90191839D01*
X166113364Y-90373907D01*
X166113371Y-90373920D01*
X166222860Y-90537781D01*
X166222863Y-90537785D01*
X166362214Y-90677136D01*
X166362218Y-90677139D01*
X166526079Y-90786628D01*
X166531456Y-90789502D01*
X166530490Y-90791308D01*
X166577612Y-90829285D01*
X166599673Y-90895580D01*
X166582391Y-90963279D01*
X166531251Y-91010887D01*
X166527660Y-91012526D01*
X166526079Y-91013371D01*
X166362218Y-91122860D01*
X166362214Y-91122863D01*
X166222863Y-91262214D01*
X166222860Y-91262218D01*
X166113371Y-91426079D01*
X166113364Y-91426092D01*
X166037950Y-91608160D01*
X166037947Y-91608170D01*
X165999500Y-91801456D01*
X165999500Y-91801459D01*
X165999500Y-91998541D01*
X165999500Y-91998543D01*
X165999499Y-91998543D01*
X166037947Y-92191829D01*
X166037950Y-92191839D01*
X166113364Y-92373907D01*
X166113371Y-92373920D01*
X166222860Y-92537781D01*
X166222863Y-92537785D01*
X166362214Y-92677136D01*
X166362218Y-92677139D01*
X166526079Y-92786628D01*
X166531456Y-92789502D01*
X166530490Y-92791308D01*
X166577612Y-92829285D01*
X166599673Y-92895580D01*
X166582391Y-92963279D01*
X166531251Y-93010887D01*
X166527660Y-93012526D01*
X166526079Y-93013371D01*
X166362218Y-93122860D01*
X166362214Y-93122863D01*
X166222863Y-93262214D01*
X166222860Y-93262218D01*
X166113371Y-93426079D01*
X166113366Y-93426090D01*
X166037950Y-93608160D01*
X166037947Y-93608170D01*
X165999500Y-93801456D01*
X165999500Y-93801459D01*
X165999500Y-93998541D01*
X165999500Y-93998543D01*
X165999499Y-93998543D01*
X166037947Y-94191829D01*
X166037950Y-94191839D01*
X166113364Y-94373907D01*
X166113372Y-94373921D01*
X166124618Y-94390753D01*
X166145494Y-94457431D01*
X166127008Y-94524810D01*
X166075028Y-94571499D01*
X166006057Y-94582674D01*
X165989430Y-94579417D01*
X165952237Y-94569452D01*
X165914214Y-94564446D01*
X165724740Y-94539500D01*
X165724733Y-94539500D01*
X165495265Y-94539500D01*
X165495257Y-94539500D01*
X165278714Y-94568009D01*
X165267761Y-94569452D01*
X165174075Y-94594554D01*
X165046111Y-94628842D01*
X164834122Y-94716650D01*
X164834108Y-94716657D01*
X164635381Y-94831392D01*
X164453337Y-94971081D01*
X164291080Y-95133338D01*
X164151391Y-95315382D01*
X164036656Y-95514109D01*
X164036649Y-95514123D01*
X163948841Y-95726112D01*
X163889452Y-95947759D01*
X163889450Y-95947770D01*
X163859499Y-96175258D01*
X163859499Y-96404741D01*
X163871961Y-96499394D01*
X163889451Y-96632238D01*
X163934268Y-96799500D01*
X163948841Y-96853887D01*
X164036649Y-97065876D01*
X164036655Y-97065888D01*
X164142251Y-97248787D01*
X164151391Y-97264617D01*
X164291080Y-97446661D01*
X164291088Y-97446670D01*
X164453329Y-97608911D01*
X164453337Y-97608918D01*
X164635381Y-97748607D01*
X164635384Y-97748608D01*
X164635387Y-97748611D01*
X164834111Y-97863344D01*
X164834116Y-97863346D01*
X164834122Y-97863349D01*
X164891704Y-97887200D01*
X165046112Y-97951158D01*
X165267761Y-98010548D01*
X165495265Y-98040500D01*
X165495272Y-98040500D01*
X165724726Y-98040500D01*
X165724733Y-98040500D01*
X165952237Y-98010548D01*
X166173886Y-97951158D01*
X166385887Y-97863344D01*
X166584611Y-97748611D01*
X166766660Y-97608919D01*
X166766664Y-97608914D01*
X166766669Y-97608911D01*
X166928910Y-97446670D01*
X166928913Y-97446665D01*
X166928918Y-97446661D01*
X167068610Y-97264612D01*
X167183343Y-97065888D01*
X167271157Y-96853887D01*
X167330547Y-96632238D01*
X167360499Y-96404734D01*
X167360499Y-96175266D01*
X167330547Y-95947762D01*
X167271157Y-95726113D01*
X167198987Y-95551879D01*
X167183348Y-95514123D01*
X167183345Y-95514117D01*
X167183343Y-95514112D01*
X167068610Y-95315388D01*
X167068607Y-95315385D01*
X167068606Y-95315382D01*
X166952134Y-95163594D01*
X166928918Y-95133339D01*
X166928917Y-95133338D01*
X166928910Y-95133330D01*
X166907761Y-95112181D01*
X166874276Y-95050858D01*
X166879260Y-94981166D01*
X166921132Y-94925233D01*
X166986596Y-94900816D01*
X166995442Y-94900500D01*
X167098543Y-94900500D01*
X167228582Y-94874632D01*
X167291835Y-94862051D01*
X167365860Y-94831389D01*
X167479543Y-94784301D01*
X167480217Y-94785930D01*
X167540447Y-94773389D01*
X167605691Y-94798388D01*
X167647062Y-94854692D01*
X167654499Y-94896989D01*
X167654499Y-96830572D01*
X167654183Y-96839419D01*
X167639868Y-97039557D01*
X167637350Y-97057068D01*
X167595645Y-97248787D01*
X167590661Y-97265763D01*
X167522089Y-97449609D01*
X167514739Y-97465701D01*
X167420710Y-97637904D01*
X167411145Y-97652789D01*
X167293558Y-97809866D01*
X167281972Y-97823236D01*
X167143234Y-97961974D01*
X167129863Y-97973560D01*
X166972790Y-98091143D01*
X166957907Y-98100708D01*
X166785701Y-98194739D01*
X166769608Y-98202089D01*
X166585762Y-98270661D01*
X166568786Y-98275645D01*
X166377067Y-98317350D01*
X166359556Y-98319868D01*
X166245805Y-98328004D01*
X166159397Y-98334184D01*
X166150562Y-98334500D01*
X161528594Y-98334500D01*
X161461555Y-98314815D01*
X161415800Y-98262011D01*
X161407129Y-98210161D01*
X161404627Y-98210161D01*
X161404627Y-98075928D01*
X161379629Y-97950261D01*
X161379628Y-97950260D01*
X161379628Y-97950256D01*
X161341701Y-97858692D01*
X161330593Y-97831875D01*
X161330588Y-97831866D01*
X161259403Y-97725331D01*
X161259400Y-97725327D01*
X161168799Y-97634726D01*
X161168795Y-97634723D01*
X161062260Y-97563538D01*
X161062251Y-97563533D01*
X160943871Y-97514499D01*
X160943865Y-97514497D01*
X160818198Y-97489500D01*
X160818196Y-97489500D01*
X160690058Y-97489500D01*
X160690056Y-97489500D01*
X160564384Y-97514498D01*
X160564382Y-97514498D01*
X160551576Y-97519803D01*
X160482106Y-97527269D01*
X160456678Y-97519803D01*
X160443870Y-97514498D01*
X160318198Y-97489500D01*
X160318196Y-97489500D01*
X160190058Y-97489500D01*
X160190056Y-97489500D01*
X160064384Y-97514498D01*
X160064382Y-97514498D01*
X160051576Y-97519803D01*
X159982106Y-97527269D01*
X159956678Y-97519803D01*
X159943870Y-97514498D01*
X159818198Y-97489500D01*
X159818196Y-97489500D01*
X159690058Y-97489500D01*
X159690056Y-97489500D01*
X159564384Y-97514498D01*
X159564382Y-97514498D01*
X159551576Y-97519803D01*
X159482106Y-97527269D01*
X159456678Y-97519803D01*
X159443870Y-97514498D01*
X159318198Y-97489500D01*
X159318196Y-97489500D01*
X159190058Y-97489500D01*
X159190056Y-97489500D01*
X159064384Y-97514498D01*
X159064382Y-97514498D01*
X159051576Y-97519803D01*
X158982106Y-97527269D01*
X158956678Y-97519803D01*
X158943870Y-97514498D01*
X158818198Y-97489500D01*
X158818196Y-97489500D01*
X158690058Y-97489500D01*
X158690056Y-97489500D01*
X158564384Y-97514498D01*
X158564382Y-97514498D01*
X158551576Y-97519803D01*
X158482106Y-97527269D01*
X158456678Y-97519803D01*
X158443870Y-97514498D01*
X158318198Y-97489500D01*
X158318196Y-97489500D01*
X158190058Y-97489500D01*
X158190056Y-97489500D01*
X158064384Y-97514498D01*
X158064382Y-97514498D01*
X158051576Y-97519803D01*
X157982106Y-97527269D01*
X157956678Y-97519803D01*
X157943870Y-97514498D01*
X157818198Y-97489500D01*
X157818196Y-97489500D01*
X157690058Y-97489500D01*
X157690056Y-97489500D01*
X157564384Y-97514498D01*
X157564382Y-97514498D01*
X157551576Y-97519803D01*
X157484034Y-97527601D01*
X157469899Y-97525280D01*
X157443871Y-97514499D01*
X157318196Y-97489500D01*
X157252005Y-97489500D01*
X157242024Y-97487861D01*
X157219284Y-97476922D01*
X157195078Y-97469815D01*
X157188338Y-97462037D01*
X157179060Y-97457574D01*
X157165841Y-97436074D01*
X157149323Y-97417011D01*
X157147556Y-97412952D01*
X157109397Y-97320827D01*
X157109390Y-97320814D01*
X157021789Y-97189711D01*
X157021786Y-97189707D01*
X156910292Y-97078213D01*
X156910288Y-97078210D01*
X156779185Y-96990609D01*
X156779172Y-96990602D01*
X156633501Y-96930264D01*
X156633489Y-96930261D01*
X156478845Y-96899500D01*
X156478842Y-96899500D01*
X156321158Y-96899500D01*
X156321155Y-96899500D01*
X156166510Y-96930261D01*
X156166498Y-96930264D01*
X156020827Y-96990602D01*
X156020814Y-96990609D01*
X155889711Y-97078210D01*
X155889707Y-97078213D01*
X155778213Y-97189707D01*
X155778210Y-97189711D01*
X155690609Y-97320814D01*
X155690602Y-97320827D01*
X155630264Y-97466498D01*
X155630261Y-97466510D01*
X155599500Y-97621153D01*
X155599500Y-97778846D01*
X155630261Y-97933489D01*
X155630264Y-97933501D01*
X155690602Y-98079172D01*
X155690609Y-98079185D01*
X155732320Y-98141609D01*
X155753198Y-98208286D01*
X155734714Y-98275667D01*
X155682735Y-98322357D01*
X155629218Y-98334500D01*
X142996941Y-98334500D01*
X142929902Y-98314815D01*
X142884147Y-98262011D01*
X142874203Y-98192853D01*
X142903228Y-98129297D01*
X142909260Y-98122819D01*
X142921786Y-98110292D01*
X142921789Y-98110289D01*
X143009394Y-97979179D01*
X143011722Y-97973560D01*
X143037632Y-97911006D01*
X143069737Y-97833497D01*
X143100500Y-97678842D01*
X143100500Y-97521158D01*
X143100500Y-97521155D01*
X143100499Y-97521153D01*
X143085683Y-97446670D01*
X143069737Y-97366503D01*
X143036620Y-97286551D01*
X143009397Y-97220827D01*
X143009390Y-97220814D01*
X142921789Y-97089711D01*
X142921786Y-97089707D01*
X142810292Y-96978213D01*
X142810288Y-96978210D01*
X142679185Y-96890609D01*
X142679172Y-96890602D01*
X142533501Y-96830264D01*
X142533492Y-96830261D01*
X142505734Y-96824740D01*
X142443823Y-96792354D01*
X142409250Y-96731638D01*
X142410151Y-96671033D01*
X142420547Y-96632238D01*
X142450499Y-96404734D01*
X142450499Y-96175266D01*
X142420547Y-95947762D01*
X142361157Y-95726113D01*
X142354960Y-95711153D01*
X146699499Y-95711153D01*
X146699499Y-95868846D01*
X146730260Y-96023489D01*
X146730263Y-96023501D01*
X146790601Y-96169172D01*
X146790608Y-96169185D01*
X146878209Y-96300288D01*
X146878212Y-96300292D01*
X146989706Y-96411786D01*
X146989709Y-96411788D01*
X146989710Y-96411789D01*
X147015218Y-96428833D01*
X147027288Y-96436898D01*
X147072092Y-96490511D01*
X147080799Y-96559836D01*
X147050644Y-96622863D01*
X147027288Y-96643102D01*
X146989706Y-96668213D01*
X146878212Y-96779707D01*
X146878209Y-96779711D01*
X146790608Y-96910814D01*
X146790601Y-96910827D01*
X146730263Y-97056498D01*
X146730260Y-97056510D01*
X146699499Y-97211153D01*
X146699499Y-97368846D01*
X146730260Y-97523489D01*
X146730263Y-97523501D01*
X146790601Y-97669172D01*
X146790608Y-97669185D01*
X146878209Y-97800288D01*
X146878212Y-97800292D01*
X146989706Y-97911786D01*
X146989710Y-97911789D01*
X147120813Y-97999390D01*
X147120826Y-97999397D01*
X147220059Y-98040500D01*
X147266502Y-98059737D01*
X147266506Y-98059737D01*
X147266507Y-98059738D01*
X147401045Y-98086500D01*
X147401048Y-98086500D01*
X147421157Y-98090500D01*
X147578841Y-98090500D01*
X147598950Y-98086500D01*
X147598953Y-98086500D01*
X147698598Y-98066678D01*
X147733496Y-98059737D01*
X147852250Y-98010548D01*
X147879171Y-97999397D01*
X147879171Y-97999396D01*
X147879178Y-97999394D01*
X148010288Y-97911789D01*
X148121788Y-97800289D01*
X148209393Y-97669179D01*
X148269736Y-97523497D01*
X148300499Y-97368842D01*
X148300499Y-97211158D01*
X148300499Y-97211155D01*
X148300498Y-97211153D01*
X148296232Y-97189707D01*
X148269736Y-97056503D01*
X148242439Y-96990602D01*
X148209396Y-96910827D01*
X148209389Y-96910814D01*
X148121788Y-96779711D01*
X148121785Y-96779707D01*
X148010291Y-96668213D01*
X148010283Y-96668207D01*
X147972711Y-96643102D01*
X147927905Y-96589490D01*
X147919198Y-96520165D01*
X147949352Y-96457138D01*
X147972711Y-96436898D01*
X147999278Y-96419145D01*
X148010288Y-96411789D01*
X148121788Y-96300289D01*
X148209393Y-96169179D01*
X148269736Y-96023497D01*
X148300499Y-95868842D01*
X148300499Y-95821153D01*
X157398499Y-95821153D01*
X157398499Y-95978846D01*
X157429260Y-96133489D01*
X157429263Y-96133501D01*
X157489601Y-96279172D01*
X157489608Y-96279185D01*
X157577209Y-96410288D01*
X157577212Y-96410292D01*
X157688706Y-96521786D01*
X157688710Y-96521789D01*
X157819813Y-96609390D01*
X157819826Y-96609397D01*
X157961808Y-96668207D01*
X157965502Y-96669737D01*
X158120152Y-96700499D01*
X158120155Y-96700500D01*
X158120157Y-96700500D01*
X158277843Y-96700500D01*
X158277844Y-96700499D01*
X158432496Y-96669737D01*
X158578178Y-96609394D01*
X158709288Y-96521789D01*
X158820788Y-96410289D01*
X158908393Y-96279179D01*
X158934938Y-96215092D01*
X158978778Y-96160690D01*
X159045072Y-96138624D01*
X159112771Y-96155903D01*
X159160382Y-96207039D01*
X159164060Y-96215092D01*
X159190604Y-96279175D01*
X159190609Y-96279185D01*
X159278210Y-96410288D01*
X159278213Y-96410292D01*
X159389707Y-96521786D01*
X159389711Y-96521789D01*
X159520814Y-96609390D01*
X159520827Y-96609397D01*
X159662809Y-96668207D01*
X159666503Y-96669737D01*
X159821153Y-96700499D01*
X159821156Y-96700500D01*
X159821158Y-96700500D01*
X159978844Y-96700500D01*
X159978845Y-96700499D01*
X160133497Y-96669737D01*
X160279179Y-96609394D01*
X160410289Y-96521789D01*
X160521789Y-96410289D01*
X160609394Y-96279179D01*
X160669737Y-96133497D01*
X160692083Y-96021158D01*
X160692084Y-96021153D01*
X160999500Y-96021153D01*
X160999500Y-96178846D01*
X161030261Y-96333489D01*
X161030264Y-96333501D01*
X161090602Y-96479172D01*
X161090609Y-96479185D01*
X161178210Y-96610288D01*
X161178213Y-96610292D01*
X161289707Y-96721786D01*
X161289711Y-96721789D01*
X161420814Y-96809390D01*
X161420827Y-96809397D01*
X161493308Y-96839419D01*
X161566503Y-96869737D01*
X161716131Y-96899500D01*
X161721153Y-96900499D01*
X161721156Y-96900500D01*
X161721158Y-96900500D01*
X161878844Y-96900500D01*
X161878845Y-96900499D01*
X162033497Y-96869737D01*
X162179179Y-96809394D01*
X162310289Y-96721789D01*
X162421789Y-96610289D01*
X162509394Y-96479179D01*
X162569737Y-96333497D01*
X162600500Y-96178842D01*
X162600500Y-96021158D01*
X162600500Y-96021155D01*
X162600499Y-96021153D01*
X162594476Y-95990874D01*
X162569737Y-95866503D01*
X162550955Y-95821158D01*
X162509397Y-95720827D01*
X162509390Y-95720814D01*
X162421789Y-95589711D01*
X162421786Y-95589707D01*
X162310292Y-95478213D01*
X162310288Y-95478210D01*
X162179185Y-95390609D01*
X162179172Y-95390602D01*
X162033501Y-95330264D01*
X162033489Y-95330261D01*
X161878845Y-95299500D01*
X161878842Y-95299500D01*
X161721158Y-95299500D01*
X161721155Y-95299500D01*
X161566510Y-95330261D01*
X161566498Y-95330264D01*
X161420827Y-95390602D01*
X161420814Y-95390609D01*
X161289711Y-95478210D01*
X161289707Y-95478213D01*
X161178213Y-95589707D01*
X161178210Y-95589711D01*
X161090609Y-95720814D01*
X161090602Y-95720827D01*
X161030264Y-95866498D01*
X161030261Y-95866510D01*
X160999500Y-96021153D01*
X160692084Y-96021153D01*
X160698107Y-95990875D01*
X160698107Y-95990874D01*
X160700500Y-95978844D01*
X160700500Y-95821155D01*
X160700499Y-95821153D01*
X160680543Y-95720827D01*
X160669737Y-95666503D01*
X160667613Y-95661375D01*
X160609397Y-95520827D01*
X160609390Y-95520814D01*
X160521789Y-95389711D01*
X160521786Y-95389707D01*
X160410292Y-95278213D01*
X160410288Y-95278210D01*
X160279185Y-95190609D01*
X160279172Y-95190602D01*
X160133501Y-95130264D01*
X160133489Y-95130261D01*
X159978845Y-95099500D01*
X159978842Y-95099500D01*
X159821158Y-95099500D01*
X159821155Y-95099500D01*
X159666510Y-95130261D01*
X159666498Y-95130264D01*
X159520827Y-95190602D01*
X159520814Y-95190609D01*
X159389711Y-95278210D01*
X159389707Y-95278213D01*
X159278213Y-95389707D01*
X159278210Y-95389711D01*
X159190609Y-95520814D01*
X159190604Y-95520824D01*
X159164060Y-95584907D01*
X159120218Y-95639311D01*
X159053924Y-95661375D01*
X158986225Y-95644095D01*
X158938615Y-95592958D01*
X158934938Y-95584906D01*
X158908396Y-95520827D01*
X158908389Y-95520814D01*
X158820788Y-95389711D01*
X158820785Y-95389707D01*
X158709291Y-95278213D01*
X158709287Y-95278210D01*
X158578184Y-95190609D01*
X158578171Y-95190602D01*
X158432500Y-95130264D01*
X158432488Y-95130261D01*
X158277844Y-95099500D01*
X158277841Y-95099500D01*
X158120157Y-95099500D01*
X158120154Y-95099500D01*
X157965509Y-95130261D01*
X157965497Y-95130264D01*
X157819826Y-95190602D01*
X157819813Y-95190609D01*
X157688710Y-95278210D01*
X157688706Y-95278213D01*
X157577212Y-95389707D01*
X157577209Y-95389711D01*
X157489608Y-95520814D01*
X157489601Y-95520827D01*
X157429263Y-95666498D01*
X157429260Y-95666510D01*
X157398499Y-95821153D01*
X148300499Y-95821153D01*
X148300499Y-95711158D01*
X148300499Y-95711155D01*
X148300498Y-95711153D01*
X148291618Y-95666510D01*
X148269736Y-95556503D01*
X148267821Y-95551879D01*
X148209396Y-95410827D01*
X148209389Y-95410814D01*
X148121788Y-95279711D01*
X148121785Y-95279707D01*
X148010291Y-95168213D01*
X148010287Y-95168210D01*
X147879184Y-95080609D01*
X147879171Y-95080602D01*
X147733500Y-95020264D01*
X147733488Y-95020261D01*
X147578844Y-94989500D01*
X147578841Y-94989500D01*
X147421157Y-94989500D01*
X147421154Y-94989500D01*
X147266509Y-95020261D01*
X147266497Y-95020264D01*
X147120826Y-95080602D01*
X147120813Y-95080609D01*
X146989710Y-95168210D01*
X146989706Y-95168213D01*
X146878212Y-95279707D01*
X146878209Y-95279711D01*
X146790608Y-95410814D01*
X146790601Y-95410827D01*
X146730263Y-95556498D01*
X146730260Y-95556510D01*
X146699499Y-95711153D01*
X142354960Y-95711153D01*
X142288987Y-95551879D01*
X142273348Y-95514123D01*
X142273345Y-95514117D01*
X142273343Y-95514112D01*
X142158610Y-95315388D01*
X142158607Y-95315385D01*
X142158606Y-95315382D01*
X142042134Y-95163594D01*
X142018918Y-95133339D01*
X142018917Y-95133338D01*
X142018910Y-95133330D01*
X141856669Y-94971089D01*
X141856660Y-94971081D01*
X141674613Y-94831390D01*
X141648635Y-94816392D01*
X141475887Y-94716656D01*
X141475875Y-94716650D01*
X141472114Y-94715092D01*
X149004499Y-94715092D01*
X149004499Y-94864907D01*
X149033722Y-95011822D01*
X149033724Y-95011830D01*
X149091050Y-95150229D01*
X149091055Y-95150238D01*
X149174279Y-95274790D01*
X149174282Y-95274794D01*
X149280204Y-95380716D01*
X149280208Y-95380719D01*
X149404760Y-95463943D01*
X149404766Y-95463946D01*
X149404767Y-95463947D01*
X149543169Y-95521275D01*
X149690091Y-95550499D01*
X149690095Y-95550500D01*
X149690096Y-95550500D01*
X149839903Y-95550500D01*
X149839904Y-95550499D01*
X149986829Y-95521275D01*
X150125231Y-95463947D01*
X150125236Y-95463943D01*
X150125239Y-95463942D01*
X150204739Y-95410821D01*
X150224432Y-95397662D01*
X150291108Y-95376784D01*
X150358489Y-95395268D01*
X150381004Y-95413083D01*
X150489707Y-95521786D01*
X150489711Y-95521789D01*
X150620814Y-95609390D01*
X150620827Y-95609397D01*
X150704597Y-95644095D01*
X150766503Y-95669737D01*
X150917780Y-95699828D01*
X150921153Y-95700499D01*
X150921156Y-95700500D01*
X150921158Y-95700500D01*
X151078844Y-95700500D01*
X151078845Y-95700499D01*
X151233497Y-95669737D01*
X151379179Y-95609394D01*
X151510289Y-95521789D01*
X151621789Y-95410289D01*
X151709394Y-95279179D01*
X151769737Y-95133497D01*
X151800500Y-94978842D01*
X151800500Y-94821158D01*
X151800500Y-94821155D01*
X151800499Y-94821153D01*
X151783004Y-94733196D01*
X151779403Y-94715092D01*
X152814499Y-94715092D01*
X152814499Y-94864907D01*
X152843722Y-95011822D01*
X152843724Y-95011830D01*
X152901050Y-95150229D01*
X152901055Y-95150238D01*
X152984279Y-95274790D01*
X152984282Y-95274794D01*
X153090204Y-95380716D01*
X153090208Y-95380719D01*
X153214760Y-95463943D01*
X153214766Y-95463946D01*
X153214767Y-95463947D01*
X153353169Y-95521275D01*
X153500091Y-95550499D01*
X153500095Y-95550500D01*
X153500096Y-95550500D01*
X153649903Y-95550500D01*
X153649904Y-95550499D01*
X153796829Y-95521275D01*
X153923911Y-95468636D01*
X153993381Y-95461167D01*
X154055860Y-95492442D01*
X154059045Y-95495516D01*
X154115408Y-95551879D01*
X154115412Y-95551882D01*
X154246515Y-95639483D01*
X154246528Y-95639490D01*
X154392199Y-95699828D01*
X154392204Y-95699830D01*
X154524332Y-95726112D01*
X154546854Y-95730592D01*
X154546857Y-95730593D01*
X154546859Y-95730593D01*
X154704545Y-95730593D01*
X154704546Y-95730592D01*
X154859198Y-95699830D01*
X155004880Y-95639487D01*
X155135990Y-95551882D01*
X155247490Y-95440382D01*
X155335095Y-95309272D01*
X155395438Y-95163590D01*
X155426201Y-95008935D01*
X155426201Y-94851251D01*
X155426201Y-94851248D01*
X155426200Y-94851246D01*
X155395439Y-94696603D01*
X155395438Y-94696596D01*
X155382971Y-94666498D01*
X155335098Y-94550920D01*
X155335091Y-94550907D01*
X155247490Y-94419804D01*
X155247487Y-94419800D01*
X155135993Y-94308306D01*
X155135989Y-94308303D01*
X155004886Y-94220702D01*
X155004873Y-94220695D01*
X154859202Y-94160357D01*
X154859190Y-94160354D01*
X154704546Y-94129593D01*
X154704543Y-94129593D01*
X154546859Y-94129593D01*
X154546856Y-94129593D01*
X154392211Y-94160354D01*
X154392199Y-94160357D01*
X154246529Y-94220695D01*
X154246513Y-94220704D01*
X154232031Y-94230380D01*
X154165352Y-94251254D01*
X154097973Y-94232766D01*
X154075465Y-94214955D01*
X154059793Y-94199283D01*
X154059789Y-94199280D01*
X153935237Y-94116056D01*
X153935228Y-94116051D01*
X153796829Y-94058725D01*
X153796821Y-94058723D01*
X153649906Y-94029500D01*
X153649902Y-94029500D01*
X153500096Y-94029500D01*
X153500091Y-94029500D01*
X153353176Y-94058723D01*
X153353168Y-94058725D01*
X153214769Y-94116051D01*
X153214760Y-94116056D01*
X153090208Y-94199280D01*
X153090204Y-94199283D01*
X152984282Y-94305205D01*
X152984279Y-94305209D01*
X152901055Y-94429761D01*
X152901050Y-94429770D01*
X152843724Y-94568169D01*
X152843722Y-94568177D01*
X152814499Y-94715092D01*
X151779403Y-94715092D01*
X151769738Y-94666508D01*
X151769737Y-94666507D01*
X151769737Y-94666503D01*
X151767218Y-94660422D01*
X151709397Y-94520827D01*
X151709390Y-94520814D01*
X151621789Y-94389711D01*
X151621786Y-94389707D01*
X151510292Y-94278213D01*
X151510288Y-94278210D01*
X151379185Y-94190609D01*
X151379172Y-94190602D01*
X151233501Y-94130264D01*
X151233489Y-94130261D01*
X151078845Y-94099500D01*
X151078842Y-94099500D01*
X150921158Y-94099500D01*
X150921155Y-94099500D01*
X150766510Y-94130261D01*
X150766498Y-94130264D01*
X150620827Y-94190602D01*
X150620814Y-94190609D01*
X150489711Y-94278209D01*
X150488162Y-94279482D01*
X150487191Y-94279894D01*
X150484646Y-94281595D01*
X150484323Y-94281112D01*
X150423852Y-94306794D01*
X150354985Y-94295001D01*
X150321818Y-94271308D01*
X150249793Y-94199283D01*
X150249789Y-94199280D01*
X150125237Y-94116056D01*
X150125228Y-94116051D01*
X149986829Y-94058725D01*
X149986821Y-94058723D01*
X149839906Y-94029500D01*
X149839902Y-94029500D01*
X149690096Y-94029500D01*
X149690091Y-94029500D01*
X149543176Y-94058723D01*
X149543168Y-94058725D01*
X149404769Y-94116051D01*
X149404760Y-94116056D01*
X149280208Y-94199280D01*
X149280204Y-94199283D01*
X149174282Y-94305205D01*
X149174279Y-94305209D01*
X149091055Y-94429761D01*
X149091050Y-94429770D01*
X149033724Y-94568169D01*
X149033722Y-94568177D01*
X149004499Y-94715092D01*
X141472114Y-94715092D01*
X141263886Y-94628842D01*
X141042237Y-94569452D01*
X141004214Y-94564446D01*
X140814740Y-94539500D01*
X140814733Y-94539500D01*
X140585265Y-94539500D01*
X140585257Y-94539500D01*
X140368714Y-94568009D01*
X140357761Y-94569452D01*
X140264075Y-94594554D01*
X140136111Y-94628842D01*
X139924122Y-94716650D01*
X139924108Y-94716657D01*
X139725381Y-94831392D01*
X139543337Y-94971081D01*
X139381080Y-95133338D01*
X139241391Y-95315382D01*
X139126656Y-95514109D01*
X139126649Y-95514123D01*
X139038841Y-95726112D01*
X138979452Y-95947759D01*
X138979450Y-95947770D01*
X138949499Y-96175258D01*
X138949499Y-96404741D01*
X138961961Y-96499394D01*
X138979451Y-96632238D01*
X139024268Y-96799500D01*
X139038841Y-96853887D01*
X139126649Y-97065876D01*
X139126655Y-97065888D01*
X139232251Y-97248787D01*
X139241391Y-97264617D01*
X139381080Y-97446661D01*
X139381088Y-97446670D01*
X139543329Y-97608911D01*
X139543337Y-97608918D01*
X139725381Y-97748607D01*
X139725384Y-97748608D01*
X139725387Y-97748611D01*
X139924111Y-97863344D01*
X139924116Y-97863346D01*
X139924122Y-97863349D01*
X139981704Y-97887200D01*
X140136112Y-97951158D01*
X140357761Y-98010548D01*
X140585265Y-98040500D01*
X140585272Y-98040500D01*
X140814726Y-98040500D01*
X140814733Y-98040500D01*
X141042237Y-98010548D01*
X141263886Y-97951158D01*
X141418295Y-97887199D01*
X141487759Y-97879731D01*
X141550238Y-97911006D01*
X141569338Y-97933613D01*
X141575802Y-97943439D01*
X141590606Y-97979179D01*
X141678211Y-98110289D01*
X141699694Y-98131772D01*
X141706654Y-98142352D01*
X141713306Y-98164146D01*
X141724225Y-98184142D01*
X141723311Y-98196922D01*
X141727052Y-98209178D01*
X141720866Y-98231105D01*
X141719241Y-98253834D01*
X141711561Y-98264092D01*
X141708083Y-98276423D01*
X141691023Y-98291527D01*
X141677369Y-98309767D01*
X141665365Y-98314244D01*
X141655771Y-98322739D01*
X141633251Y-98326222D01*
X141611905Y-98334184D01*
X141603059Y-98334500D01*
X140159427Y-98334500D01*
X140150581Y-98334184D01*
X140128621Y-98332613D01*
X139950441Y-98319869D01*
X139932930Y-98317351D01*
X139741211Y-98275646D01*
X139724235Y-98270662D01*
X139540391Y-98202091D01*
X139524298Y-98194741D01*
X139352091Y-98100708D01*
X139337208Y-98091143D01*
X139180135Y-97973560D01*
X139166764Y-97961974D01*
X139028026Y-97823236D01*
X139016440Y-97809866D01*
X138953155Y-97725327D01*
X138898849Y-97652784D01*
X138889288Y-97637904D01*
X138795259Y-97465701D01*
X138787909Y-97449609D01*
X138782861Y-97436074D01*
X138719334Y-97265755D01*
X138714355Y-97248797D01*
X138672647Y-97057063D01*
X138670130Y-97039556D01*
X138666629Y-96990609D01*
X138655814Y-96839400D01*
X138655499Y-96830562D01*
X138655499Y-92832244D01*
X156988409Y-92832244D01*
X156988409Y-92989937D01*
X157019170Y-93144580D01*
X157019173Y-93144592D01*
X157079511Y-93290263D01*
X157079518Y-93290276D01*
X157167119Y-93421379D01*
X157167122Y-93421383D01*
X157278616Y-93532877D01*
X157278620Y-93532880D01*
X157409723Y-93620481D01*
X157409736Y-93620488D01*
X157528638Y-93669738D01*
X157555412Y-93680828D01*
X157710062Y-93711590D01*
X157710065Y-93711591D01*
X157710067Y-93711591D01*
X157867753Y-93711591D01*
X157867754Y-93711590D01*
X158022406Y-93680828D01*
X158168088Y-93620485D01*
X158299198Y-93532880D01*
X158410698Y-93421380D01*
X158498303Y-93290270D01*
X158558646Y-93144588D01*
X158589409Y-92989933D01*
X158589409Y-92832249D01*
X158589409Y-92832245D01*
X158587203Y-92821153D01*
X158899500Y-92821153D01*
X158899500Y-92978846D01*
X158930261Y-93133489D01*
X158930264Y-93133501D01*
X158990602Y-93279172D01*
X158990609Y-93279185D01*
X159078210Y-93410288D01*
X159078213Y-93410292D01*
X159189707Y-93521786D01*
X159189711Y-93521789D01*
X159320814Y-93609390D01*
X159320827Y-93609397D01*
X159452819Y-93664069D01*
X159466503Y-93669737D01*
X159621153Y-93700499D01*
X159621156Y-93700500D01*
X159621158Y-93700500D01*
X159778844Y-93700500D01*
X159778845Y-93700499D01*
X159933497Y-93669737D01*
X160079179Y-93609394D01*
X160210289Y-93521789D01*
X160321789Y-93410289D01*
X160409394Y-93279179D01*
X160469737Y-93133497D01*
X160500500Y-92978842D01*
X160500500Y-92821158D01*
X160500500Y-92821155D01*
X160500499Y-92821153D01*
X160494203Y-92789502D01*
X160469737Y-92666503D01*
X160416421Y-92537785D01*
X160409397Y-92520827D01*
X160409390Y-92520814D01*
X160321789Y-92389711D01*
X160321786Y-92389707D01*
X160210292Y-92278213D01*
X160210288Y-92278210D01*
X160079185Y-92190609D01*
X160079172Y-92190602D01*
X159933501Y-92130264D01*
X159933489Y-92130261D01*
X159778845Y-92099500D01*
X159778842Y-92099500D01*
X159621158Y-92099500D01*
X159621155Y-92099500D01*
X159466510Y-92130261D01*
X159466498Y-92130264D01*
X159320827Y-92190602D01*
X159320814Y-92190609D01*
X159189711Y-92278210D01*
X159189707Y-92278213D01*
X159078213Y-92389707D01*
X159078210Y-92389711D01*
X158990609Y-92520814D01*
X158990602Y-92520827D01*
X158930264Y-92666498D01*
X158930261Y-92666510D01*
X158899500Y-92821153D01*
X158587203Y-92821153D01*
X158558647Y-92677601D01*
X158558646Y-92677594D01*
X158500736Y-92537785D01*
X158498306Y-92531918D01*
X158498299Y-92531905D01*
X158410698Y-92400802D01*
X158410695Y-92400798D01*
X158299201Y-92289304D01*
X158299197Y-92289301D01*
X158168094Y-92201700D01*
X158168081Y-92201693D01*
X158022410Y-92141355D01*
X158022398Y-92141352D01*
X157867754Y-92110591D01*
X157867751Y-92110591D01*
X157710067Y-92110591D01*
X157710064Y-92110591D01*
X157555419Y-92141352D01*
X157555407Y-92141355D01*
X157409736Y-92201693D01*
X157409723Y-92201700D01*
X157278620Y-92289301D01*
X157278616Y-92289304D01*
X157167122Y-92400798D01*
X157167119Y-92400802D01*
X157079518Y-92531905D01*
X157079511Y-92531918D01*
X157019173Y-92677589D01*
X157019170Y-92677601D01*
X156988409Y-92832244D01*
X138655499Y-92832244D01*
X138655499Y-90721153D01*
X140199499Y-90721153D01*
X140199499Y-90878846D01*
X140230260Y-91033489D01*
X140230263Y-91033501D01*
X140290601Y-91179172D01*
X140290608Y-91179185D01*
X140378209Y-91310288D01*
X140378212Y-91310292D01*
X140489706Y-91421786D01*
X140489710Y-91421789D01*
X140620813Y-91509390D01*
X140620826Y-91509397D01*
X140666253Y-91528213D01*
X140766502Y-91569737D01*
X140921152Y-91600499D01*
X140921155Y-91600500D01*
X140921157Y-91600500D01*
X141078843Y-91600500D01*
X141078844Y-91600499D01*
X141233496Y-91569737D01*
X141372698Y-91512078D01*
X141374931Y-91511153D01*
X144799499Y-91511153D01*
X144799499Y-91668846D01*
X144830260Y-91823489D01*
X144830263Y-91823501D01*
X144890601Y-91969172D01*
X144890608Y-91969185D01*
X144978209Y-92100288D01*
X144978212Y-92100292D01*
X145089706Y-92211786D01*
X145089710Y-92211789D01*
X145220813Y-92299390D01*
X145220826Y-92299397D01*
X145366497Y-92359735D01*
X145366502Y-92359737D01*
X145521152Y-92390499D01*
X145521155Y-92390500D01*
X145521157Y-92390500D01*
X145678843Y-92390500D01*
X145678844Y-92390499D01*
X145833496Y-92359737D01*
X145979178Y-92299394D01*
X146110288Y-92211789D01*
X146221788Y-92100289D01*
X146309393Y-91969179D01*
X146369736Y-91823497D01*
X146400499Y-91668842D01*
X146400499Y-91511158D01*
X146400499Y-91511155D01*
X146400498Y-91511153D01*
X146383577Y-91426086D01*
X146369736Y-91356503D01*
X146336810Y-91277011D01*
X146309396Y-91210827D01*
X146309389Y-91210814D01*
X146221788Y-91079711D01*
X146221785Y-91079707D01*
X146110291Y-90968213D01*
X146110287Y-90968210D01*
X145979184Y-90880609D01*
X145979171Y-90880602D01*
X145833500Y-90820264D01*
X145833488Y-90820261D01*
X145678844Y-90789500D01*
X145678841Y-90789500D01*
X145521157Y-90789500D01*
X145521154Y-90789500D01*
X145366509Y-90820261D01*
X145366497Y-90820264D01*
X145220826Y-90880602D01*
X145220813Y-90880609D01*
X145089710Y-90968210D01*
X145089706Y-90968213D01*
X144978212Y-91079707D01*
X144978209Y-91079711D01*
X144890608Y-91210814D01*
X144890601Y-91210827D01*
X144830263Y-91356498D01*
X144830260Y-91356510D01*
X144799499Y-91511153D01*
X141374931Y-91511153D01*
X141379171Y-91509397D01*
X141379171Y-91509396D01*
X141379178Y-91509394D01*
X141510288Y-91421789D01*
X141510291Y-91421786D01*
X141514693Y-91417385D01*
X141621785Y-91310292D01*
X141621788Y-91310289D01*
X141709393Y-91179179D01*
X141769736Y-91033497D01*
X141800499Y-90878842D01*
X141800499Y-90721158D01*
X141800499Y-90721155D01*
X141800498Y-90721153D01*
X141783914Y-90637781D01*
X141769736Y-90566503D01*
X141757841Y-90537785D01*
X141709396Y-90420827D01*
X141709389Y-90420814D01*
X141621788Y-90289711D01*
X141621785Y-90289707D01*
X141510291Y-90178213D01*
X141510287Y-90178210D01*
X141391058Y-90098543D01*
X147599499Y-90098543D01*
X147637947Y-90291829D01*
X147637950Y-90291839D01*
X147713364Y-90473907D01*
X147713371Y-90473920D01*
X147822860Y-90637781D01*
X147822863Y-90637785D01*
X147962214Y-90777136D01*
X147962218Y-90777139D01*
X148126079Y-90886628D01*
X148126092Y-90886635D01*
X148308160Y-90962049D01*
X148308165Y-90962051D01*
X148308169Y-90962051D01*
X148308170Y-90962052D01*
X148501456Y-91000500D01*
X148501459Y-91000500D01*
X148698543Y-91000500D01*
X148828582Y-90974632D01*
X148891835Y-90962051D01*
X149041641Y-90900000D01*
X149073907Y-90886635D01*
X149073907Y-90886634D01*
X149073914Y-90886632D01*
X149237782Y-90777139D01*
X149377139Y-90637782D01*
X149486632Y-90473914D01*
X149562051Y-90291835D01*
X149575280Y-90225331D01*
X149578383Y-90209732D01*
X149610768Y-90147821D01*
X149671484Y-90113246D01*
X149741253Y-90116986D01*
X149797925Y-90157853D01*
X149821617Y-90209732D01*
X149837947Y-90291827D01*
X149837950Y-90291839D01*
X149913364Y-90473907D01*
X149913371Y-90473920D01*
X150022860Y-90637781D01*
X150022863Y-90637785D01*
X150162214Y-90777136D01*
X150162218Y-90777139D01*
X150326079Y-90886628D01*
X150326092Y-90886635D01*
X150508160Y-90962049D01*
X150508165Y-90962051D01*
X150508169Y-90962051D01*
X150508170Y-90962052D01*
X150701456Y-91000500D01*
X150701459Y-91000500D01*
X150898543Y-91000500D01*
X151028582Y-90974632D01*
X151091835Y-90962051D01*
X151209087Y-90913483D01*
X151278554Y-90906015D01*
X151341034Y-90937290D01*
X151370643Y-90984747D01*
X151372168Y-90984116D01*
X151423533Y-91108124D01*
X151423538Y-91108133D01*
X151494723Y-91214668D01*
X151494726Y-91214672D01*
X151585327Y-91305273D01*
X151585331Y-91305276D01*
X151691866Y-91376461D01*
X151691875Y-91376466D01*
X151701520Y-91380461D01*
X151810256Y-91425501D01*
X151810260Y-91425501D01*
X151810261Y-91425502D01*
X151935928Y-91450500D01*
X151935931Y-91450500D01*
X152064071Y-91450500D01*
X152148615Y-91433682D01*
X152189744Y-91425501D01*
X152308127Y-91376465D01*
X152414669Y-91305276D01*
X152505276Y-91214669D01*
X152576465Y-91108127D01*
X152614591Y-91016081D01*
X152658429Y-90961683D01*
X152724723Y-90939617D01*
X152776599Y-90948976D01*
X152808165Y-90962051D01*
X152808169Y-90962051D01*
X152808170Y-90962052D01*
X153001456Y-91000500D01*
X153001459Y-91000500D01*
X153198543Y-91000500D01*
X153328582Y-90974632D01*
X153391835Y-90962051D01*
X153541641Y-90900000D01*
X153573907Y-90886635D01*
X153573907Y-90886634D01*
X153573914Y-90886632D01*
X153737782Y-90777139D01*
X153877139Y-90637782D01*
X153986632Y-90473914D01*
X154032130Y-90364071D01*
X156149499Y-90364071D01*
X156174497Y-90489738D01*
X156174499Y-90489744D01*
X156223533Y-90608124D01*
X156223538Y-90608133D01*
X156294723Y-90714668D01*
X156294726Y-90714672D01*
X156385327Y-90805273D01*
X156385331Y-90805276D01*
X156491866Y-90876461D01*
X156491875Y-90876466D01*
X156501870Y-90880606D01*
X156610256Y-90925501D01*
X156614264Y-90926298D01*
X156676176Y-90958681D01*
X156693179Y-90979025D01*
X156743722Y-91054668D01*
X156743725Y-91054672D01*
X156834326Y-91145273D01*
X156834330Y-91145276D01*
X156940865Y-91216461D01*
X156940871Y-91216464D01*
X156940872Y-91216465D01*
X157059255Y-91265501D01*
X157059259Y-91265501D01*
X157059260Y-91265502D01*
X157184927Y-91290500D01*
X157184930Y-91290500D01*
X157313070Y-91290500D01*
X157397614Y-91273682D01*
X157438743Y-91265501D01*
X157451546Y-91260197D01*
X157521012Y-91252728D01*
X157546446Y-91260195D01*
X157559255Y-91265501D01*
X157559259Y-91265501D01*
X157559260Y-91265502D01*
X157684927Y-91290500D01*
X157684930Y-91290500D01*
X157813070Y-91290500D01*
X157897614Y-91273682D01*
X157938743Y-91265501D01*
X157951546Y-91260197D01*
X158021012Y-91252728D01*
X158046446Y-91260195D01*
X158059255Y-91265501D01*
X158059259Y-91265501D01*
X158059260Y-91265502D01*
X158184927Y-91290500D01*
X158184930Y-91290500D01*
X158313070Y-91290500D01*
X158397614Y-91273682D01*
X158438743Y-91265501D01*
X158451546Y-91260197D01*
X158521012Y-91252728D01*
X158546446Y-91260195D01*
X158559255Y-91265501D01*
X158559259Y-91265501D01*
X158559260Y-91265502D01*
X158684927Y-91290500D01*
X158684930Y-91290500D01*
X158813070Y-91290500D01*
X158897614Y-91273682D01*
X158938743Y-91265501D01*
X158951546Y-91260197D01*
X159021012Y-91252728D01*
X159046446Y-91260195D01*
X159059255Y-91265501D01*
X159059259Y-91265501D01*
X159059260Y-91265502D01*
X159184927Y-91290500D01*
X159184930Y-91290500D01*
X159313070Y-91290500D01*
X159397614Y-91273682D01*
X159438743Y-91265501D01*
X159451546Y-91260197D01*
X159521012Y-91252728D01*
X159546446Y-91260195D01*
X159559255Y-91265501D01*
X159559259Y-91265501D01*
X159559260Y-91265502D01*
X159684927Y-91290500D01*
X159684930Y-91290500D01*
X159813070Y-91290500D01*
X159897614Y-91273682D01*
X159938743Y-91265501D01*
X159951546Y-91260197D01*
X160021012Y-91252728D01*
X160046446Y-91260195D01*
X160059255Y-91265501D01*
X160059259Y-91265501D01*
X160059260Y-91265502D01*
X160184927Y-91290500D01*
X160184930Y-91290500D01*
X160313070Y-91290500D01*
X160397614Y-91273682D01*
X160438743Y-91265501D01*
X160451546Y-91260197D01*
X160521012Y-91252728D01*
X160546446Y-91260195D01*
X160559255Y-91265501D01*
X160559259Y-91265501D01*
X160559260Y-91265502D01*
X160684927Y-91290500D01*
X160684930Y-91290500D01*
X160813070Y-91290500D01*
X160897614Y-91273682D01*
X160938743Y-91265501D01*
X160951546Y-91260197D01*
X161021012Y-91252728D01*
X161046446Y-91260195D01*
X161059255Y-91265501D01*
X161059259Y-91265501D01*
X161059260Y-91265502D01*
X161184927Y-91290500D01*
X161184930Y-91290500D01*
X161313070Y-91290500D01*
X161397614Y-91273682D01*
X161438743Y-91265501D01*
X161451546Y-91260197D01*
X161521012Y-91252728D01*
X161527303Y-91254032D01*
X161537126Y-91256335D01*
X161559255Y-91265501D01*
X161671214Y-91287771D01*
X161673263Y-91288252D01*
X161701899Y-91304491D01*
X161731061Y-91319746D01*
X161732140Y-91321641D01*
X161734040Y-91322719D01*
X161749354Y-91351871D01*
X161765635Y-91380461D01*
X161765518Y-91382639D01*
X161766534Y-91384573D01*
X161763656Y-91417377D01*
X161761896Y-91450231D01*
X161760619Y-91452000D01*
X161760429Y-91454175D01*
X161740276Y-91480212D01*
X161721029Y-91506903D01*
X161717833Y-91509207D01*
X161717663Y-91509428D01*
X161717396Y-91509522D01*
X161713853Y-91512078D01*
X161689712Y-91528209D01*
X161689707Y-91528213D01*
X161578213Y-91639707D01*
X161578210Y-91639711D01*
X161490609Y-91770814D01*
X161490602Y-91770827D01*
X161430264Y-91916498D01*
X161430261Y-91916510D01*
X161399500Y-92071153D01*
X161399500Y-92228846D01*
X161430261Y-92383489D01*
X161430264Y-92383501D01*
X161490602Y-92529172D01*
X161490609Y-92529185D01*
X161578210Y-92660288D01*
X161578213Y-92660292D01*
X161689707Y-92771786D01*
X161689711Y-92771789D01*
X161820814Y-92859390D01*
X161820827Y-92859397D01*
X161908182Y-92895580D01*
X161966503Y-92919737D01*
X162116131Y-92949500D01*
X162121153Y-92950499D01*
X162121156Y-92950500D01*
X162121158Y-92950500D01*
X162278844Y-92950500D01*
X162278845Y-92950499D01*
X162341940Y-92937949D01*
X162439472Y-92918549D01*
X162439967Y-92921039D01*
X162498732Y-92920494D01*
X162557858Y-92957723D01*
X162587470Y-93021007D01*
X162578168Y-93090254D01*
X162552583Y-93127471D01*
X162494723Y-93185331D01*
X162423538Y-93291866D01*
X162423533Y-93291875D01*
X162374499Y-93410255D01*
X162374497Y-93410261D01*
X162349500Y-93535928D01*
X162349500Y-93535931D01*
X162349500Y-93664069D01*
X162349500Y-93664071D01*
X162349499Y-93664071D01*
X162374497Y-93789738D01*
X162374499Y-93789744D01*
X162423533Y-93908124D01*
X162423538Y-93908133D01*
X162494723Y-94014668D01*
X162494726Y-94014672D01*
X162585327Y-94105273D01*
X162585331Y-94105276D01*
X162691866Y-94176461D01*
X162691872Y-94176464D01*
X162691873Y-94176465D01*
X162810256Y-94225501D01*
X162810260Y-94225501D01*
X162810261Y-94225502D01*
X162935928Y-94250500D01*
X162935931Y-94250500D01*
X163064071Y-94250500D01*
X163165216Y-94230380D01*
X163189744Y-94225501D01*
X163308127Y-94176465D01*
X163414669Y-94105276D01*
X163505276Y-94014669D01*
X163576465Y-93908127D01*
X163625501Y-93789744D01*
X163643253Y-93700500D01*
X163650500Y-93664071D01*
X163650500Y-93535928D01*
X163625502Y-93410261D01*
X163625501Y-93410260D01*
X163625501Y-93410256D01*
X163576465Y-93291873D01*
X163576464Y-93291872D01*
X163576461Y-93291866D01*
X163505276Y-93185331D01*
X163505273Y-93185327D01*
X163414672Y-93094726D01*
X163414668Y-93094723D01*
X163308133Y-93023538D01*
X163308124Y-93023533D01*
X163189744Y-92974499D01*
X163189738Y-92974497D01*
X163064071Y-92949500D01*
X163064069Y-92949500D01*
X162935931Y-92949500D01*
X162935929Y-92949500D01*
X162833343Y-92969906D01*
X162763751Y-92963679D01*
X162708574Y-92920816D01*
X162685329Y-92854927D01*
X162701397Y-92786930D01*
X162721466Y-92760611D01*
X162821789Y-92660289D01*
X162909394Y-92529179D01*
X162912854Y-92520827D01*
X162962569Y-92400802D01*
X162969737Y-92383497D01*
X163000500Y-92228842D01*
X163000500Y-92071158D01*
X163000500Y-92071155D01*
X163000499Y-92071153D01*
X162980215Y-91969179D01*
X162969737Y-91916503D01*
X162922085Y-91801459D01*
X162909397Y-91770827D01*
X162909390Y-91770814D01*
X162821789Y-91639711D01*
X162821786Y-91639707D01*
X162710292Y-91528213D01*
X162710288Y-91528210D01*
X162579185Y-91440609D01*
X162579172Y-91440602D01*
X162433501Y-91380264D01*
X162433489Y-91380261D01*
X162278845Y-91349500D01*
X162278842Y-91349500D01*
X162258807Y-91349500D01*
X162191768Y-91329815D01*
X162146013Y-91277011D01*
X162136069Y-91207853D01*
X162165094Y-91144297D01*
X162171126Y-91137819D01*
X162254272Y-91054672D01*
X162254275Y-91054669D01*
X162325464Y-90948127D01*
X162374500Y-90829744D01*
X162396100Y-90721158D01*
X162399499Y-90704071D01*
X162399499Y-90575928D01*
X162374501Y-90450261D01*
X162374500Y-90450260D01*
X162374500Y-90450256D01*
X162325464Y-90331873D01*
X162325463Y-90331872D01*
X162325460Y-90331866D01*
X162254275Y-90225331D01*
X162254272Y-90225327D01*
X162163671Y-90134726D01*
X162163667Y-90134723D01*
X162057132Y-90063538D01*
X162057123Y-90063533D01*
X161938743Y-90014499D01*
X161938737Y-90014497D01*
X161813070Y-89989500D01*
X161813068Y-89989500D01*
X161684930Y-89989500D01*
X161684928Y-89989500D01*
X161559256Y-90014498D01*
X161559254Y-90014498D01*
X161546448Y-90019803D01*
X161476978Y-90027269D01*
X161451550Y-90019803D01*
X161438742Y-90014498D01*
X161313070Y-89989500D01*
X161313068Y-89989500D01*
X161184930Y-89989500D01*
X161184928Y-89989500D01*
X161059256Y-90014498D01*
X161059254Y-90014498D01*
X161046448Y-90019803D01*
X160976978Y-90027269D01*
X160951550Y-90019803D01*
X160938742Y-90014498D01*
X160813070Y-89989500D01*
X160813068Y-89989500D01*
X160684930Y-89989500D01*
X160684928Y-89989500D01*
X160559256Y-90014498D01*
X160559254Y-90014498D01*
X160546448Y-90019803D01*
X160476978Y-90027269D01*
X160451550Y-90019803D01*
X160438742Y-90014498D01*
X160313070Y-89989500D01*
X160313068Y-89989500D01*
X160184930Y-89989500D01*
X160184928Y-89989500D01*
X160059256Y-90014498D01*
X160059254Y-90014498D01*
X160046448Y-90019803D01*
X159976978Y-90027269D01*
X159951550Y-90019803D01*
X159938742Y-90014498D01*
X159813070Y-89989500D01*
X159813068Y-89989500D01*
X159684930Y-89989500D01*
X159684928Y-89989500D01*
X159559256Y-90014498D01*
X159559254Y-90014498D01*
X159546448Y-90019803D01*
X159476978Y-90027269D01*
X159451550Y-90019803D01*
X159438742Y-90014498D01*
X159313070Y-89989500D01*
X159313068Y-89989500D01*
X159184930Y-89989500D01*
X159184928Y-89989500D01*
X159059256Y-90014498D01*
X159059254Y-90014498D01*
X159046448Y-90019803D01*
X158976978Y-90027269D01*
X158951550Y-90019803D01*
X158938742Y-90014498D01*
X158813070Y-89989500D01*
X158813068Y-89989500D01*
X158684930Y-89989500D01*
X158684928Y-89989500D01*
X158559256Y-90014498D01*
X158559254Y-90014498D01*
X158546448Y-90019803D01*
X158476978Y-90027269D01*
X158451550Y-90019803D01*
X158438742Y-90014498D01*
X158313070Y-89989500D01*
X158313068Y-89989500D01*
X158184930Y-89989500D01*
X158184928Y-89989500D01*
X158059256Y-90014498D01*
X158059254Y-90014498D01*
X158046448Y-90019803D01*
X157976978Y-90027269D01*
X157951550Y-90019803D01*
X157938742Y-90014498D01*
X157813070Y-89989500D01*
X157813068Y-89989500D01*
X157684930Y-89989500D01*
X157684928Y-89989500D01*
X157559256Y-90014498D01*
X157559254Y-90014498D01*
X157546448Y-90019803D01*
X157520418Y-90022600D01*
X157495081Y-90029178D01*
X157483141Y-90026606D01*
X157476978Y-90027269D01*
X157460322Y-90023054D01*
X157455863Y-90021590D01*
X157438743Y-90014499D01*
X157427372Y-90012237D01*
X157420244Y-90009897D01*
X157397394Y-89994170D01*
X157372816Y-89981313D01*
X157364832Y-89971759D01*
X157362689Y-89970284D01*
X157361773Y-89968098D01*
X157355819Y-89960973D01*
X157305279Y-89885335D01*
X157305273Y-89885327D01*
X157214672Y-89794726D01*
X157214668Y-89794723D01*
X157108133Y-89723538D01*
X157108124Y-89723533D01*
X156989744Y-89674499D01*
X156989738Y-89674497D01*
X156864071Y-89649500D01*
X156864069Y-89649500D01*
X156735931Y-89649500D01*
X156735929Y-89649500D01*
X156610261Y-89674497D01*
X156610255Y-89674499D01*
X156491875Y-89723533D01*
X156491866Y-89723538D01*
X156385331Y-89794723D01*
X156385327Y-89794726D01*
X156294726Y-89885327D01*
X156294723Y-89885331D01*
X156223538Y-89991866D01*
X156223533Y-89991875D01*
X156174499Y-90110255D01*
X156174497Y-90110261D01*
X156149500Y-90235928D01*
X156149500Y-90235931D01*
X156149500Y-90364069D01*
X156149500Y-90364071D01*
X156149499Y-90364071D01*
X154032130Y-90364071D01*
X154062051Y-90291835D01*
X154075785Y-90222786D01*
X154079195Y-90205648D01*
X154079195Y-90205647D01*
X154100500Y-90098543D01*
X154100500Y-89901456D01*
X154062052Y-89708170D01*
X154062051Y-89708169D01*
X154062051Y-89708165D01*
X154048106Y-89674499D01*
X153986635Y-89526092D01*
X153986628Y-89526079D01*
X153877139Y-89362218D01*
X153877136Y-89362214D01*
X153737785Y-89222863D01*
X153737781Y-89222860D01*
X153573920Y-89113371D01*
X153573907Y-89113364D01*
X153391839Y-89037950D01*
X153391829Y-89037947D01*
X153198543Y-88999500D01*
X153198541Y-88999500D01*
X153001459Y-88999500D01*
X153001457Y-88999500D01*
X152808170Y-89037947D01*
X152808160Y-89037950D01*
X152626092Y-89113364D01*
X152626079Y-89113371D01*
X152462218Y-89222860D01*
X152462214Y-89222863D01*
X152322863Y-89362214D01*
X152322860Y-89362218D01*
X152213371Y-89526079D01*
X152213364Y-89526092D01*
X152137950Y-89708160D01*
X152137947Y-89708170D01*
X152099500Y-89901456D01*
X152099500Y-90025500D01*
X152097130Y-90033570D01*
X152098413Y-90041883D01*
X152087432Y-90066597D01*
X152079815Y-90092539D01*
X152073459Y-90098045D01*
X152070044Y-90105734D01*
X152047442Y-90120589D01*
X152027011Y-90138294D01*
X152017170Y-90140487D01*
X152011658Y-90144111D01*
X151979254Y-90148940D01*
X151976776Y-90149493D01*
X151976096Y-90149500D01*
X151935931Y-90149500D01*
X151933738Y-90149936D01*
X151925776Y-90150018D01*
X151897183Y-90141941D01*
X151867991Y-90136400D01*
X151863927Y-90132547D01*
X151858538Y-90131025D01*
X151838847Y-90108768D01*
X151817288Y-90088327D01*
X151815765Y-90082678D01*
X151812242Y-90078695D01*
X151808958Y-90057415D01*
X151800500Y-90026025D01*
X151800500Y-89901456D01*
X151762052Y-89708170D01*
X151762051Y-89708169D01*
X151762051Y-89708165D01*
X151748106Y-89674499D01*
X151686635Y-89526092D01*
X151686628Y-89526079D01*
X151577139Y-89362218D01*
X151577136Y-89362214D01*
X151437785Y-89222863D01*
X151437781Y-89222860D01*
X151273920Y-89113371D01*
X151273907Y-89113364D01*
X151091839Y-89037950D01*
X151091829Y-89037947D01*
X150898543Y-88999500D01*
X150898541Y-88999500D01*
X150701459Y-88999500D01*
X150701457Y-88999500D01*
X150508170Y-89037947D01*
X150508160Y-89037950D01*
X150326092Y-89113364D01*
X150326079Y-89113371D01*
X150162218Y-89222860D01*
X150162214Y-89222863D01*
X150022863Y-89362214D01*
X150022860Y-89362218D01*
X149913371Y-89526079D01*
X149913364Y-89526092D01*
X149837950Y-89708160D01*
X149837947Y-89708170D01*
X149821617Y-89790268D01*
X149789232Y-89852179D01*
X149728516Y-89886753D01*
X149658747Y-89883013D01*
X149602075Y-89842146D01*
X149578383Y-89790268D01*
X149562052Y-89708170D01*
X149562051Y-89708169D01*
X149562051Y-89708165D01*
X149548106Y-89674499D01*
X149486635Y-89526092D01*
X149486628Y-89526079D01*
X149377139Y-89362218D01*
X149377136Y-89362214D01*
X149237785Y-89222863D01*
X149237781Y-89222860D01*
X149073920Y-89113371D01*
X149073907Y-89113364D01*
X148891839Y-89037950D01*
X148891829Y-89037947D01*
X148698543Y-88999500D01*
X148698541Y-88999500D01*
X148501459Y-88999500D01*
X148501457Y-88999500D01*
X148308170Y-89037947D01*
X148308160Y-89037950D01*
X148126092Y-89113364D01*
X148126079Y-89113371D01*
X147962218Y-89222860D01*
X147962214Y-89222863D01*
X147822863Y-89362214D01*
X147822860Y-89362218D01*
X147713371Y-89526079D01*
X147713364Y-89526092D01*
X147637950Y-89708160D01*
X147637947Y-89708170D01*
X147599500Y-89901456D01*
X147599500Y-89901459D01*
X147599500Y-90098541D01*
X147599500Y-90098543D01*
X147599499Y-90098543D01*
X141391058Y-90098543D01*
X141379184Y-90090609D01*
X141379171Y-90090602D01*
X141233500Y-90030264D01*
X141233488Y-90030261D01*
X141166741Y-90016984D01*
X141166740Y-90016984D01*
X141078843Y-89999500D01*
X141078841Y-89999500D01*
X140921157Y-89999500D01*
X140921154Y-89999500D01*
X140766509Y-90030261D01*
X140766497Y-90030264D01*
X140620826Y-90090602D01*
X140620813Y-90090609D01*
X140489710Y-90178210D01*
X140489706Y-90178213D01*
X140378212Y-90289707D01*
X140378209Y-90289711D01*
X140290608Y-90420814D01*
X140290601Y-90420827D01*
X140230263Y-90566498D01*
X140230260Y-90566510D01*
X140199499Y-90721153D01*
X138655499Y-90721153D01*
X138655499Y-90444149D01*
X138664937Y-90396698D01*
X138666388Y-90393192D01*
X138666392Y-90393186D01*
X138700500Y-90265892D01*
X138700500Y-88964071D01*
X157949499Y-88964071D01*
X157974497Y-89089738D01*
X157974499Y-89089744D01*
X158023533Y-89208124D01*
X158023538Y-89208133D01*
X158094723Y-89314668D01*
X158094726Y-89314672D01*
X158185327Y-89405273D01*
X158185331Y-89405276D01*
X158291866Y-89476461D01*
X158291872Y-89476464D01*
X158291873Y-89476465D01*
X158410256Y-89525501D01*
X158410260Y-89525501D01*
X158410261Y-89525502D01*
X158535928Y-89550500D01*
X158535931Y-89550500D01*
X158664071Y-89550500D01*
X158748615Y-89533682D01*
X158789744Y-89525501D01*
X158908127Y-89476465D01*
X159014669Y-89405276D01*
X159105276Y-89314669D01*
X159176465Y-89208127D01*
X159225501Y-89089744D01*
X159240694Y-89013368D01*
X159250500Y-88964071D01*
X159250500Y-88835928D01*
X159225502Y-88710261D01*
X159225501Y-88710260D01*
X159225501Y-88710256D01*
X159182017Y-88605276D01*
X159176466Y-88591875D01*
X159176461Y-88591866D01*
X159105276Y-88485331D01*
X159105273Y-88485327D01*
X159014672Y-88394726D01*
X159014668Y-88394723D01*
X158908133Y-88323538D01*
X158908124Y-88323533D01*
X158789744Y-88274499D01*
X158789738Y-88274497D01*
X158664071Y-88249500D01*
X158664069Y-88249500D01*
X158535931Y-88249500D01*
X158535929Y-88249500D01*
X158410261Y-88274497D01*
X158410255Y-88274499D01*
X158291875Y-88323533D01*
X158291866Y-88323538D01*
X158185331Y-88394723D01*
X158185327Y-88394726D01*
X158094726Y-88485327D01*
X158094723Y-88485331D01*
X158023538Y-88591866D01*
X158023533Y-88591875D01*
X157974499Y-88710255D01*
X157974497Y-88710261D01*
X157949500Y-88835928D01*
X157949500Y-88835931D01*
X157949500Y-88964069D01*
X157949500Y-88964071D01*
X157949499Y-88964071D01*
X138700500Y-88964071D01*
X138700500Y-88164071D01*
X151249499Y-88164071D01*
X151274497Y-88289738D01*
X151274499Y-88289744D01*
X151323533Y-88408124D01*
X151323538Y-88408133D01*
X151394723Y-88514668D01*
X151394726Y-88514672D01*
X151485327Y-88605273D01*
X151485331Y-88605276D01*
X151591866Y-88676461D01*
X151591872Y-88676464D01*
X151591873Y-88676465D01*
X151710256Y-88725501D01*
X151710260Y-88725501D01*
X151710261Y-88725502D01*
X151835928Y-88750500D01*
X151835931Y-88750500D01*
X151964071Y-88750500D01*
X152048615Y-88733682D01*
X152089744Y-88725501D01*
X152208127Y-88676465D01*
X152314669Y-88605276D01*
X152405276Y-88514669D01*
X152476465Y-88408127D01*
X152525501Y-88289744D01*
X152550500Y-88164069D01*
X152550500Y-88035931D01*
X152550500Y-88035928D01*
X152525502Y-87910261D01*
X152525501Y-87910260D01*
X152525501Y-87910256D01*
X152476465Y-87791873D01*
X152476464Y-87791872D01*
X152476461Y-87791866D01*
X152405276Y-87685331D01*
X152405273Y-87685327D01*
X152314672Y-87594726D01*
X152314668Y-87594723D01*
X152208133Y-87523538D01*
X152208124Y-87523533D01*
X152089744Y-87474499D01*
X152089738Y-87474497D01*
X151964071Y-87449500D01*
X151964069Y-87449500D01*
X151835931Y-87449500D01*
X151835929Y-87449500D01*
X151710261Y-87474497D01*
X151710255Y-87474499D01*
X151591875Y-87523533D01*
X151591866Y-87523538D01*
X151485331Y-87594723D01*
X151485327Y-87594726D01*
X151394726Y-87685327D01*
X151394723Y-87685331D01*
X151323538Y-87791866D01*
X151323533Y-87791875D01*
X151274499Y-87910255D01*
X151274497Y-87910261D01*
X151249500Y-88035928D01*
X151249500Y-88035931D01*
X151249500Y-88164069D01*
X151249500Y-88164071D01*
X151249499Y-88164071D01*
X138700500Y-88164071D01*
X138700500Y-86814500D01*
X138720185Y-86747461D01*
X138772989Y-86701706D01*
X138824500Y-86690500D01*
X139413330Y-86690500D01*
X139413346Y-86690501D01*
X139420942Y-86690501D01*
X139579053Y-86690501D01*
X139579056Y-86690501D01*
X139731784Y-86649577D01*
X139798327Y-86611158D01*
X139868715Y-86570520D01*
X139935910Y-86503323D01*
X139942146Y-86498501D01*
X139951195Y-86494962D01*
X139970555Y-86482026D01*
X140008126Y-86466465D01*
X140114668Y-86395276D01*
X140147673Y-86362270D01*
X140208992Y-86328786D01*
X140278683Y-86333769D01*
X140323034Y-86362271D01*
X140331283Y-86370520D01*
X140331285Y-86370521D01*
X140331289Y-86370524D01*
X140467827Y-86449353D01*
X140468215Y-86449577D01*
X140620942Y-86490501D01*
X140620944Y-86490501D01*
X140675499Y-86490501D01*
X140742538Y-86510186D01*
X140788293Y-86562990D01*
X140799499Y-86614501D01*
X140799499Y-86768846D01*
X140830260Y-86923489D01*
X140830263Y-86923501D01*
X140890601Y-87069172D01*
X140890608Y-87069185D01*
X140978209Y-87200288D01*
X140978212Y-87200292D01*
X141089706Y-87311786D01*
X141089710Y-87311789D01*
X141220813Y-87399390D01*
X141220826Y-87399397D01*
X141366497Y-87459735D01*
X141366502Y-87459737D01*
X141521152Y-87490499D01*
X141521155Y-87490500D01*
X141521157Y-87490500D01*
X141678843Y-87490500D01*
X141678844Y-87490499D01*
X141833496Y-87459737D01*
X141979178Y-87399394D01*
X142110288Y-87311789D01*
X142221788Y-87200289D01*
X142309393Y-87069179D01*
X142369736Y-86923497D01*
X142400499Y-86768842D01*
X142400499Y-86611158D01*
X142400499Y-86611155D01*
X142379963Y-86507917D01*
X142380670Y-86500007D01*
X142377896Y-86492568D01*
X142383739Y-86465706D01*
X142386190Y-86438325D01*
X142391439Y-86430314D01*
X142392749Y-86424296D01*
X142413901Y-86396042D01*
X142414665Y-86395277D01*
X142414668Y-86395276D01*
X142437820Y-86372124D01*
X142499143Y-86338640D01*
X142568835Y-86343626D01*
X142624768Y-86385499D01*
X142648110Y-86448086D01*
X142648902Y-86448009D01*
X142649498Y-86454071D01*
X142674496Y-86579738D01*
X142674498Y-86579744D01*
X142723532Y-86698124D01*
X142723537Y-86698133D01*
X142794722Y-86804668D01*
X142794725Y-86804672D01*
X142885326Y-86895273D01*
X142885330Y-86895276D01*
X142991865Y-86966461D01*
X142991871Y-86966464D01*
X142991872Y-86966465D01*
X143110255Y-87015501D01*
X143110259Y-87015501D01*
X143110260Y-87015502D01*
X143235927Y-87040500D01*
X143235930Y-87040500D01*
X143364070Y-87040500D01*
X143448614Y-87023682D01*
X143489743Y-87015501D01*
X143608126Y-86966465D01*
X143714668Y-86895276D01*
X143805275Y-86804669D01*
X143876464Y-86698127D01*
X143925500Y-86579744D01*
X143934216Y-86535928D01*
X143950499Y-86454071D01*
X143950499Y-86325928D01*
X143925501Y-86200261D01*
X143925500Y-86200260D01*
X143925500Y-86200256D01*
X143876464Y-86081873D01*
X143876463Y-86081872D01*
X143876460Y-86081866D01*
X143805275Y-85975331D01*
X143805272Y-85975327D01*
X143714671Y-85884726D01*
X143714667Y-85884723D01*
X143608132Y-85813538D01*
X143608123Y-85813533D01*
X143489743Y-85764499D01*
X143489737Y-85764497D01*
X143471795Y-85760928D01*
X144099498Y-85760928D01*
X144124496Y-85886595D01*
X144124498Y-85886601D01*
X144173532Y-86004981D01*
X144173537Y-86004990D01*
X144244722Y-86111525D01*
X144244725Y-86111529D01*
X144335326Y-86202130D01*
X144335330Y-86202133D01*
X144441865Y-86273318D01*
X144441871Y-86273321D01*
X144441872Y-86273322D01*
X144560255Y-86322358D01*
X144560259Y-86322358D01*
X144560260Y-86322359D01*
X144685927Y-86347357D01*
X144685930Y-86347357D01*
X144814070Y-86347357D01*
X144907428Y-86328786D01*
X144939743Y-86322358D01*
X145058126Y-86273322D01*
X145164668Y-86202133D01*
X145250682Y-86116118D01*
X145312003Y-86082635D01*
X145381695Y-86087619D01*
X145437629Y-86129490D01*
X145441464Y-86134910D01*
X145478210Y-86189904D01*
X145478213Y-86189908D01*
X145589707Y-86301402D01*
X145589711Y-86301405D01*
X145720814Y-86389006D01*
X145720827Y-86389013D01*
X145863258Y-86448009D01*
X145866503Y-86449353D01*
X146021153Y-86480115D01*
X146021156Y-86480116D01*
X146021158Y-86480116D01*
X146178844Y-86480116D01*
X146301308Y-86455756D01*
X146370900Y-86461983D01*
X146426077Y-86504846D01*
X146449322Y-86570736D01*
X146449500Y-86577373D01*
X146449500Y-86664069D01*
X146449500Y-86664071D01*
X146449499Y-86664071D01*
X146474497Y-86789738D01*
X146474499Y-86789744D01*
X146523533Y-86908124D01*
X146523538Y-86908133D01*
X146594723Y-87014668D01*
X146594726Y-87014672D01*
X146685327Y-87105273D01*
X146685331Y-87105276D01*
X146791866Y-87176461D01*
X146791875Y-87176466D01*
X146818692Y-87187574D01*
X146910256Y-87225501D01*
X146910260Y-87225501D01*
X146910261Y-87225502D01*
X147035928Y-87250500D01*
X147035931Y-87250500D01*
X147164071Y-87250500D01*
X147248615Y-87233682D01*
X147289744Y-87225501D01*
X147408127Y-87176465D01*
X147514669Y-87105276D01*
X147605276Y-87014669D01*
X147676465Y-86908127D01*
X147725501Y-86789744D01*
X147733912Y-86747461D01*
X147750500Y-86664071D01*
X147750500Y-86535928D01*
X147725502Y-86410261D01*
X147725501Y-86410260D01*
X147725501Y-86410256D01*
X147676465Y-86291873D01*
X147676464Y-86291872D01*
X147676461Y-86291866D01*
X147605276Y-86185331D01*
X147605273Y-86185327D01*
X147514672Y-86094726D01*
X147514668Y-86094723D01*
X147408133Y-86023538D01*
X147408124Y-86023533D01*
X147289744Y-85974499D01*
X147289738Y-85974497D01*
X147164071Y-85949500D01*
X147164069Y-85949500D01*
X147035931Y-85949500D01*
X147035928Y-85949500D01*
X147029866Y-85950097D01*
X147029711Y-85948532D01*
X146967759Y-85942979D01*
X146912588Y-85900109D01*
X146889353Y-85834216D01*
X146891558Y-85803410D01*
X146900500Y-85758458D01*
X146900500Y-85600774D01*
X146900500Y-85600771D01*
X146900499Y-85600769D01*
X146892577Y-85560943D01*
X146873308Y-85464071D01*
X148849499Y-85464071D01*
X148874497Y-85589738D01*
X148874499Y-85589744D01*
X148923533Y-85708124D01*
X148923538Y-85708133D01*
X148994723Y-85814668D01*
X148994726Y-85814672D01*
X149085327Y-85905273D01*
X149085331Y-85905276D01*
X149196938Y-85979850D01*
X149195460Y-85982061D01*
X149237090Y-86022937D01*
X149252567Y-86091071D01*
X149228751Y-86156756D01*
X149197699Y-86186459D01*
X149185333Y-86194721D01*
X149185327Y-86194726D01*
X149094726Y-86285327D01*
X149094723Y-86285331D01*
X149023538Y-86391866D01*
X149023533Y-86391875D01*
X148974499Y-86510255D01*
X148974497Y-86510261D01*
X148949500Y-86635928D01*
X148949500Y-86635931D01*
X148949500Y-86764069D01*
X148949500Y-86764071D01*
X148949499Y-86764071D01*
X148974497Y-86889738D01*
X148974499Y-86889744D01*
X149023533Y-87008124D01*
X149023538Y-87008133D01*
X149094723Y-87114668D01*
X149094726Y-87114672D01*
X149185327Y-87205273D01*
X149185331Y-87205276D01*
X149291866Y-87276461D01*
X149291872Y-87276464D01*
X149291873Y-87276465D01*
X149410256Y-87325501D01*
X149410260Y-87325501D01*
X149410261Y-87325502D01*
X149535928Y-87350500D01*
X149535931Y-87350500D01*
X149664071Y-87350500D01*
X149748615Y-87333682D01*
X149789744Y-87325501D01*
X149822848Y-87311789D01*
X149827315Y-87309939D01*
X149835491Y-87308312D01*
X149839832Y-87305523D01*
X149874767Y-87300500D01*
X150015786Y-87300500D01*
X150015802Y-87300501D01*
X150023398Y-87300501D01*
X150181509Y-87300501D01*
X150181512Y-87300501D01*
X150334240Y-87259577D01*
X150393261Y-87225501D01*
X150471171Y-87180520D01*
X150582975Y-87068716D01*
X150582975Y-87068714D01*
X150593179Y-87058511D01*
X150593182Y-87058506D01*
X150887617Y-86764071D01*
X152649499Y-86764071D01*
X152674497Y-86889738D01*
X152674499Y-86889744D01*
X152723533Y-87008124D01*
X152723538Y-87008133D01*
X152794723Y-87114668D01*
X152794726Y-87114672D01*
X152885327Y-87205273D01*
X152885331Y-87205276D01*
X152991866Y-87276461D01*
X152991872Y-87276464D01*
X152991873Y-87276465D01*
X153110256Y-87325501D01*
X153110260Y-87325501D01*
X153110261Y-87325502D01*
X153235928Y-87350500D01*
X153235931Y-87350500D01*
X153364071Y-87350500D01*
X153448615Y-87333682D01*
X153489744Y-87325501D01*
X153608127Y-87276465D01*
X153714669Y-87205276D01*
X153805276Y-87114669D01*
X153876465Y-87008127D01*
X153925501Y-86889744D01*
X153933682Y-86848615D01*
X153950500Y-86764071D01*
X153950500Y-86635928D01*
X153925502Y-86510261D01*
X153925501Y-86510260D01*
X153925501Y-86510256D01*
X153876465Y-86391873D01*
X153876463Y-86391871D01*
X153876459Y-86391863D01*
X153864494Y-86373955D01*
X153822530Y-86311153D01*
X156399499Y-86311153D01*
X156399499Y-86468846D01*
X156430260Y-86623489D01*
X156430263Y-86623501D01*
X156490601Y-86769172D01*
X156490608Y-86769185D01*
X156578209Y-86900288D01*
X156578212Y-86900292D01*
X156689706Y-87011786D01*
X156689710Y-87011789D01*
X156820813Y-87099390D01*
X156820826Y-87099397D01*
X156966497Y-87159735D01*
X156966502Y-87159737D01*
X157121152Y-87190499D01*
X157121155Y-87190500D01*
X157121157Y-87190500D01*
X157278843Y-87190500D01*
X157278844Y-87190499D01*
X157433496Y-87159737D01*
X157546165Y-87113067D01*
X157579171Y-87099397D01*
X157579171Y-87099396D01*
X157579178Y-87099394D01*
X157710288Y-87011789D01*
X157821788Y-86900289D01*
X157909393Y-86769179D01*
X157952930Y-86664071D01*
X159649499Y-86664071D01*
X159674497Y-86789738D01*
X159674499Y-86789744D01*
X159723533Y-86908124D01*
X159723538Y-86908133D01*
X159794723Y-87014668D01*
X159794726Y-87014672D01*
X159885327Y-87105273D01*
X159885331Y-87105276D01*
X159991866Y-87176461D01*
X159991875Y-87176466D01*
X160018692Y-87187574D01*
X160110256Y-87225501D01*
X160110260Y-87225501D01*
X160110261Y-87225502D01*
X160235928Y-87250500D01*
X160235931Y-87250500D01*
X160364071Y-87250500D01*
X160448615Y-87233682D01*
X160489744Y-87225501D01*
X160502547Y-87220197D01*
X160572013Y-87212728D01*
X160597447Y-87220195D01*
X160610256Y-87225501D01*
X160610260Y-87225501D01*
X160610261Y-87225502D01*
X160735928Y-87250500D01*
X160735931Y-87250500D01*
X160864071Y-87250500D01*
X160948615Y-87233682D01*
X160989744Y-87225501D01*
X161108127Y-87176465D01*
X161214669Y-87105276D01*
X161305276Y-87014669D01*
X161376465Y-86908127D01*
X161425501Y-86789744D01*
X161433912Y-86747461D01*
X161450500Y-86664071D01*
X161450500Y-86535928D01*
X161425502Y-86410261D01*
X161425501Y-86410260D01*
X161425501Y-86410256D01*
X161376465Y-86291873D01*
X161376464Y-86291872D01*
X161376461Y-86291866D01*
X161305276Y-86185331D01*
X161305273Y-86185327D01*
X161214672Y-86094726D01*
X161214668Y-86094723D01*
X161108133Y-86023538D01*
X161108124Y-86023533D01*
X160989744Y-85974499D01*
X160989738Y-85974497D01*
X160864071Y-85949500D01*
X160864069Y-85949500D01*
X160735931Y-85949500D01*
X160735929Y-85949500D01*
X160610257Y-85974498D01*
X160610255Y-85974498D01*
X160597449Y-85979803D01*
X160527979Y-85987269D01*
X160502551Y-85979803D01*
X160489743Y-85974498D01*
X160364071Y-85949500D01*
X160364069Y-85949500D01*
X160235931Y-85949500D01*
X160235929Y-85949500D01*
X160110261Y-85974497D01*
X160110255Y-85974499D01*
X159991875Y-86023533D01*
X159991866Y-86023538D01*
X159885331Y-86094723D01*
X159885327Y-86094726D01*
X159794726Y-86185327D01*
X159794723Y-86185331D01*
X159723538Y-86291866D01*
X159723533Y-86291875D01*
X159674499Y-86410255D01*
X159674497Y-86410261D01*
X159649500Y-86535928D01*
X159649500Y-86535931D01*
X159649500Y-86664069D01*
X159649500Y-86664071D01*
X159649499Y-86664071D01*
X157952930Y-86664071D01*
X157969736Y-86623497D01*
X157992261Y-86510256D01*
X157993178Y-86505648D01*
X157993178Y-86505646D01*
X158000499Y-86468843D01*
X158000499Y-86311155D01*
X158000498Y-86311153D01*
X157992035Y-86268607D01*
X157969736Y-86156503D01*
X157956080Y-86123535D01*
X157909396Y-86010827D01*
X157909389Y-86010814D01*
X157821788Y-85879711D01*
X157821785Y-85879707D01*
X157710291Y-85768213D01*
X157710287Y-85768210D01*
X157579184Y-85680609D01*
X157579171Y-85680602D01*
X157433500Y-85620264D01*
X157433488Y-85620261D01*
X157278844Y-85589500D01*
X157278841Y-85589500D01*
X157121157Y-85589500D01*
X157121154Y-85589500D01*
X156966509Y-85620261D01*
X156966497Y-85620264D01*
X156820826Y-85680602D01*
X156820813Y-85680609D01*
X156689710Y-85768210D01*
X156689706Y-85768213D01*
X156578212Y-85879707D01*
X156578209Y-85879711D01*
X156490608Y-86010814D01*
X156490601Y-86010827D01*
X156430263Y-86156498D01*
X156430260Y-86156510D01*
X156399499Y-86311153D01*
X153822530Y-86311153D01*
X153805276Y-86285331D01*
X153805273Y-86285327D01*
X153714672Y-86194726D01*
X153714668Y-86194723D01*
X153608133Y-86123538D01*
X153608124Y-86123533D01*
X153489744Y-86074499D01*
X153489738Y-86074497D01*
X153364071Y-86049500D01*
X153364069Y-86049500D01*
X153235931Y-86049500D01*
X153235929Y-86049500D01*
X153110261Y-86074497D01*
X153110255Y-86074499D01*
X152991875Y-86123533D01*
X152991866Y-86123538D01*
X152885331Y-86194723D01*
X152885327Y-86194726D01*
X152794726Y-86285327D01*
X152794723Y-86285331D01*
X152723538Y-86391866D01*
X152723533Y-86391875D01*
X152674499Y-86510255D01*
X152674497Y-86510261D01*
X152649500Y-86635928D01*
X152649500Y-86635931D01*
X152649500Y-86764069D01*
X152649500Y-86764071D01*
X152649499Y-86764071D01*
X150887617Y-86764071D01*
X152734520Y-84917169D01*
X152774745Y-84890291D01*
X152808127Y-84876465D01*
X152914669Y-84805276D01*
X153005276Y-84714669D01*
X153076465Y-84608127D01*
X153125501Y-84489744D01*
X153150500Y-84364069D01*
X153150500Y-84235931D01*
X153150500Y-84235928D01*
X153125502Y-84110261D01*
X153125501Y-84110260D01*
X153125501Y-84110256D01*
X153078775Y-83997451D01*
X153071307Y-83927984D01*
X153078776Y-83902547D01*
X153083408Y-83891364D01*
X153125501Y-83789744D01*
X153144503Y-83694218D01*
X153150500Y-83664071D01*
X153150500Y-83535928D01*
X153125502Y-83410261D01*
X153125501Y-83410260D01*
X153125501Y-83410256D01*
X153087574Y-83318692D01*
X153076466Y-83291875D01*
X153076462Y-83291868D01*
X153063664Y-83272714D01*
X153063663Y-83272713D01*
X153021700Y-83209911D01*
X154260677Y-83209911D01*
X154260677Y-83367604D01*
X154291438Y-83522247D01*
X154291441Y-83522259D01*
X154351779Y-83667930D01*
X154351786Y-83667943D01*
X154439387Y-83799046D01*
X154439390Y-83799050D01*
X154550884Y-83910544D01*
X154550888Y-83910547D01*
X154681991Y-83998148D01*
X154682004Y-83998155D01*
X154827675Y-84058493D01*
X154827680Y-84058495D01*
X154938819Y-84080602D01*
X154982330Y-84089257D01*
X154982333Y-84089258D01*
X154982335Y-84089258D01*
X155140021Y-84089258D01*
X155140022Y-84089257D01*
X155294674Y-84058495D01*
X155440356Y-83998152D01*
X155571466Y-83910547D01*
X155682966Y-83799047D01*
X155770571Y-83667937D01*
X155794090Y-83611158D01*
X155794092Y-83611153D01*
X160799499Y-83611153D01*
X160799499Y-83768846D01*
X160830260Y-83923489D01*
X160830263Y-83923501D01*
X160890601Y-84069172D01*
X160890608Y-84069185D01*
X160978209Y-84200288D01*
X160978212Y-84200292D01*
X161089706Y-84311786D01*
X161089710Y-84311789D01*
X161220813Y-84399390D01*
X161220826Y-84399397D01*
X161366497Y-84459735D01*
X161366502Y-84459737D01*
X161517326Y-84489738D01*
X161521152Y-84490499D01*
X161521155Y-84490500D01*
X161521157Y-84490500D01*
X161678843Y-84490500D01*
X161678844Y-84490499D01*
X161833496Y-84459737D01*
X161951591Y-84410821D01*
X161979171Y-84399397D01*
X161979171Y-84399396D01*
X161979178Y-84399394D01*
X162110288Y-84311789D01*
X162221788Y-84200289D01*
X162309393Y-84069179D01*
X162369736Y-83923497D01*
X162400499Y-83768842D01*
X162400499Y-83611158D01*
X162400499Y-83611155D01*
X162400498Y-83611153D01*
X162393473Y-83575835D01*
X162369736Y-83456503D01*
X162369734Y-83456498D01*
X162309396Y-83310827D01*
X162309389Y-83310814D01*
X162221788Y-83179711D01*
X162221785Y-83179707D01*
X162110291Y-83068213D01*
X162110287Y-83068210D01*
X161979184Y-82980609D01*
X161979171Y-82980602D01*
X161833500Y-82920264D01*
X161833488Y-82920261D01*
X161678844Y-82889500D01*
X161678841Y-82889500D01*
X161521157Y-82889500D01*
X161521154Y-82889500D01*
X161366509Y-82920261D01*
X161366497Y-82920264D01*
X161220826Y-82980602D01*
X161220813Y-82980609D01*
X161089710Y-83068210D01*
X161089706Y-83068213D01*
X160978212Y-83179707D01*
X160978209Y-83179711D01*
X160890608Y-83310814D01*
X160890601Y-83310827D01*
X160830263Y-83456498D01*
X160830260Y-83456510D01*
X160799499Y-83611153D01*
X155794092Y-83611153D01*
X155816268Y-83557614D01*
X155816268Y-83557613D01*
X155825249Y-83535931D01*
X155830914Y-83522255D01*
X155861677Y-83367600D01*
X155861677Y-83209916D01*
X155861677Y-83209913D01*
X155861676Y-83209911D01*
X155858978Y-83196346D01*
X155830914Y-83055261D01*
X155817772Y-83023533D01*
X155770574Y-82909585D01*
X155770567Y-82909572D01*
X155682966Y-82778469D01*
X155682963Y-82778465D01*
X155571469Y-82666971D01*
X155571465Y-82666968D01*
X155440362Y-82579367D01*
X155440349Y-82579360D01*
X155294678Y-82519022D01*
X155294666Y-82519019D01*
X155140022Y-82488258D01*
X155140019Y-82488258D01*
X154982335Y-82488258D01*
X154982332Y-82488258D01*
X154827687Y-82519019D01*
X154827675Y-82519022D01*
X154682004Y-82579360D01*
X154681991Y-82579367D01*
X154550888Y-82666968D01*
X154550884Y-82666971D01*
X154439390Y-82778465D01*
X154439387Y-82778469D01*
X154351786Y-82909572D01*
X154351779Y-82909585D01*
X154291441Y-83055256D01*
X154291438Y-83055268D01*
X154260677Y-83209911D01*
X153021700Y-83209911D01*
X153005276Y-83185331D01*
X153005273Y-83185327D01*
X152914672Y-83094726D01*
X152914668Y-83094723D01*
X152808133Y-83023538D01*
X152808124Y-83023533D01*
X152689744Y-82974499D01*
X152689738Y-82974497D01*
X152564071Y-82949500D01*
X152564069Y-82949500D01*
X152435931Y-82949500D01*
X152435929Y-82949500D01*
X152310261Y-82974497D01*
X152310255Y-82974499D01*
X152191875Y-83023533D01*
X152191866Y-83023538D01*
X152085331Y-83094723D01*
X152085327Y-83094726D01*
X151994725Y-83185328D01*
X151923535Y-83291873D01*
X151907971Y-83329446D01*
X151881092Y-83369671D01*
X150487584Y-84763181D01*
X150426261Y-84796666D01*
X150399903Y-84799500D01*
X149774767Y-84799500D01*
X149727315Y-84790061D01*
X149689748Y-84774500D01*
X149689738Y-84774497D01*
X149564071Y-84749500D01*
X149564069Y-84749500D01*
X149435931Y-84749500D01*
X149435929Y-84749500D01*
X149310261Y-84774497D01*
X149310255Y-84774499D01*
X149191875Y-84823533D01*
X149191866Y-84823538D01*
X149085331Y-84894723D01*
X149085327Y-84894726D01*
X148994726Y-84985327D01*
X148994723Y-84985331D01*
X148923541Y-85091863D01*
X148923533Y-85091875D01*
X148874499Y-85210255D01*
X148874497Y-85210261D01*
X148849500Y-85335928D01*
X148849500Y-85335931D01*
X148849500Y-85464069D01*
X148849500Y-85464071D01*
X148849499Y-85464071D01*
X146873308Y-85464071D01*
X146869737Y-85446119D01*
X146845963Y-85388723D01*
X146841228Y-85377291D01*
X146809397Y-85300443D01*
X146809390Y-85300430D01*
X146721789Y-85169327D01*
X146721786Y-85169323D01*
X146610292Y-85057829D01*
X146610288Y-85057826D01*
X146479185Y-84970225D01*
X146479172Y-84970218D01*
X146333501Y-84909880D01*
X146333489Y-84909877D01*
X146178845Y-84879116D01*
X146178842Y-84879116D01*
X146021158Y-84879116D01*
X146021155Y-84879116D01*
X145866510Y-84909877D01*
X145866498Y-84909880D01*
X145720827Y-84970218D01*
X145720814Y-84970225D01*
X145589711Y-85057826D01*
X145589707Y-85057829D01*
X145478213Y-85169323D01*
X145478208Y-85169329D01*
X145427651Y-85244992D01*
X145374038Y-85289797D01*
X145304713Y-85298503D01*
X145241686Y-85268347D01*
X145236869Y-85263781D01*
X145164671Y-85191583D01*
X145164667Y-85191580D01*
X145058132Y-85120395D01*
X145058123Y-85120390D01*
X144939743Y-85071356D01*
X144939737Y-85071354D01*
X144814070Y-85046357D01*
X144814068Y-85046357D01*
X144685930Y-85046357D01*
X144685928Y-85046357D01*
X144560260Y-85071354D01*
X144560254Y-85071356D01*
X144441874Y-85120390D01*
X144441865Y-85120395D01*
X144335330Y-85191580D01*
X144335326Y-85191583D01*
X144244725Y-85282184D01*
X144244722Y-85282188D01*
X144173537Y-85388723D01*
X144173532Y-85388732D01*
X144124498Y-85507112D01*
X144124496Y-85507118D01*
X144099499Y-85632785D01*
X144099499Y-85632788D01*
X144099499Y-85760926D01*
X144099499Y-85760928D01*
X144099498Y-85760928D01*
X143471795Y-85760928D01*
X143408375Y-85748313D01*
X143364070Y-85739500D01*
X143364068Y-85739500D01*
X143235930Y-85739500D01*
X143235928Y-85739500D01*
X143110260Y-85764497D01*
X143110254Y-85764499D01*
X142991874Y-85813533D01*
X142991865Y-85813538D01*
X142885330Y-85884723D01*
X142885326Y-85884726D01*
X142862180Y-85907873D01*
X142800857Y-85941358D01*
X142731165Y-85936374D01*
X142675232Y-85894502D01*
X142651887Y-85831913D01*
X142651096Y-85831991D01*
X142650499Y-85825928D01*
X142625501Y-85700261D01*
X142625500Y-85700260D01*
X142625500Y-85700256D01*
X142576464Y-85581873D01*
X142576463Y-85581872D01*
X142576460Y-85581866D01*
X142505275Y-85475331D01*
X142505272Y-85475327D01*
X142414671Y-85384726D01*
X142414667Y-85384723D01*
X142308132Y-85313538D01*
X142308123Y-85313533D01*
X142189743Y-85264499D01*
X142189737Y-85264497D01*
X142064070Y-85239500D01*
X142064068Y-85239500D01*
X141935930Y-85239500D01*
X141935928Y-85239500D01*
X141810260Y-85264497D01*
X141810250Y-85264500D01*
X141772684Y-85280061D01*
X141764507Y-85281687D01*
X141760167Y-85284477D01*
X141725232Y-85289500D01*
X141645133Y-85289500D01*
X141578094Y-85269815D01*
X141532339Y-85217011D01*
X141522395Y-85147853D01*
X141530572Y-85118047D01*
X141541413Y-85091875D01*
X141569736Y-85023497D01*
X141600499Y-84868842D01*
X141600499Y-84711158D01*
X141600499Y-84711155D01*
X141600498Y-84711153D01*
X141580006Y-84608133D01*
X141569736Y-84556503D01*
X141542397Y-84490500D01*
X141509396Y-84410827D01*
X141509389Y-84410814D01*
X141421788Y-84279711D01*
X141421785Y-84279707D01*
X141310291Y-84168213D01*
X141310287Y-84168210D01*
X141179184Y-84080609D01*
X141179171Y-84080602D01*
X141033500Y-84020264D01*
X141033488Y-84020261D01*
X140878844Y-83989500D01*
X140878841Y-83989500D01*
X140721157Y-83989500D01*
X140721154Y-83989500D01*
X140566509Y-84020261D01*
X140566497Y-84020264D01*
X140420826Y-84080602D01*
X140420813Y-84080609D01*
X140289710Y-84168210D01*
X140289706Y-84168213D01*
X140178212Y-84279707D01*
X140178209Y-84279711D01*
X140090608Y-84410814D01*
X140090601Y-84410827D01*
X140030263Y-84556498D01*
X140030260Y-84556508D01*
X140003768Y-84689692D01*
X139971383Y-84751603D01*
X139910667Y-84786177D01*
X139882151Y-84789500D01*
X139378088Y-84789500D01*
X139358132Y-84783640D01*
X139337359Y-84782620D01*
X139325284Y-84773995D01*
X139311049Y-84769815D01*
X139297430Y-84754097D01*
X139280505Y-84742008D01*
X139270811Y-84723378D01*
X139265294Y-84717011D01*
X139262903Y-84711417D01*
X139259645Y-84703245D01*
X139259051Y-84700256D01*
X139243176Y-84661931D01*
X139242865Y-84661150D01*
X139242579Y-84658112D01*
X139234050Y-84615233D01*
X139234050Y-84056546D01*
X139253735Y-83989507D01*
X139270369Y-83968865D01*
X139575165Y-83664069D01*
X139930329Y-83308904D01*
X139970553Y-83282027D01*
X140008126Y-83266465D01*
X140114668Y-83195276D01*
X140205275Y-83104669D01*
X140276464Y-82998127D01*
X140325500Y-82879744D01*
X140325501Y-82879738D01*
X140325879Y-82878495D01*
X140326254Y-82877922D01*
X140327831Y-82874116D01*
X140328553Y-82874415D01*
X140364182Y-82820059D01*
X140427996Y-82791608D01*
X140444537Y-82790500D01*
X141199902Y-82790500D01*
X141229342Y-82799144D01*
X141259329Y-82805668D01*
X141264344Y-82809422D01*
X141266941Y-82810185D01*
X141287583Y-82826819D01*
X141381091Y-82920327D01*
X141407971Y-82960555D01*
X141423532Y-82998124D01*
X141423537Y-82998133D01*
X141494722Y-83104668D01*
X141494725Y-83104672D01*
X141585326Y-83195273D01*
X141585330Y-83195276D01*
X141691865Y-83266461D01*
X141691871Y-83266464D01*
X141691872Y-83266465D01*
X141810255Y-83315501D01*
X141810259Y-83315501D01*
X141810260Y-83315502D01*
X141935927Y-83340500D01*
X141935930Y-83340500D01*
X142064070Y-83340500D01*
X142148614Y-83323682D01*
X142189743Y-83315501D01*
X142308126Y-83266465D01*
X142414668Y-83195276D01*
X142505275Y-83104669D01*
X142576464Y-82998127D01*
X142625500Y-82879744D01*
X142643252Y-82790500D01*
X142650499Y-82754071D01*
X142650499Y-82625928D01*
X142625501Y-82500261D01*
X142625500Y-82500260D01*
X142625500Y-82500256D01*
X142576464Y-82381873D01*
X142576463Y-82381872D01*
X142576460Y-82381866D01*
X142505275Y-82275331D01*
X142505272Y-82275327D01*
X142484045Y-82254100D01*
X142450560Y-82192777D01*
X142455544Y-82123085D01*
X142497416Y-82067152D01*
X142502791Y-82063347D01*
X142546542Y-82034114D01*
X142644114Y-81936542D01*
X142720775Y-81821811D01*
X142773580Y-81694328D01*
X142782389Y-81650041D01*
X142800500Y-81558995D01*
X142800500Y-81421004D01*
X142773581Y-81285677D01*
X142773580Y-81285676D01*
X142773580Y-81285672D01*
X142768385Y-81273130D01*
X142720778Y-81158195D01*
X142720771Y-81158182D01*
X142644114Y-81043458D01*
X142644111Y-81043454D01*
X142546545Y-80945888D01*
X142546541Y-80945885D01*
X142431817Y-80869228D01*
X142431804Y-80869221D01*
X142304332Y-80816421D01*
X142304322Y-80816418D01*
X142168995Y-80789500D01*
X142168993Y-80789500D01*
X142031007Y-80789500D01*
X142031005Y-80789500D01*
X141895677Y-80816418D01*
X141895667Y-80816421D01*
X141768195Y-80869221D01*
X141768182Y-80869228D01*
X141653458Y-80945885D01*
X141653454Y-80945888D01*
X141555888Y-81043454D01*
X141555885Y-81043458D01*
X141479228Y-81158182D01*
X141479221Y-81158195D01*
X141426421Y-81285667D01*
X141426418Y-81285677D01*
X141399500Y-81421004D01*
X141399500Y-81465500D01*
X141379815Y-81532539D01*
X141327011Y-81578294D01*
X141275500Y-81589500D01*
X140649096Y-81589500D01*
X140582057Y-81569815D01*
X140536302Y-81517011D01*
X140526358Y-81447853D01*
X140555383Y-81384297D01*
X140561415Y-81377819D01*
X141386415Y-80552819D01*
X141447738Y-80519334D01*
X141474096Y-80516500D01*
X144357648Y-80516500D01*
X144424687Y-80536185D01*
X144470442Y-80588989D01*
X144480386Y-80658147D01*
X144451361Y-80721703D01*
X144426539Y-80743602D01*
X144389710Y-80768210D01*
X144389706Y-80768213D01*
X144278212Y-80879707D01*
X144278209Y-80879711D01*
X144190608Y-81010814D01*
X144190601Y-81010827D01*
X144130263Y-81156498D01*
X144130260Y-81156510D01*
X144099499Y-81311153D01*
X144099499Y-81468846D01*
X144130260Y-81623489D01*
X144130263Y-81623501D01*
X144190601Y-81769172D01*
X144190608Y-81769185D01*
X144278209Y-81900288D01*
X144278212Y-81900292D01*
X144344727Y-81966807D01*
X144378212Y-82028130D01*
X144373228Y-82097822D01*
X144331356Y-82153755D01*
X144325938Y-82157589D01*
X144285332Y-82184721D01*
X144285326Y-82184726D01*
X144194725Y-82275327D01*
X144194722Y-82275331D01*
X144123537Y-82381866D01*
X144123532Y-82381875D01*
X144074498Y-82500255D01*
X144074496Y-82500261D01*
X144049499Y-82625928D01*
X144049499Y-82625931D01*
X144049499Y-82754069D01*
X144049499Y-82754071D01*
X144049498Y-82754071D01*
X144074496Y-82879738D01*
X144074498Y-82879744D01*
X144118458Y-82985873D01*
X144125927Y-83055343D01*
X144118458Y-83080779D01*
X144070588Y-83196346D01*
X144070586Y-83196352D01*
X144045589Y-83322019D01*
X144045589Y-83322022D01*
X144045589Y-83450160D01*
X144045589Y-83450162D01*
X144045588Y-83450162D01*
X144070586Y-83575829D01*
X144070588Y-83575835D01*
X144119622Y-83694215D01*
X144119627Y-83694224D01*
X144190812Y-83800759D01*
X144190815Y-83800763D01*
X144281416Y-83891364D01*
X144281420Y-83891367D01*
X144387955Y-83962552D01*
X144387961Y-83962555D01*
X144387962Y-83962556D01*
X144506345Y-84011592D01*
X144506349Y-84011592D01*
X144506350Y-84011593D01*
X144632017Y-84036591D01*
X144632020Y-84036591D01*
X144760160Y-84036591D01*
X144844704Y-84019773D01*
X144885833Y-84011592D01*
X145004216Y-83962556D01*
X145110758Y-83891367D01*
X145201365Y-83800760D01*
X145272554Y-83694218D01*
X145321590Y-83575835D01*
X145345326Y-83456510D01*
X145346589Y-83450162D01*
X145346589Y-83322019D01*
X145321591Y-83196352D01*
X145321590Y-83196351D01*
X145321590Y-83196347D01*
X145277630Y-83090218D01*
X145270161Y-83020748D01*
X145277630Y-82995312D01*
X145286252Y-82974497D01*
X145325500Y-82879744D01*
X145343252Y-82790500D01*
X145350499Y-82754071D01*
X145350499Y-82625928D01*
X145325501Y-82500261D01*
X145325500Y-82500260D01*
X145325500Y-82500256D01*
X145276464Y-82381873D01*
X145276463Y-82381872D01*
X145276460Y-82381866D01*
X145213165Y-82287138D01*
X145192287Y-82220460D01*
X145210772Y-82153080D01*
X145262751Y-82106390D01*
X145268790Y-82103696D01*
X145279178Y-82099394D01*
X145410288Y-82011789D01*
X145510924Y-81911153D01*
X146099499Y-81911153D01*
X146099499Y-82068846D01*
X146130260Y-82223489D01*
X146130263Y-82223501D01*
X146190601Y-82369172D01*
X146190608Y-82369185D01*
X146278209Y-82500288D01*
X146278212Y-82500292D01*
X146389706Y-82611786D01*
X146389710Y-82611789D01*
X146520813Y-82699390D01*
X146520826Y-82699397D01*
X146652818Y-82754069D01*
X146666502Y-82759737D01*
X146821152Y-82790499D01*
X146821155Y-82790500D01*
X146821157Y-82790500D01*
X146978843Y-82790500D01*
X146978844Y-82790499D01*
X147133496Y-82759737D01*
X147279178Y-82699394D01*
X147410288Y-82611789D01*
X147521788Y-82500289D01*
X147609393Y-82369179D01*
X147669736Y-82223497D01*
X147693893Y-82102053D01*
X148622497Y-82102053D01*
X148663422Y-82254785D01*
X148663423Y-82254786D01*
X148683603Y-82289738D01*
X148688446Y-82298127D01*
X148729471Y-82369185D01*
X148742480Y-82391716D01*
X148861348Y-82510584D01*
X148861354Y-82510589D01*
X149281091Y-82930326D01*
X149307971Y-82970553D01*
X149319395Y-82998133D01*
X149323535Y-83008126D01*
X149323538Y-83008133D01*
X149394723Y-83114668D01*
X149394726Y-83114672D01*
X149485327Y-83205273D01*
X149485331Y-83205276D01*
X149591866Y-83276461D01*
X149591872Y-83276464D01*
X149591873Y-83276465D01*
X149710256Y-83325501D01*
X149710260Y-83325501D01*
X149710261Y-83325502D01*
X149835928Y-83350500D01*
X149835931Y-83350500D01*
X149964071Y-83350500D01*
X150048615Y-83333682D01*
X150089744Y-83325501D01*
X150208127Y-83276465D01*
X150314669Y-83205276D01*
X150405276Y-83114669D01*
X150476465Y-83008127D01*
X150525501Y-82889744D01*
X150541327Y-82810185D01*
X150550500Y-82764071D01*
X150550500Y-82635928D01*
X150531558Y-82540706D01*
X150537785Y-82471115D01*
X150550068Y-82447631D01*
X150576465Y-82408127D01*
X150625501Y-82289744D01*
X150639283Y-82220460D01*
X150650500Y-82164071D01*
X150650500Y-82035928D01*
X150625502Y-81910261D01*
X150625501Y-81910260D01*
X150625501Y-81910256D01*
X150576465Y-81791873D01*
X150576464Y-81791872D01*
X150576461Y-81791866D01*
X150505276Y-81685331D01*
X150505273Y-81685327D01*
X150440128Y-81620182D01*
X150406643Y-81558859D01*
X150411627Y-81489167D01*
X150427756Y-81464071D01*
X152949499Y-81464071D01*
X152974497Y-81589738D01*
X152974499Y-81589744D01*
X153023533Y-81708124D01*
X153023538Y-81708133D01*
X153094723Y-81814668D01*
X153094726Y-81814672D01*
X153185327Y-81905273D01*
X153185331Y-81905276D01*
X153291866Y-81976461D01*
X153291872Y-81976464D01*
X153291873Y-81976465D01*
X153410256Y-82025501D01*
X153410260Y-82025501D01*
X153410261Y-82025502D01*
X153535928Y-82050500D01*
X153535931Y-82050500D01*
X153664071Y-82050500D01*
X153749526Y-82033501D01*
X153789744Y-82025501D01*
X153908127Y-81976465D01*
X154014669Y-81905276D01*
X154105276Y-81814669D01*
X154176465Y-81708127D01*
X154225501Y-81589744D01*
X154233682Y-81548615D01*
X154250500Y-81464071D01*
X154250500Y-81409071D01*
X154639498Y-81409071D01*
X154664496Y-81534738D01*
X154664498Y-81534744D01*
X154713532Y-81653124D01*
X154713537Y-81653133D01*
X154784722Y-81759668D01*
X154784725Y-81759672D01*
X154875326Y-81850273D01*
X154875330Y-81850276D01*
X154981865Y-81921461D01*
X154981871Y-81921464D01*
X154981872Y-81921465D01*
X155100255Y-81970501D01*
X155100259Y-81970501D01*
X155100260Y-81970502D01*
X155225927Y-81995500D01*
X155225930Y-81995500D01*
X155354070Y-81995500D01*
X155438614Y-81978682D01*
X155479743Y-81970501D01*
X155598126Y-81921465D01*
X155704668Y-81850276D01*
X155795275Y-81759669D01*
X155821011Y-81721153D01*
X156499500Y-81721153D01*
X156499500Y-81878846D01*
X156530261Y-82033489D01*
X156530264Y-82033501D01*
X156590602Y-82179172D01*
X156590609Y-82179185D01*
X156678210Y-82310288D01*
X156678213Y-82310292D01*
X156789707Y-82421786D01*
X156789711Y-82421789D01*
X156920814Y-82509390D01*
X156920827Y-82509397D01*
X156996415Y-82540706D01*
X157066503Y-82569737D01*
X157221153Y-82600499D01*
X157221156Y-82600500D01*
X157221158Y-82600500D01*
X157378844Y-82600500D01*
X157378845Y-82600499D01*
X157533497Y-82569737D01*
X157679179Y-82509394D01*
X157810289Y-82421789D01*
X157921789Y-82310289D01*
X158009394Y-82179179D01*
X158069737Y-82033497D01*
X158100500Y-81878842D01*
X158100500Y-81721158D01*
X158100500Y-81721155D01*
X158100499Y-81721153D01*
X158095162Y-81694322D01*
X158069737Y-81566503D01*
X158037704Y-81489167D01*
X158009397Y-81420827D01*
X158009390Y-81420814D01*
X157921789Y-81289711D01*
X157921786Y-81289707D01*
X157810292Y-81178213D01*
X157810288Y-81178210D01*
X157679185Y-81090609D01*
X157679172Y-81090602D01*
X157533501Y-81030264D01*
X157533489Y-81030261D01*
X157378845Y-80999500D01*
X157378842Y-80999500D01*
X157221158Y-80999500D01*
X157221155Y-80999500D01*
X157066510Y-81030261D01*
X157066498Y-81030264D01*
X156920827Y-81090602D01*
X156920814Y-81090609D01*
X156789711Y-81178210D01*
X156789707Y-81178213D01*
X156678213Y-81289707D01*
X156678210Y-81289711D01*
X156590609Y-81420814D01*
X156590602Y-81420827D01*
X156530264Y-81566498D01*
X156530261Y-81566510D01*
X156499500Y-81721153D01*
X155821011Y-81721153D01*
X155866464Y-81653127D01*
X155915500Y-81534744D01*
X155932784Y-81447853D01*
X155940499Y-81409071D01*
X155940499Y-81280928D01*
X155915501Y-81155261D01*
X155915500Y-81155260D01*
X155915500Y-81155256D01*
X155866464Y-81036873D01*
X155866463Y-81036872D01*
X155866460Y-81036866D01*
X155795275Y-80930331D01*
X155795272Y-80930327D01*
X155704671Y-80839726D01*
X155704667Y-80839723D01*
X155598132Y-80768538D01*
X155598123Y-80768533D01*
X155479743Y-80719499D01*
X155479737Y-80719497D01*
X155354070Y-80694500D01*
X155354068Y-80694500D01*
X155225930Y-80694500D01*
X155225928Y-80694500D01*
X155100260Y-80719497D01*
X155100254Y-80719499D01*
X154981874Y-80768533D01*
X154981865Y-80768538D01*
X154875330Y-80839723D01*
X154875326Y-80839726D01*
X154784725Y-80930327D01*
X154784722Y-80930331D01*
X154713537Y-81036866D01*
X154713532Y-81036875D01*
X154664498Y-81155255D01*
X154664496Y-81155261D01*
X154639499Y-81280928D01*
X154639499Y-81280931D01*
X154639499Y-81409069D01*
X154639499Y-81409071D01*
X154639498Y-81409071D01*
X154250500Y-81409071D01*
X154250500Y-81335929D01*
X154243160Y-81299032D01*
X154243160Y-81299031D01*
X154225502Y-81210261D01*
X154225501Y-81210260D01*
X154225501Y-81210256D01*
X154176465Y-81091873D01*
X154176464Y-81091872D01*
X154176461Y-81091866D01*
X154105276Y-80985331D01*
X154105273Y-80985327D01*
X154014672Y-80894726D01*
X154014668Y-80894723D01*
X153908133Y-80823538D01*
X153908124Y-80823533D01*
X153789744Y-80774499D01*
X153789738Y-80774497D01*
X153664071Y-80749500D01*
X153664069Y-80749500D01*
X153535931Y-80749500D01*
X153535929Y-80749500D01*
X153410261Y-80774497D01*
X153410255Y-80774499D01*
X153291875Y-80823533D01*
X153291866Y-80823538D01*
X153185331Y-80894723D01*
X153185327Y-80894726D01*
X153094726Y-80985327D01*
X153094723Y-80985331D01*
X153023538Y-81091866D01*
X153023533Y-81091875D01*
X152974499Y-81210255D01*
X152974497Y-81210261D01*
X152949500Y-81335928D01*
X152949500Y-81335929D01*
X152949500Y-81335931D01*
X152949500Y-81464069D01*
X152949500Y-81464071D01*
X152949499Y-81464071D01*
X150427756Y-81464071D01*
X150440128Y-81444820D01*
X150505272Y-81379675D01*
X150505275Y-81379672D01*
X150565388Y-81289707D01*
X150576463Y-81273132D01*
X150576463Y-81273131D01*
X150576464Y-81273130D01*
X150625500Y-81154747D01*
X150638260Y-81090602D01*
X150650499Y-81029074D01*
X150650499Y-80900931D01*
X150625501Y-80775265D01*
X150625500Y-80775259D01*
X150625375Y-80774958D01*
X150625357Y-80774790D01*
X150623732Y-80769432D01*
X150624747Y-80769123D01*
X150617903Y-80705493D01*
X150623751Y-80685577D01*
X150623732Y-80685572D01*
X150624405Y-80683350D01*
X150625380Y-80680033D01*
X150625500Y-80679744D01*
X150643553Y-80588989D01*
X150650499Y-80554071D01*
X150650499Y-80425928D01*
X150625501Y-80300260D01*
X150625500Y-80300258D01*
X150625500Y-80300256D01*
X150601556Y-80242453D01*
X150594088Y-80172986D01*
X150601558Y-80147547D01*
X150625499Y-80089750D01*
X150625502Y-80089739D01*
X150650500Y-79964071D01*
X150650500Y-79835928D01*
X150636206Y-79764071D01*
X152649499Y-79764071D01*
X152674497Y-79889738D01*
X152674499Y-79889744D01*
X152723533Y-80008124D01*
X152723538Y-80008133D01*
X152794723Y-80114668D01*
X152794726Y-80114672D01*
X152885327Y-80205273D01*
X152885331Y-80205276D01*
X152991866Y-80276461D01*
X152991872Y-80276464D01*
X152991873Y-80276465D01*
X153110256Y-80325501D01*
X153110260Y-80325501D01*
X153110261Y-80325502D01*
X153235928Y-80350500D01*
X153235931Y-80350500D01*
X153364071Y-80350500D01*
X153448615Y-80333682D01*
X153489744Y-80325501D01*
X153608127Y-80276465D01*
X153714669Y-80205276D01*
X153805276Y-80114669D01*
X153876465Y-80008127D01*
X153925501Y-79889744D01*
X153944708Y-79793186D01*
X153950500Y-79764071D01*
X153950500Y-79635928D01*
X153925502Y-79510261D01*
X153925501Y-79510260D01*
X153925501Y-79510256D01*
X153876465Y-79391873D01*
X153876463Y-79391871D01*
X153876459Y-79391863D01*
X153864494Y-79373955D01*
X153822530Y-79311153D01*
X165699499Y-79311153D01*
X165699499Y-79468846D01*
X165730260Y-79623489D01*
X165730263Y-79623501D01*
X165790601Y-79769172D01*
X165790608Y-79769185D01*
X165878209Y-79900288D01*
X165878212Y-79900292D01*
X165989706Y-80011786D01*
X165989710Y-80011789D01*
X166120813Y-80099390D01*
X166120826Y-80099397D01*
X166266497Y-80159735D01*
X166266502Y-80159737D01*
X166421152Y-80190499D01*
X166421155Y-80190500D01*
X166421157Y-80190500D01*
X166578843Y-80190500D01*
X166578844Y-80190499D01*
X166733496Y-80159737D01*
X166879178Y-80099394D01*
X167010288Y-80011789D01*
X167121788Y-79900289D01*
X167209393Y-79769179D01*
X167269736Y-79623497D01*
X167300499Y-79468842D01*
X167300499Y-79311158D01*
X167300499Y-79311155D01*
X167300498Y-79311153D01*
X167288153Y-79249093D01*
X167269736Y-79156503D01*
X167256080Y-79123535D01*
X167209396Y-79010827D01*
X167209389Y-79010814D01*
X167121788Y-78879711D01*
X167121785Y-78879707D01*
X167010291Y-78768213D01*
X167010287Y-78768210D01*
X166879184Y-78680609D01*
X166879171Y-78680602D01*
X166733500Y-78620264D01*
X166733488Y-78620261D01*
X166578844Y-78589500D01*
X166578841Y-78589500D01*
X166421157Y-78589500D01*
X166421154Y-78589500D01*
X166266509Y-78620261D01*
X166266497Y-78620264D01*
X166120826Y-78680602D01*
X166120813Y-78680609D01*
X165989710Y-78768210D01*
X165989706Y-78768213D01*
X165878212Y-78879707D01*
X165878209Y-78879711D01*
X165790608Y-79010814D01*
X165790601Y-79010827D01*
X165730263Y-79156498D01*
X165730260Y-79156510D01*
X165699499Y-79311153D01*
X153822530Y-79311153D01*
X153805276Y-79285331D01*
X153805273Y-79285327D01*
X153714672Y-79194726D01*
X153714668Y-79194723D01*
X153608133Y-79123538D01*
X153608124Y-79123533D01*
X153489744Y-79074499D01*
X153489738Y-79074497D01*
X153364071Y-79049500D01*
X153364069Y-79049500D01*
X153235931Y-79049500D01*
X153235929Y-79049500D01*
X153110261Y-79074497D01*
X153110255Y-79074499D01*
X152991875Y-79123533D01*
X152991866Y-79123538D01*
X152885331Y-79194723D01*
X152885327Y-79194726D01*
X152794726Y-79285327D01*
X152794723Y-79285331D01*
X152723538Y-79391866D01*
X152723533Y-79391875D01*
X152674499Y-79510255D01*
X152674497Y-79510261D01*
X152649500Y-79635928D01*
X152649500Y-79635931D01*
X152649500Y-79764069D01*
X152649500Y-79764071D01*
X152649499Y-79764071D01*
X150636206Y-79764071D01*
X150625502Y-79710261D01*
X150625501Y-79710260D01*
X150625501Y-79710256D01*
X150614715Y-79684216D01*
X150613152Y-79680442D01*
X150613149Y-79680435D01*
X150576465Y-79591873D01*
X150555775Y-79560909D01*
X150551973Y-79552987D01*
X150547700Y-79526829D01*
X150539782Y-79501543D01*
X150542102Y-79492562D01*
X150540709Y-79484031D01*
X150549611Y-79463508D01*
X150556377Y-79437326D01*
X150559577Y-79431784D01*
X150595023Y-79299499D01*
X150600500Y-79279058D01*
X150600500Y-79120943D01*
X150600500Y-78274766D01*
X150609939Y-78227313D01*
X150625501Y-78189744D01*
X150647493Y-78079185D01*
X150650500Y-78064071D01*
X150650500Y-77935928D01*
X150625502Y-77810261D01*
X150625501Y-77810260D01*
X150625501Y-77810256D01*
X150576465Y-77691873D01*
X150571176Y-77683957D01*
X150529212Y-77621153D01*
X151800499Y-77621153D01*
X151800499Y-77778846D01*
X151831260Y-77933489D01*
X151831263Y-77933501D01*
X151891601Y-78079172D01*
X151891608Y-78079185D01*
X151979209Y-78210288D01*
X151979212Y-78210292D01*
X152090706Y-78321786D01*
X152090710Y-78321789D01*
X152221813Y-78409390D01*
X152221826Y-78409397D01*
X152367497Y-78469735D01*
X152367502Y-78469737D01*
X152522152Y-78500499D01*
X152522155Y-78500500D01*
X152522157Y-78500500D01*
X152679843Y-78500500D01*
X152679844Y-78500499D01*
X152834496Y-78469737D01*
X152952434Y-78420886D01*
X152980171Y-78409397D01*
X152980171Y-78409396D01*
X152980178Y-78409394D01*
X153111288Y-78321789D01*
X153222788Y-78210289D01*
X153225913Y-78205611D01*
X153279524Y-78160806D01*
X153329017Y-78150500D01*
X153364071Y-78150500D01*
X153448615Y-78133682D01*
X153489744Y-78125501D01*
X153608127Y-78076465D01*
X153714669Y-78005276D01*
X153805276Y-77914669D01*
X153876465Y-77808127D01*
X153925501Y-77689744D01*
X153939969Y-77617011D01*
X153950500Y-77564071D01*
X153950500Y-77435928D01*
X153925502Y-77310261D01*
X153925501Y-77310260D01*
X153925501Y-77310256D01*
X153876465Y-77191873D01*
X153876461Y-77191866D01*
X153855983Y-77161219D01*
X156608806Y-77161219D01*
X156608806Y-77318912D01*
X156639567Y-77473555D01*
X156639570Y-77473567D01*
X156699908Y-77619238D01*
X156699915Y-77619251D01*
X156787516Y-77750354D01*
X156787519Y-77750358D01*
X156899013Y-77861852D01*
X156899017Y-77861855D01*
X157030120Y-77949456D01*
X157030133Y-77949463D01*
X157164880Y-78005276D01*
X157175809Y-78009803D01*
X157330459Y-78040565D01*
X157330462Y-78040566D01*
X157330464Y-78040566D01*
X157488150Y-78040566D01*
X157488151Y-78040565D01*
X157642803Y-78009803D01*
X157788485Y-77949460D01*
X157919595Y-77861855D01*
X158031095Y-77750355D01*
X158031097Y-77750351D01*
X158033178Y-77747817D01*
X158034608Y-77746842D01*
X158035403Y-77746048D01*
X158035553Y-77746198D01*
X158090922Y-77708480D01*
X158160767Y-77706606D01*
X158216716Y-77738796D01*
X158289706Y-77811786D01*
X158289710Y-77811789D01*
X158420813Y-77899390D01*
X158420826Y-77899397D01*
X158541681Y-77949456D01*
X158566502Y-77959737D01*
X158721152Y-77990499D01*
X158721155Y-77990500D01*
X158721157Y-77990500D01*
X158878843Y-77990500D01*
X158878844Y-77990499D01*
X159033496Y-77959737D01*
X159179178Y-77899394D01*
X159241273Y-77857902D01*
X159307949Y-77837024D01*
X159375330Y-77855508D01*
X159379053Y-77857901D01*
X159391862Y-77866459D01*
X159391874Y-77866466D01*
X159413267Y-77875327D01*
X159510255Y-77915501D01*
X159510259Y-77915501D01*
X159510260Y-77915502D01*
X159635927Y-77940500D01*
X159635930Y-77940500D01*
X159764070Y-77940500D01*
X159848614Y-77923682D01*
X159889743Y-77915501D01*
X160008126Y-77866465D01*
X160031108Y-77851108D01*
X160097784Y-77830230D01*
X160165164Y-77848714D01*
X160168872Y-77851096D01*
X160191872Y-77866465D01*
X160310255Y-77915501D01*
X160310259Y-77915501D01*
X160310260Y-77915502D01*
X160435927Y-77940500D01*
X160435930Y-77940500D01*
X160564070Y-77940500D01*
X160627805Y-77927822D01*
X160635712Y-77928529D01*
X160643151Y-77925755D01*
X160670014Y-77931598D01*
X160697397Y-77934049D01*
X160705406Y-77939297D01*
X160711424Y-77940607D01*
X160739678Y-77961758D01*
X160784085Y-78006165D01*
X160817570Y-78067488D01*
X160818021Y-78118037D01*
X160799499Y-78211153D01*
X160799499Y-78368846D01*
X160830260Y-78523489D01*
X160830263Y-78523501D01*
X160890601Y-78669172D01*
X160890608Y-78669185D01*
X160978209Y-78800288D01*
X160978212Y-78800292D01*
X161089706Y-78911786D01*
X161089710Y-78911789D01*
X161220813Y-78999390D01*
X161220826Y-78999397D01*
X161350500Y-79053109D01*
X161366502Y-79059737D01*
X161521152Y-79090499D01*
X161521155Y-79090500D01*
X161521157Y-79090500D01*
X161678843Y-79090500D01*
X161678844Y-79090499D01*
X161833496Y-79059737D01*
X161951591Y-79010821D01*
X161979171Y-78999397D01*
X161979171Y-78999396D01*
X161979178Y-78999394D01*
X162110288Y-78911789D01*
X162221788Y-78800289D01*
X162309393Y-78669179D01*
X162310504Y-78666498D01*
X162329654Y-78620264D01*
X162369736Y-78523497D01*
X162400499Y-78368842D01*
X162400499Y-78211158D01*
X162400499Y-78211155D01*
X162400498Y-78211153D01*
X162383461Y-78125502D01*
X162369736Y-78056503D01*
X162350393Y-78009804D01*
X162309396Y-77910827D01*
X162309389Y-77910814D01*
X162221788Y-77779711D01*
X162221785Y-77779707D01*
X162115912Y-77673834D01*
X162114572Y-77671380D01*
X162112179Y-77669935D01*
X162097926Y-77640895D01*
X162082427Y-77612511D01*
X162082250Y-77608956D01*
X162081394Y-77607212D01*
X162081552Y-77594904D01*
X162080411Y-77571932D01*
X162080989Y-77566923D01*
X162100499Y-77468842D01*
X162100499Y-77411153D01*
X165359499Y-77411153D01*
X165359499Y-77568846D01*
X165390260Y-77723489D01*
X165390263Y-77723501D01*
X165450601Y-77869172D01*
X165450608Y-77869185D01*
X165538209Y-78000288D01*
X165538212Y-78000292D01*
X165649706Y-78111786D01*
X165649710Y-78111789D01*
X165780813Y-78199390D01*
X165780826Y-78199397D01*
X165903238Y-78250101D01*
X165926502Y-78259737D01*
X166081152Y-78290499D01*
X166081155Y-78290500D01*
X166081157Y-78290500D01*
X166238843Y-78290500D01*
X166238844Y-78290499D01*
X166393496Y-78259737D01*
X166539178Y-78199394D01*
X166670288Y-78111789D01*
X166781788Y-78000289D01*
X166869393Y-77869179D01*
X166874065Y-77857901D01*
X166893131Y-77811870D01*
X166929736Y-77723497D01*
X166960499Y-77568842D01*
X166960499Y-77411158D01*
X166960499Y-77411155D01*
X166960498Y-77411153D01*
X166942149Y-77318908D01*
X166929736Y-77256503D01*
X166902070Y-77189711D01*
X166869396Y-77110827D01*
X166869389Y-77110814D01*
X166781788Y-76979711D01*
X166781785Y-76979707D01*
X166670291Y-76868213D01*
X166670287Y-76868210D01*
X166539184Y-76780609D01*
X166539171Y-76780602D01*
X166393500Y-76720264D01*
X166393488Y-76720261D01*
X166238844Y-76689500D01*
X166238841Y-76689500D01*
X166081157Y-76689500D01*
X166081154Y-76689500D01*
X165926509Y-76720261D01*
X165926497Y-76720264D01*
X165780826Y-76780602D01*
X165780813Y-76780609D01*
X165649710Y-76868210D01*
X165649706Y-76868213D01*
X165538212Y-76979707D01*
X165538209Y-76979711D01*
X165450608Y-77110814D01*
X165450601Y-77110827D01*
X165390263Y-77256498D01*
X165390260Y-77256510D01*
X165359499Y-77411153D01*
X162100499Y-77411153D01*
X162100499Y-77311158D01*
X162100499Y-77311155D01*
X162100498Y-77311153D01*
X162094138Y-77279179D01*
X162069736Y-77156503D01*
X162060204Y-77133491D01*
X162009396Y-77010827D01*
X162009389Y-77010814D01*
X161921788Y-76879711D01*
X161921785Y-76879707D01*
X161810291Y-76768213D01*
X161810287Y-76768210D01*
X161679184Y-76680609D01*
X161679171Y-76680602D01*
X161533500Y-76620264D01*
X161533488Y-76620261D01*
X161378844Y-76589500D01*
X161378841Y-76589500D01*
X161221157Y-76589500D01*
X161221154Y-76589500D01*
X161066509Y-76620261D01*
X161066497Y-76620264D01*
X160920827Y-76680602D01*
X160920811Y-76680611D01*
X160902379Y-76692927D01*
X160835701Y-76713804D01*
X160786038Y-76704385D01*
X160689747Y-76664500D01*
X160689737Y-76664497D01*
X160564070Y-76639500D01*
X160564068Y-76639500D01*
X160435930Y-76639500D01*
X160435928Y-76639500D01*
X160310260Y-76664497D01*
X160310254Y-76664499D01*
X160191871Y-76713534D01*
X160168887Y-76728892D01*
X160102209Y-76749768D01*
X160034829Y-76731282D01*
X160031111Y-76728892D01*
X160008126Y-76713534D01*
X159889743Y-76664499D01*
X159889737Y-76664497D01*
X159764070Y-76639500D01*
X159764068Y-76639500D01*
X159635930Y-76639500D01*
X159635928Y-76639500D01*
X159510261Y-76664497D01*
X159504432Y-76666266D01*
X159503805Y-76664202D01*
X159444012Y-76670626D01*
X159381535Y-76639346D01*
X159378357Y-76636279D01*
X159310291Y-76568213D01*
X159310287Y-76568210D01*
X159179184Y-76480609D01*
X159179171Y-76480602D01*
X159033500Y-76420264D01*
X159033488Y-76420261D01*
X158878844Y-76389500D01*
X158878841Y-76389500D01*
X158721157Y-76389500D01*
X158721154Y-76389500D01*
X158566509Y-76420261D01*
X158566497Y-76420264D01*
X158420826Y-76480602D01*
X158420813Y-76480609D01*
X158289710Y-76568210D01*
X158289706Y-76568213D01*
X158178207Y-76679712D01*
X158176114Y-76682263D01*
X158174681Y-76683238D01*
X158173902Y-76684018D01*
X158173754Y-76683870D01*
X158118364Y-76721591D01*
X158048519Y-76723454D01*
X157992588Y-76691269D01*
X157919598Y-76618279D01*
X157919594Y-76618276D01*
X157788491Y-76530675D01*
X157788478Y-76530668D01*
X157642807Y-76470330D01*
X157642795Y-76470327D01*
X157488151Y-76439566D01*
X157488148Y-76439566D01*
X157330464Y-76439566D01*
X157330461Y-76439566D01*
X157175816Y-76470327D01*
X157175804Y-76470330D01*
X157030133Y-76530668D01*
X157030120Y-76530675D01*
X156899017Y-76618276D01*
X156899013Y-76618279D01*
X156787519Y-76729773D01*
X156787516Y-76729777D01*
X156699915Y-76860880D01*
X156699908Y-76860893D01*
X156639570Y-77006564D01*
X156639567Y-77006576D01*
X156608806Y-77161219D01*
X153855983Y-77161219D01*
X153805276Y-77085331D01*
X153805273Y-77085327D01*
X153714672Y-76994726D01*
X153714668Y-76994723D01*
X153608133Y-76923538D01*
X153608124Y-76923533D01*
X153489744Y-76874499D01*
X153489738Y-76874497D01*
X153364071Y-76849500D01*
X153364069Y-76849500D01*
X153235931Y-76849500D01*
X153235929Y-76849500D01*
X153110261Y-76874497D01*
X153110255Y-76874499D01*
X152991870Y-76923535D01*
X152991867Y-76923537D01*
X152980533Y-76931110D01*
X152913855Y-76951984D01*
X152864198Y-76942566D01*
X152834496Y-76930263D01*
X152834492Y-76930262D01*
X152834487Y-76930260D01*
X152679844Y-76899500D01*
X152679841Y-76899500D01*
X152522157Y-76899500D01*
X152522154Y-76899500D01*
X152367509Y-76930261D01*
X152367497Y-76930264D01*
X152221826Y-76990602D01*
X152221813Y-76990609D01*
X152090710Y-77078210D01*
X152090706Y-77078213D01*
X151979212Y-77189707D01*
X151979209Y-77189711D01*
X151891608Y-77320814D01*
X151891601Y-77320827D01*
X151831263Y-77466498D01*
X151831260Y-77466510D01*
X151800499Y-77621153D01*
X150529212Y-77621153D01*
X150505276Y-77585330D01*
X150414672Y-77494726D01*
X150414668Y-77494723D01*
X150308133Y-77423538D01*
X150308124Y-77423533D01*
X150189744Y-77374499D01*
X150189738Y-77374497D01*
X150064071Y-77349500D01*
X150064069Y-77349500D01*
X149935931Y-77349500D01*
X149935929Y-77349500D01*
X149810261Y-77374497D01*
X149810255Y-77374499D01*
X149691875Y-77423533D01*
X149691866Y-77423538D01*
X149585331Y-77494723D01*
X149585327Y-77494726D01*
X149494726Y-77585327D01*
X149494723Y-77585331D01*
X149423538Y-77691866D01*
X149423533Y-77691875D01*
X149374499Y-77810255D01*
X149374497Y-77810261D01*
X149349500Y-77935928D01*
X149349500Y-77935931D01*
X149349500Y-78064069D01*
X149349500Y-78064071D01*
X149349499Y-78064071D01*
X149374497Y-78189738D01*
X149374499Y-78189744D01*
X149389488Y-78225931D01*
X149390061Y-78227313D01*
X149399500Y-78274766D01*
X149399500Y-78899902D01*
X149379815Y-78966941D01*
X149363181Y-78987583D01*
X148742480Y-79608283D01*
X148742474Y-79608291D01*
X148698641Y-79684214D01*
X148698641Y-79684215D01*
X148663422Y-79745216D01*
X148622498Y-79897944D01*
X148622498Y-80056058D01*
X148622498Y-80056060D01*
X148622499Y-80066054D01*
X148622499Y-81936329D01*
X148622498Y-81936347D01*
X148622498Y-82102053D01*
X148622497Y-82102053D01*
X147693893Y-82102053D01*
X147700499Y-82068842D01*
X147700499Y-81911158D01*
X147700499Y-81911155D01*
X147700498Y-81911153D01*
X147682728Y-81821817D01*
X147669736Y-81756503D01*
X147655096Y-81721158D01*
X147609396Y-81610827D01*
X147609389Y-81610814D01*
X147521788Y-81479711D01*
X147521785Y-81479707D01*
X147410291Y-81368213D01*
X147410287Y-81368210D01*
X147279184Y-81280609D01*
X147279171Y-81280602D01*
X147133500Y-81220264D01*
X147133488Y-81220261D01*
X146978844Y-81189500D01*
X146978841Y-81189500D01*
X146821157Y-81189500D01*
X146821154Y-81189500D01*
X146666509Y-81220261D01*
X146666497Y-81220264D01*
X146520826Y-81280602D01*
X146520813Y-81280609D01*
X146389710Y-81368210D01*
X146389706Y-81368213D01*
X146278212Y-81479707D01*
X146278209Y-81479711D01*
X146190608Y-81610814D01*
X146190601Y-81610827D01*
X146130263Y-81756498D01*
X146130260Y-81756510D01*
X146099499Y-81911153D01*
X145510924Y-81911153D01*
X145521788Y-81900289D01*
X145574222Y-81821817D01*
X145609389Y-81769185D01*
X145609389Y-81769184D01*
X145609393Y-81769179D01*
X145669736Y-81623497D01*
X145700499Y-81468842D01*
X145700499Y-81311158D01*
X145700499Y-81311155D01*
X145700498Y-81311153D01*
X145680428Y-81210255D01*
X145669736Y-81156503D01*
X145669222Y-81155261D01*
X145609396Y-81010827D01*
X145609389Y-81010814D01*
X145521788Y-80879711D01*
X145521785Y-80879707D01*
X145410291Y-80768213D01*
X145410287Y-80768210D01*
X145373459Y-80743602D01*
X145328654Y-80689989D01*
X145319947Y-80620664D01*
X145350102Y-80557637D01*
X145409545Y-80520918D01*
X145442350Y-80516500D01*
X145697331Y-80516500D01*
X145697347Y-80516501D01*
X145704943Y-80516501D01*
X145863054Y-80516501D01*
X145863057Y-80516501D01*
X146015785Y-80475577D01*
X146083847Y-80436281D01*
X146152716Y-80396520D01*
X146264520Y-80284716D01*
X146264521Y-80284714D01*
X146456140Y-80093094D01*
X146517461Y-80059611D01*
X146587153Y-80064595D01*
X146591272Y-80066216D01*
X146591870Y-80066463D01*
X146591872Y-80066465D01*
X146710255Y-80115501D01*
X146710259Y-80115501D01*
X146710260Y-80115502D01*
X146835927Y-80140500D01*
X146835930Y-80140500D01*
X146964070Y-80140500D01*
X147048614Y-80123682D01*
X147089743Y-80115501D01*
X147208126Y-80066465D01*
X147314668Y-79995276D01*
X147405275Y-79904669D01*
X147423413Y-79877524D01*
X147461231Y-79820926D01*
X147461231Y-79820925D01*
X147461232Y-79820924D01*
X147476459Y-79798135D01*
X147476460Y-79798132D01*
X147476464Y-79798127D01*
X147525500Y-79679744D01*
X147539713Y-79608291D01*
X147550499Y-79554071D01*
X147550499Y-79425928D01*
X147530842Y-79327111D01*
X147537069Y-79257520D01*
X147537879Y-79255513D01*
X147573580Y-79169326D01*
X147589260Y-79090499D01*
X147600500Y-79033993D01*
X147600500Y-78896002D01*
X147573581Y-78760675D01*
X147573580Y-78760674D01*
X147573580Y-78760670D01*
X147572329Y-78757649D01*
X147520778Y-78633193D01*
X147520771Y-78633180D01*
X147444114Y-78518456D01*
X147444111Y-78518452D01*
X147346545Y-78420886D01*
X147346541Y-78420883D01*
X147231817Y-78344226D01*
X147231804Y-78344219D01*
X147104332Y-78291419D01*
X147104322Y-78291416D01*
X146968995Y-78264498D01*
X146968993Y-78264498D01*
X146831007Y-78264498D01*
X146831005Y-78264498D01*
X146695677Y-78291416D01*
X146695667Y-78291419D01*
X146568195Y-78344219D01*
X146568182Y-78344226D01*
X146453458Y-78420883D01*
X146453454Y-78420886D01*
X146355888Y-78518452D01*
X146355885Y-78518456D01*
X146279228Y-78633180D01*
X146279223Y-78633190D01*
X146264824Y-78667953D01*
X146254986Y-78680160D01*
X146249502Y-78694848D01*
X146233511Y-78706808D01*
X146220982Y-78722357D01*
X146205364Y-78727862D01*
X146193553Y-78736698D01*
X146166448Y-78741583D01*
X146159062Y-78744187D01*
X146154662Y-78744500D01*
X146040931Y-78744500D01*
X145977608Y-78757095D01*
X145969835Y-78757649D01*
X145942995Y-78751799D01*
X145915635Y-78749351D01*
X145909348Y-78744467D01*
X145901568Y-78742772D01*
X145882147Y-78723337D01*
X145860458Y-78706488D01*
X145857809Y-78698980D01*
X145852181Y-78693348D01*
X145846350Y-78666498D01*
X145837214Y-78640598D01*
X145838084Y-78628428D01*
X145837355Y-78625069D01*
X145838554Y-78621856D01*
X145839419Y-78609769D01*
X145850499Y-78554070D01*
X145850499Y-78425928D01*
X145825501Y-78300261D01*
X145825500Y-78300260D01*
X145825500Y-78300256D01*
X145783723Y-78199397D01*
X145776465Y-78181875D01*
X145776460Y-78181866D01*
X145705275Y-78075331D01*
X145705272Y-78075327D01*
X145614671Y-77984726D01*
X145614667Y-77984723D01*
X145508132Y-77913538D01*
X145508123Y-77913533D01*
X145389743Y-77864499D01*
X145389737Y-77864497D01*
X145264070Y-77839500D01*
X145264068Y-77839500D01*
X145135930Y-77839500D01*
X145135928Y-77839500D01*
X145010260Y-77864497D01*
X145010254Y-77864499D01*
X144953176Y-77888142D01*
X144883706Y-77895611D01*
X144833316Y-77874245D01*
X144825154Y-77868374D01*
X144766260Y-77809480D01*
X144655169Y-77745342D01*
X144649797Y-77742240D01*
X144649791Y-77742236D01*
X144635610Y-77734049D01*
X144629329Y-77730423D01*
X144476601Y-77689499D01*
X144318487Y-77689499D01*
X144310891Y-77689499D01*
X144310875Y-77689500D01*
X143141941Y-77689500D01*
X143074902Y-77669815D01*
X143029147Y-77617011D01*
X143019203Y-77547853D01*
X143048228Y-77484297D01*
X143054260Y-77477819D01*
X143121786Y-77410292D01*
X143121789Y-77410289D01*
X143209394Y-77279179D01*
X143269737Y-77133497D01*
X143300500Y-76978842D01*
X143300500Y-76821158D01*
X143300500Y-76821155D01*
X143300499Y-76821153D01*
X143293632Y-76786632D01*
X143269737Y-76666503D01*
X143265747Y-76656871D01*
X143209397Y-76520827D01*
X143209390Y-76520814D01*
X143121789Y-76389711D01*
X143121786Y-76389707D01*
X143010292Y-76278213D01*
X143010288Y-76278210D01*
X142879185Y-76190609D01*
X142879172Y-76190602D01*
X142733501Y-76130264D01*
X142733493Y-76130262D01*
X142700306Y-76123660D01*
X142638396Y-76091273D01*
X142603823Y-76030557D01*
X142600500Y-76002043D01*
X142600500Y-75801456D01*
X142562052Y-75608170D01*
X142562051Y-75608169D01*
X142562051Y-75608165D01*
X142557973Y-75598320D01*
X142543144Y-75562518D01*
X142526010Y-75521153D01*
X149499500Y-75521153D01*
X149499500Y-75678846D01*
X149530261Y-75833489D01*
X149530264Y-75833501D01*
X149590602Y-75979172D01*
X149590609Y-75979185D01*
X149678210Y-76110288D01*
X149678213Y-76110292D01*
X149789707Y-76221786D01*
X149789711Y-76221789D01*
X149920814Y-76309390D01*
X149920827Y-76309397D01*
X150066498Y-76369735D01*
X150066503Y-76369737D01*
X150221153Y-76400499D01*
X150221156Y-76400500D01*
X150221158Y-76400500D01*
X150378844Y-76400500D01*
X150378845Y-76400499D01*
X150533497Y-76369737D01*
X150679179Y-76309394D01*
X150810289Y-76221789D01*
X150921789Y-76110289D01*
X150975632Y-76029707D01*
X151029242Y-75984904D01*
X151098567Y-75976196D01*
X151102925Y-75976982D01*
X151221155Y-76000500D01*
X151221158Y-76000500D01*
X151378844Y-76000500D01*
X151378845Y-76000499D01*
X151533497Y-75969737D01*
X151679179Y-75909394D01*
X151810289Y-75821789D01*
X151921789Y-75710289D01*
X152009394Y-75579179D01*
X152069737Y-75433497D01*
X152100500Y-75278842D01*
X152100500Y-75121158D01*
X152100500Y-75121155D01*
X152100499Y-75121153D01*
X152084587Y-75041158D01*
X152069737Y-74966503D01*
X152069735Y-74966498D01*
X152009397Y-74820827D01*
X152009390Y-74820814D01*
X151921789Y-74689711D01*
X151921786Y-74689707D01*
X151810292Y-74578213D01*
X151810288Y-74578210D01*
X151679185Y-74490609D01*
X151679172Y-74490602D01*
X151533501Y-74430264D01*
X151533489Y-74430261D01*
X151378845Y-74399500D01*
X151378842Y-74399500D01*
X151221158Y-74399500D01*
X151221155Y-74399500D01*
X151066510Y-74430261D01*
X151066498Y-74430264D01*
X150920827Y-74490602D01*
X150920814Y-74490609D01*
X150789711Y-74578210D01*
X150789707Y-74578213D01*
X150678213Y-74689707D01*
X150678210Y-74689711D01*
X150624368Y-74770291D01*
X150570755Y-74815096D01*
X150501430Y-74823803D01*
X150497075Y-74823017D01*
X150378846Y-74799500D01*
X150378842Y-74799500D01*
X150221158Y-74799500D01*
X150221155Y-74799500D01*
X150066510Y-74830261D01*
X150066498Y-74830264D01*
X149920827Y-74890602D01*
X149920814Y-74890609D01*
X149789711Y-74978210D01*
X149789707Y-74978213D01*
X149678213Y-75089707D01*
X149678210Y-75089711D01*
X149590609Y-75220814D01*
X149590602Y-75220827D01*
X149530264Y-75366498D01*
X149530261Y-75366510D01*
X149499500Y-75521153D01*
X142526010Y-75521153D01*
X142486635Y-75426092D01*
X142486628Y-75426079D01*
X142377139Y-75262218D01*
X142377136Y-75262214D01*
X142237785Y-75122863D01*
X142237781Y-75122860D01*
X142073920Y-75013371D01*
X142073907Y-75013364D01*
X141891839Y-74937950D01*
X141891829Y-74937947D01*
X141884926Y-74936574D01*
X141823017Y-74904185D01*
X141788447Y-74843467D01*
X141792191Y-74773698D01*
X141833060Y-74717028D01*
X141856660Y-74698919D01*
X141856668Y-74698911D01*
X141856669Y-74698911D01*
X142018910Y-74536670D01*
X142018913Y-74536665D01*
X142018918Y-74536661D01*
X142158610Y-74354612D01*
X142183701Y-74311153D01*
X146349499Y-74311153D01*
X146349499Y-74468846D01*
X146380260Y-74623489D01*
X146380263Y-74623501D01*
X146440601Y-74769172D01*
X146440608Y-74769185D01*
X146528209Y-74900288D01*
X146528212Y-74900292D01*
X146639706Y-75011786D01*
X146639710Y-75011789D01*
X146770813Y-75099390D01*
X146770826Y-75099397D01*
X146893441Y-75150185D01*
X146916502Y-75159737D01*
X147060645Y-75188409D01*
X147071152Y-75190499D01*
X147071155Y-75190500D01*
X147071157Y-75190500D01*
X147228843Y-75190500D01*
X147228844Y-75190499D01*
X147383496Y-75159737D01*
X147529178Y-75099394D01*
X147660288Y-75011789D01*
X147771788Y-74900289D01*
X147859393Y-74769179D01*
X147919736Y-74623497D01*
X147950499Y-74468842D01*
X147950499Y-74311158D01*
X147950499Y-74311155D01*
X147950498Y-74311153D01*
X147944138Y-74279179D01*
X147919736Y-74156503D01*
X147910207Y-74133497D01*
X147859396Y-74010827D01*
X147859394Y-74010823D01*
X147859393Y-74010821D01*
X147828156Y-73964071D01*
X159349499Y-73964071D01*
X159374497Y-74089738D01*
X159374499Y-74089744D01*
X159423533Y-74208124D01*
X159423538Y-74208133D01*
X159494723Y-74314668D01*
X159494726Y-74314672D01*
X159585327Y-74405273D01*
X159585331Y-74405276D01*
X159691866Y-74476461D01*
X159691872Y-74476464D01*
X159691873Y-74476465D01*
X159810256Y-74525501D01*
X159810260Y-74525501D01*
X159810261Y-74525502D01*
X159935928Y-74550500D01*
X159935931Y-74550500D01*
X160064071Y-74550500D01*
X160148615Y-74533682D01*
X160189744Y-74525501D01*
X160308127Y-74476465D01*
X160414669Y-74405276D01*
X160505276Y-74314669D01*
X160576465Y-74208127D01*
X160625501Y-74089744D01*
X160641200Y-74010821D01*
X160650500Y-73964071D01*
X160650500Y-73835928D01*
X160625502Y-73710261D01*
X160625501Y-73710260D01*
X160625501Y-73710256D01*
X160576465Y-73591873D01*
X160576464Y-73591872D01*
X160576461Y-73591866D01*
X160505276Y-73485331D01*
X160505273Y-73485327D01*
X160414672Y-73394726D01*
X160414668Y-73394723D01*
X160308133Y-73323538D01*
X160308124Y-73323533D01*
X160189744Y-73274499D01*
X160189738Y-73274497D01*
X160064071Y-73249500D01*
X160064069Y-73249500D01*
X159935931Y-73249500D01*
X159935929Y-73249500D01*
X159810261Y-73274497D01*
X159810255Y-73274499D01*
X159691875Y-73323533D01*
X159691866Y-73323538D01*
X159585331Y-73394723D01*
X159585327Y-73394726D01*
X159494726Y-73485327D01*
X159494723Y-73485331D01*
X159423538Y-73591866D01*
X159423533Y-73591875D01*
X159374499Y-73710255D01*
X159374497Y-73710261D01*
X159349500Y-73835928D01*
X159349500Y-73835931D01*
X159349500Y-73964069D01*
X159349500Y-73964071D01*
X159349499Y-73964071D01*
X147828156Y-73964071D01*
X147771788Y-73879711D01*
X147771785Y-73879707D01*
X147660291Y-73768213D01*
X147660287Y-73768210D01*
X147529184Y-73680609D01*
X147529171Y-73680602D01*
X147383500Y-73620264D01*
X147383488Y-73620261D01*
X147228844Y-73589500D01*
X147228841Y-73589500D01*
X147071157Y-73589500D01*
X147071154Y-73589500D01*
X146916509Y-73620261D01*
X146916497Y-73620264D01*
X146770826Y-73680602D01*
X146770813Y-73680609D01*
X146639710Y-73768210D01*
X146639706Y-73768213D01*
X146528212Y-73879707D01*
X146528209Y-73879711D01*
X146440608Y-74010814D01*
X146440601Y-74010827D01*
X146380263Y-74156498D01*
X146380260Y-74156510D01*
X146349499Y-74311153D01*
X142183701Y-74311153D01*
X142273343Y-74155888D01*
X142361157Y-73943887D01*
X142420547Y-73722238D01*
X142450499Y-73494734D01*
X142450499Y-73265266D01*
X142420547Y-73037762D01*
X142361157Y-72816113D01*
X142284250Y-72630443D01*
X142273348Y-72604123D01*
X142273345Y-72604117D01*
X142273343Y-72604112D01*
X142158610Y-72405388D01*
X142158607Y-72405385D01*
X142158606Y-72405382D01*
X142018917Y-72223338D01*
X142018910Y-72223330D01*
X141856669Y-72061089D01*
X141856660Y-72061081D01*
X141674616Y-71921392D01*
X141651697Y-71908160D01*
X141475887Y-71806656D01*
X141475885Y-71806655D01*
X141475875Y-71806650D01*
X141263886Y-71718842D01*
X141042237Y-71659452D01*
X141004214Y-71654446D01*
X140814740Y-71629500D01*
X140814733Y-71629500D01*
X140585265Y-71629500D01*
X140585257Y-71629500D01*
X140368714Y-71658009D01*
X140357761Y-71659452D01*
X140264075Y-71684554D01*
X140136111Y-71718842D01*
X139924122Y-71806650D01*
X139924108Y-71806657D01*
X139725381Y-71921392D01*
X139543337Y-72061081D01*
X139381080Y-72223338D01*
X139241391Y-72405382D01*
X139126656Y-72604109D01*
X139126649Y-72604123D01*
X139038841Y-72816112D01*
X139004553Y-72944076D01*
X138979451Y-73037762D01*
X138978008Y-73048715D01*
X138949499Y-73265258D01*
X138949499Y-73494741D01*
X138972113Y-73666503D01*
X138979451Y-73722238D01*
X138991770Y-73768213D01*
X139038841Y-73943887D01*
X139126649Y-74155876D01*
X139126656Y-74155890D01*
X139241391Y-74354617D01*
X139381080Y-74536661D01*
X139381088Y-74536670D01*
X139532237Y-74687819D01*
X139565722Y-74749142D01*
X139560738Y-74818834D01*
X139518866Y-74874767D01*
X139453402Y-74899184D01*
X139444556Y-74899500D01*
X139401457Y-74899500D01*
X139208170Y-74937947D01*
X139208160Y-74937950D01*
X139026092Y-75013364D01*
X139026079Y-75013371D01*
X138862219Y-75122859D01*
X138858160Y-75126191D01*
X138793849Y-75153501D01*
X138724982Y-75141707D01*
X138673424Y-75094552D01*
X138655499Y-75030334D01*
X138655499Y-72839427D01*
X138655815Y-72830581D01*
X138666317Y-72683748D01*
X138670130Y-72630434D01*
X138672645Y-72612938D01*
X138714355Y-72421199D01*
X138719332Y-72404248D01*
X138787910Y-72220385D01*
X138795258Y-72204298D01*
X138843744Y-72115502D01*
X138889290Y-72032089D01*
X138898844Y-72017221D01*
X139016443Y-71860128D01*
X139028016Y-71846772D01*
X139166774Y-71708013D01*
X139180132Y-71696440D01*
X139337213Y-71578850D01*
X139352082Y-71569294D01*
X139524308Y-71475251D01*
X139540377Y-71467912D01*
X139724247Y-71399332D01*
X139741198Y-71394355D01*
X139932937Y-71352645D01*
X139950435Y-71350129D01*
X140150567Y-71335816D01*
X140159413Y-71335500D01*
X140220891Y-71335500D01*
X143625500Y-71335500D01*
X143692539Y-71355185D01*
G37*
%TD.AperFunction*%
%TD*%
M02*
