M48
; DRILL file {KiCad 9.0.7} date 2026-04-17T21:52:14+0200
; FORMAT={-:-/ absolute / metric / decimal}
; #@! TF.CreationDate,2026-04-17T21:52:14+02:00
; #@! TF.GenerationSoftware,Kicad,Pcbnew,9.0.7
; #@! TF.FileFunction,Plated,1,4,PTH
FMAT,2
METRIC
; #@! TA.AperFunction,Plated,PTH,ViaDrill
T1C0.150
; #@! TA.AperFunction,Plated,PTH,ViaDrill
T2C0.300
; #@! TA.AperFunction,Plated,PTH,ComponentDrill
T3C0.500
; #@! TA.AperFunction,Plated,PTH,ComponentDrill
T4C0.600
%
G90
G05
T1
X134.583Y-84.9
X135.059Y-84.89
X135.534Y-84.89
X135.934Y-85.528
X137.751Y-84.251
X138.134Y-84.89
X138.634Y-84.89
X139.6Y-78.29
X139.6Y-81.49
X139.7Y-82.69
X139.7Y-85.89
X142.0Y-82.69
X142.0Y-85.89
X142.1Y-81.49
X143.3Y-86.39
X144.4Y-71.49
X144.696Y-83.386
X144.7Y-82.69
X144.75Y-85.697
X145.2Y-78.49
X145.2Y-71.49
X145.5Y-79.49
X146.105Y-79.395
X146.9Y-79.49
X146.9Y-78.965
X147.1Y-86.6
X149.5Y-85.4
X149.6Y-86.7
X149.8Y-77.1
X149.9Y-82.7
X150.0Y-80.49
X150.0Y-80.965
X150.0Y-78.0
X150.0Y-79.9
X150.0Y-82.1
X150.0Y-86.2
X151.9Y-88.1
X152.0Y-90.8
X152.5Y-83.6
X152.5Y-84.3
X153.3Y-77.5
X153.3Y-79.7
X153.3Y-86.7
X153.6Y-81.4
X155.29Y-81.345
X156.8Y-90.3
X157.249Y-90.64
X157.254Y-98.14
X157.749Y-90.64
X157.754Y-98.14
X158.249Y-90.64
X158.254Y-98.14
X158.6Y-88.9
X158.749Y-90.64
X158.754Y-98.14
X159.249Y-90.64
X159.254Y-98.14
X159.7Y-77.29
X159.749Y-90.64
X159.754Y-98.14
X160.0Y-73.9
X160.249Y-90.64
X160.254Y-98.14
X160.3Y-86.6
X160.5Y-77.29
X160.749Y-90.64
X160.754Y-98.14
X160.8Y-86.6
X161.249Y-90.64
X161.254Y-98.14
X161.749Y-90.64
X163.0Y-93.6
X164.2Y-74.79
X165.1Y-75.69
X165.4Y-89.0
T2
X140.8Y-84.79
X140.837Y-79.39
X141.0Y-90.8
X141.0Y-92.2
X141.6Y-86.69
X142.3Y-97.6
X142.5Y-76.9
X144.9Y-81.39
X145.6Y-90.19
X145.6Y-91.59
X146.1Y-85.68
X146.9Y-81.99
X147.15Y-74.39
X147.5Y-95.79
X147.5Y-97.29
X148.5Y-94.8
X150.3Y-75.6
X151.0Y-94.9
X151.3Y-75.2
X152.6Y-79.69
X152.601Y-77.7
X154.626Y-94.93
X154.9Y-85.55
X155.061Y-83.289
X155.8Y-77.19
X156.3Y-86.49
X156.4Y-97.7
X157.2Y-86.39
X157.3Y-81.8
X157.409Y-77.24
X157.789Y-92.911
X158.199Y-95.9
X158.8Y-77.19
X158.8Y-71.8
X159.7Y-92.9
X159.9Y-95.9
X160.1Y-79.29
X160.5Y-71.7
X161.3Y-77.39
X161.6Y-78.29
X161.6Y-80.59
X161.6Y-82.09
X161.6Y-83.69
X161.8Y-96.1
X162.2Y-92.15
X163.0Y-73.9
X164.1Y-80.69
X165.6Y-79.39
X166.16Y-77.49
X166.5Y-79.39
X166.6Y-75.6
X167.355Y-79.39
T3
X139.5Y-75.9
X141.6Y-75.9
X148.6Y-90.0
X150.8Y-90.0
X153.1Y-90.0
X163.6Y-72.2
X167.0Y-89.9
X167.0Y-91.9
X167.0Y-93.9
T4
X131.694Y-80.57G85X132.494Y-80.57
G05
X131.694Y-80.57G85X132.494Y-80.57
G05
X131.694Y-89.21G85X132.494Y-89.21
G05
X131.694Y-89.21G85X132.494Y-89.21
G05
X135.714Y-80.57G85X136.814Y-80.57
G05
X135.714Y-80.57G85X136.814Y-80.57
G05
X135.714Y-89.21G85X136.814Y-89.21
G05
X135.714Y-89.21G85X136.814Y-89.21
G05
M30
