%TF.GenerationSoftware,KiCad,Pcbnew,9.0.7*%
%TF.CreationDate,2026-04-17T21:52:01+02:00*%
%TF.ProjectId,SensorHub_2.0,53656e73-6f72-4487-9562-5f322e302e6b,rev?*%
%TF.SameCoordinates,Original*%
%TF.FileFunction,Legend,Top*%
%TF.FilePolarity,Positive*%
%FSLAX46Y46*%
G04 Gerber Fmt 4.6, Leading zero omitted, Abs format (unit mm)*
G04 Created by KiCad (PCBNEW 9.0.7) date 2026-04-17 21:52:01*
%MOMM*%
%LPD*%
G01*
G04 APERTURE LIST*
%ADD10C,0.100000*%
%ADD11C,0.150000*%
%ADD12C,0.120000*%
%ADD13C,0.200000*%
%ADD14C,0.127000*%
%ADD15C,0.250000*%
G04 APERTURE END LIST*
D10*
X139207302Y-85866970D02*
X139183493Y-85890780D01*
X139183493Y-85890780D02*
X139112064Y-85914589D01*
X139112064Y-85914589D02*
X139064445Y-85914589D01*
X139064445Y-85914589D02*
X138993017Y-85890780D01*
X138993017Y-85890780D02*
X138945398Y-85843160D01*
X138945398Y-85843160D02*
X138921588Y-85795541D01*
X138921588Y-85795541D02*
X138897779Y-85700303D01*
X138897779Y-85700303D02*
X138897779Y-85628875D01*
X138897779Y-85628875D02*
X138921588Y-85533637D01*
X138921588Y-85533637D02*
X138945398Y-85486018D01*
X138945398Y-85486018D02*
X138993017Y-85438399D01*
X138993017Y-85438399D02*
X139064445Y-85414589D01*
X139064445Y-85414589D02*
X139112064Y-85414589D01*
X139112064Y-85414589D02*
X139183493Y-85438399D01*
X139183493Y-85438399D02*
X139207302Y-85462208D01*
X139397779Y-85462208D02*
X139421588Y-85438399D01*
X139421588Y-85438399D02*
X139469207Y-85414589D01*
X139469207Y-85414589D02*
X139588255Y-85414589D01*
X139588255Y-85414589D02*
X139635874Y-85438399D01*
X139635874Y-85438399D02*
X139659683Y-85462208D01*
X139659683Y-85462208D02*
X139683493Y-85509827D01*
X139683493Y-85509827D02*
X139683493Y-85557446D01*
X139683493Y-85557446D02*
X139659683Y-85628875D01*
X139659683Y-85628875D02*
X139373969Y-85914589D01*
X139373969Y-85914589D02*
X139683493Y-85914589D01*
X139993016Y-85414589D02*
X140040635Y-85414589D01*
X140040635Y-85414589D02*
X140088254Y-85438399D01*
X140088254Y-85438399D02*
X140112064Y-85462208D01*
X140112064Y-85462208D02*
X140135873Y-85509827D01*
X140135873Y-85509827D02*
X140159683Y-85605065D01*
X140159683Y-85605065D02*
X140159683Y-85724113D01*
X140159683Y-85724113D02*
X140135873Y-85819351D01*
X140135873Y-85819351D02*
X140112064Y-85866970D01*
X140112064Y-85866970D02*
X140088254Y-85890780D01*
X140088254Y-85890780D02*
X140040635Y-85914589D01*
X140040635Y-85914589D02*
X139993016Y-85914589D01*
X139993016Y-85914589D02*
X139945397Y-85890780D01*
X139945397Y-85890780D02*
X139921588Y-85866970D01*
X139921588Y-85866970D02*
X139897778Y-85819351D01*
X139897778Y-85819351D02*
X139873969Y-85724113D01*
X139873969Y-85724113D02*
X139873969Y-85605065D01*
X139873969Y-85605065D02*
X139897778Y-85509827D01*
X139897778Y-85509827D02*
X139921588Y-85462208D01*
X139921588Y-85462208D02*
X139945397Y-85438399D01*
X139945397Y-85438399D02*
X139993016Y-85414589D01*
X140707302Y-85866970D02*
X140683493Y-85890780D01*
X140683493Y-85890780D02*
X140612064Y-85914589D01*
X140612064Y-85914589D02*
X140564445Y-85914589D01*
X140564445Y-85914589D02*
X140493017Y-85890780D01*
X140493017Y-85890780D02*
X140445398Y-85843160D01*
X140445398Y-85843160D02*
X140421588Y-85795541D01*
X140421588Y-85795541D02*
X140397779Y-85700303D01*
X140397779Y-85700303D02*
X140397779Y-85628875D01*
X140397779Y-85628875D02*
X140421588Y-85533637D01*
X140421588Y-85533637D02*
X140445398Y-85486018D01*
X140445398Y-85486018D02*
X140493017Y-85438399D01*
X140493017Y-85438399D02*
X140564445Y-85414589D01*
X140564445Y-85414589D02*
X140612064Y-85414589D01*
X140612064Y-85414589D02*
X140683493Y-85438399D01*
X140683493Y-85438399D02*
X140707302Y-85462208D01*
X140897779Y-85462208D02*
X140921588Y-85438399D01*
X140921588Y-85438399D02*
X140969207Y-85414589D01*
X140969207Y-85414589D02*
X141088255Y-85414589D01*
X141088255Y-85414589D02*
X141135874Y-85438399D01*
X141135874Y-85438399D02*
X141159683Y-85462208D01*
X141159683Y-85462208D02*
X141183493Y-85509827D01*
X141183493Y-85509827D02*
X141183493Y-85557446D01*
X141183493Y-85557446D02*
X141159683Y-85628875D01*
X141159683Y-85628875D02*
X140873969Y-85914589D01*
X140873969Y-85914589D02*
X141183493Y-85914589D01*
X141659683Y-85914589D02*
X141373969Y-85914589D01*
X141516826Y-85914589D02*
X141516826Y-85414589D01*
X141516826Y-85414589D02*
X141469207Y-85486018D01*
X141469207Y-85486018D02*
X141421588Y-85533637D01*
X141421588Y-85533637D02*
X141373969Y-85557446D01*
X154533333Y-90426109D02*
X154533333Y-90783252D01*
X154533333Y-90783252D02*
X154509524Y-90854680D01*
X154509524Y-90854680D02*
X154461905Y-90902300D01*
X154461905Y-90902300D02*
X154390476Y-90926109D01*
X154390476Y-90926109D02*
X154342857Y-90926109D01*
X155009523Y-90426109D02*
X154771428Y-90426109D01*
X154771428Y-90426109D02*
X154747619Y-90664204D01*
X154747619Y-90664204D02*
X154771428Y-90640395D01*
X154771428Y-90640395D02*
X154819047Y-90616585D01*
X154819047Y-90616585D02*
X154938095Y-90616585D01*
X154938095Y-90616585D02*
X154985714Y-90640395D01*
X154985714Y-90640395D02*
X155009523Y-90664204D01*
X155009523Y-90664204D02*
X155033333Y-90711823D01*
X155033333Y-90711823D02*
X155033333Y-90830871D01*
X155033333Y-90830871D02*
X155009523Y-90878490D01*
X155009523Y-90878490D02*
X154985714Y-90902300D01*
X154985714Y-90902300D02*
X154938095Y-90926109D01*
X154938095Y-90926109D02*
X154819047Y-90926109D01*
X154819047Y-90926109D02*
X154771428Y-90902300D01*
X154771428Y-90902300D02*
X154747619Y-90878490D01*
X166819046Y-75161309D02*
X166819046Y-75566071D01*
X166819046Y-75566071D02*
X166842856Y-75613690D01*
X166842856Y-75613690D02*
X166866665Y-75637500D01*
X166866665Y-75637500D02*
X166914284Y-75661309D01*
X166914284Y-75661309D02*
X167009522Y-75661309D01*
X167009522Y-75661309D02*
X167057141Y-75637500D01*
X167057141Y-75637500D02*
X167080951Y-75613690D01*
X167080951Y-75613690D02*
X167104760Y-75566071D01*
X167104760Y-75566071D02*
X167104760Y-75161309D01*
X167557142Y-75161309D02*
X167461904Y-75161309D01*
X167461904Y-75161309D02*
X167414285Y-75185119D01*
X167414285Y-75185119D02*
X167390475Y-75208928D01*
X167390475Y-75208928D02*
X167342856Y-75280357D01*
X167342856Y-75280357D02*
X167319047Y-75375595D01*
X167319047Y-75375595D02*
X167319047Y-75566071D01*
X167319047Y-75566071D02*
X167342856Y-75613690D01*
X167342856Y-75613690D02*
X167366666Y-75637500D01*
X167366666Y-75637500D02*
X167414285Y-75661309D01*
X167414285Y-75661309D02*
X167509523Y-75661309D01*
X167509523Y-75661309D02*
X167557142Y-75637500D01*
X167557142Y-75637500D02*
X167580951Y-75613690D01*
X167580951Y-75613690D02*
X167604761Y-75566071D01*
X167604761Y-75566071D02*
X167604761Y-75447023D01*
X167604761Y-75447023D02*
X167580951Y-75399404D01*
X167580951Y-75399404D02*
X167557142Y-75375595D01*
X167557142Y-75375595D02*
X167509523Y-75351785D01*
X167509523Y-75351785D02*
X167414285Y-75351785D01*
X167414285Y-75351785D02*
X167366666Y-75375595D01*
X167366666Y-75375595D02*
X167342856Y-75399404D01*
X167342856Y-75399404D02*
X167319047Y-75447023D01*
X161561904Y-71678014D02*
X161561904Y-71916109D01*
X161395238Y-71416109D02*
X161561904Y-71678014D01*
X161561904Y-71678014D02*
X161728571Y-71416109D01*
X162157142Y-71916109D02*
X161871428Y-71916109D01*
X162014285Y-71916109D02*
X162014285Y-71416109D01*
X162014285Y-71416109D02*
X161966666Y-71487538D01*
X161966666Y-71487538D02*
X161919047Y-71535157D01*
X161919047Y-71535157D02*
X161871428Y-71558966D01*
X138633334Y-94954204D02*
X138466667Y-94954204D01*
X138466667Y-95216109D02*
X138466667Y-94716109D01*
X138466667Y-94716109D02*
X138704762Y-94716109D01*
X139157143Y-95216109D02*
X138871429Y-95216109D01*
X139014286Y-95216109D02*
X139014286Y-94716109D01*
X139014286Y-94716109D02*
X138966667Y-94787538D01*
X138966667Y-94787538D02*
X138919048Y-94835157D01*
X138919048Y-94835157D02*
X138871429Y-94858966D01*
X150080951Y-71566109D02*
X150080951Y-71066109D01*
X150080951Y-71066109D02*
X150199999Y-71066109D01*
X150199999Y-71066109D02*
X150271427Y-71089919D01*
X150271427Y-71089919D02*
X150319046Y-71137538D01*
X150319046Y-71137538D02*
X150342856Y-71185157D01*
X150342856Y-71185157D02*
X150366665Y-71280395D01*
X150366665Y-71280395D02*
X150366665Y-71351823D01*
X150366665Y-71351823D02*
X150342856Y-71447061D01*
X150342856Y-71447061D02*
X150319046Y-71494680D01*
X150319046Y-71494680D02*
X150271427Y-71542300D01*
X150271427Y-71542300D02*
X150199999Y-71566109D01*
X150199999Y-71566109D02*
X150080951Y-71566109D01*
X150795237Y-71232776D02*
X150795237Y-71566109D01*
X150676189Y-71042300D02*
X150557142Y-71399442D01*
X150557142Y-71399442D02*
X150866665Y-71399442D01*
X155628570Y-71418490D02*
X155604761Y-71442300D01*
X155604761Y-71442300D02*
X155533332Y-71466109D01*
X155533332Y-71466109D02*
X155485713Y-71466109D01*
X155485713Y-71466109D02*
X155414285Y-71442300D01*
X155414285Y-71442300D02*
X155366666Y-71394680D01*
X155366666Y-71394680D02*
X155342856Y-71347061D01*
X155342856Y-71347061D02*
X155319047Y-71251823D01*
X155319047Y-71251823D02*
X155319047Y-71180395D01*
X155319047Y-71180395D02*
X155342856Y-71085157D01*
X155342856Y-71085157D02*
X155366666Y-71037538D01*
X155366666Y-71037538D02*
X155414285Y-70989919D01*
X155414285Y-70989919D02*
X155485713Y-70966109D01*
X155485713Y-70966109D02*
X155533332Y-70966109D01*
X155533332Y-70966109D02*
X155604761Y-70989919D01*
X155604761Y-70989919D02*
X155628570Y-71013728D01*
X156104761Y-71466109D02*
X155819047Y-71466109D01*
X155961904Y-71466109D02*
X155961904Y-70966109D01*
X155961904Y-70966109D02*
X155914285Y-71037538D01*
X155914285Y-71037538D02*
X155866666Y-71085157D01*
X155866666Y-71085157D02*
X155819047Y-71108966D01*
X156557141Y-70966109D02*
X156319046Y-70966109D01*
X156319046Y-70966109D02*
X156295237Y-71204204D01*
X156295237Y-71204204D02*
X156319046Y-71180395D01*
X156319046Y-71180395D02*
X156366665Y-71156585D01*
X156366665Y-71156585D02*
X156485713Y-71156585D01*
X156485713Y-71156585D02*
X156533332Y-71180395D01*
X156533332Y-71180395D02*
X156557141Y-71204204D01*
X156557141Y-71204204D02*
X156580951Y-71251823D01*
X156580951Y-71251823D02*
X156580951Y-71370871D01*
X156580951Y-71370871D02*
X156557141Y-71418490D01*
X156557141Y-71418490D02*
X156533332Y-71442300D01*
X156533332Y-71442300D02*
X156485713Y-71466109D01*
X156485713Y-71466109D02*
X156366665Y-71466109D01*
X156366665Y-71466109D02*
X156319046Y-71442300D01*
X156319046Y-71442300D02*
X156295237Y-71418490D01*
X143791046Y-88419109D02*
X143791046Y-88823871D01*
X143791046Y-88823871D02*
X143814856Y-88871490D01*
X143814856Y-88871490D02*
X143838665Y-88895300D01*
X143838665Y-88895300D02*
X143886284Y-88919109D01*
X143886284Y-88919109D02*
X143981522Y-88919109D01*
X143981522Y-88919109D02*
X144029141Y-88895300D01*
X144029141Y-88895300D02*
X144052951Y-88871490D01*
X144052951Y-88871490D02*
X144076760Y-88823871D01*
X144076760Y-88823871D02*
X144076760Y-88419109D01*
X144291047Y-88466728D02*
X144314856Y-88442919D01*
X144314856Y-88442919D02*
X144362475Y-88419109D01*
X144362475Y-88419109D02*
X144481523Y-88419109D01*
X144481523Y-88419109D02*
X144529142Y-88442919D01*
X144529142Y-88442919D02*
X144552951Y-88466728D01*
X144552951Y-88466728D02*
X144576761Y-88514347D01*
X144576761Y-88514347D02*
X144576761Y-88561966D01*
X144576761Y-88561966D02*
X144552951Y-88633395D01*
X144552951Y-88633395D02*
X144267237Y-88919109D01*
X144267237Y-88919109D02*
X144576761Y-88919109D01*
X166823570Y-88316109D02*
X166656904Y-88078014D01*
X166537856Y-88316109D02*
X166537856Y-87816109D01*
X166537856Y-87816109D02*
X166728332Y-87816109D01*
X166728332Y-87816109D02*
X166775951Y-87839919D01*
X166775951Y-87839919D02*
X166799761Y-87863728D01*
X166799761Y-87863728D02*
X166823570Y-87911347D01*
X166823570Y-87911347D02*
X166823570Y-87982776D01*
X166823570Y-87982776D02*
X166799761Y-88030395D01*
X166799761Y-88030395D02*
X166775951Y-88054204D01*
X166775951Y-88054204D02*
X166728332Y-88078014D01*
X166728332Y-88078014D02*
X166537856Y-88078014D01*
X167299761Y-88316109D02*
X167014047Y-88316109D01*
X167156904Y-88316109D02*
X167156904Y-87816109D01*
X167156904Y-87816109D02*
X167109285Y-87887538D01*
X167109285Y-87887538D02*
X167061666Y-87935157D01*
X167061666Y-87935157D02*
X167014047Y-87958966D01*
X167775951Y-88316109D02*
X167490237Y-88316109D01*
X167633094Y-88316109D02*
X167633094Y-87816109D01*
X167633094Y-87816109D02*
X167585475Y-87887538D01*
X167585475Y-87887538D02*
X167537856Y-87935157D01*
X167537856Y-87935157D02*
X167490237Y-87958966D01*
X149116665Y-76778490D02*
X149092856Y-76802300D01*
X149092856Y-76802300D02*
X149021427Y-76826109D01*
X149021427Y-76826109D02*
X148973808Y-76826109D01*
X148973808Y-76826109D02*
X148902380Y-76802300D01*
X148902380Y-76802300D02*
X148854761Y-76754680D01*
X148854761Y-76754680D02*
X148830951Y-76707061D01*
X148830951Y-76707061D02*
X148807142Y-76611823D01*
X148807142Y-76611823D02*
X148807142Y-76540395D01*
X148807142Y-76540395D02*
X148830951Y-76445157D01*
X148830951Y-76445157D02*
X148854761Y-76397538D01*
X148854761Y-76397538D02*
X148902380Y-76349919D01*
X148902380Y-76349919D02*
X148973808Y-76326109D01*
X148973808Y-76326109D02*
X149021427Y-76326109D01*
X149021427Y-76326109D02*
X149092856Y-76349919D01*
X149092856Y-76349919D02*
X149116665Y-76373728D01*
X149283332Y-76326109D02*
X149616665Y-76326109D01*
X149616665Y-76326109D02*
X149402380Y-76826109D01*
D11*
X161439410Y-87544819D02*
X161439410Y-88354342D01*
X161439410Y-88354342D02*
X161487029Y-88449580D01*
X161487029Y-88449580D02*
X161534648Y-88497200D01*
X161534648Y-88497200D02*
X161629886Y-88544819D01*
X161629886Y-88544819D02*
X161820362Y-88544819D01*
X161820362Y-88544819D02*
X161915600Y-88497200D01*
X161915600Y-88497200D02*
X161963219Y-88449580D01*
X161963219Y-88449580D02*
X162010838Y-88354342D01*
X162010838Y-88354342D02*
X162010838Y-87544819D01*
X163010838Y-88544819D02*
X162439410Y-88544819D01*
X162725124Y-88544819D02*
X162725124Y-87544819D01*
X162725124Y-87544819D02*
X162629886Y-87687676D01*
X162629886Y-87687676D02*
X162534648Y-87782914D01*
X162534648Y-87782914D02*
X162439410Y-87830533D01*
X162466666Y-90554819D02*
X162466666Y-91269104D01*
X162466666Y-91269104D02*
X162419047Y-91411961D01*
X162419047Y-91411961D02*
X162323809Y-91507200D01*
X162323809Y-91507200D02*
X162180952Y-91554819D01*
X162180952Y-91554819D02*
X162085714Y-91554819D01*
X162895238Y-90650057D02*
X162942857Y-90602438D01*
X162942857Y-90602438D02*
X163038095Y-90554819D01*
X163038095Y-90554819D02*
X163276190Y-90554819D01*
X163276190Y-90554819D02*
X163371428Y-90602438D01*
X163371428Y-90602438D02*
X163419047Y-90650057D01*
X163419047Y-90650057D02*
X163466666Y-90745295D01*
X163466666Y-90745295D02*
X163466666Y-90840533D01*
X163466666Y-90840533D02*
X163419047Y-90983390D01*
X163419047Y-90983390D02*
X162847619Y-91554819D01*
X162847619Y-91554819D02*
X163466666Y-91554819D01*
X152216666Y-88168033D02*
X152616666Y-88168033D01*
X152416666Y-88868033D02*
X152416666Y-88168033D01*
X152849999Y-88868033D02*
X152849999Y-88168033D01*
X152849999Y-88168033D02*
X153116666Y-88168033D01*
X153116666Y-88168033D02*
X153183333Y-88201366D01*
X153183333Y-88201366D02*
X153216666Y-88234700D01*
X153216666Y-88234700D02*
X153249999Y-88301366D01*
X153249999Y-88301366D02*
X153249999Y-88401366D01*
X153249999Y-88401366D02*
X153216666Y-88468033D01*
X153216666Y-88468033D02*
X153183333Y-88501366D01*
X153183333Y-88501366D02*
X153116666Y-88534700D01*
X153116666Y-88534700D02*
X152849999Y-88534700D01*
X153483333Y-88168033D02*
X153949999Y-88168033D01*
X153949999Y-88168033D02*
X153649999Y-88868033D01*
X164216666Y-93516033D02*
X164616666Y-93516033D01*
X164416666Y-94216033D02*
X164416666Y-93516033D01*
X164849999Y-94216033D02*
X164849999Y-93516033D01*
X164849999Y-93516033D02*
X165116666Y-93516033D01*
X165116666Y-93516033D02*
X165183333Y-93549366D01*
X165183333Y-93549366D02*
X165216666Y-93582700D01*
X165216666Y-93582700D02*
X165249999Y-93649366D01*
X165249999Y-93649366D02*
X165249999Y-93749366D01*
X165249999Y-93749366D02*
X165216666Y-93816033D01*
X165216666Y-93816033D02*
X165183333Y-93849366D01*
X165183333Y-93849366D02*
X165116666Y-93882700D01*
X165116666Y-93882700D02*
X164849999Y-93882700D01*
X165483333Y-93516033D02*
X165916666Y-93516033D01*
X165916666Y-93516033D02*
X165683333Y-93782700D01*
X165683333Y-93782700D02*
X165783333Y-93782700D01*
X165783333Y-93782700D02*
X165849999Y-93816033D01*
X165849999Y-93816033D02*
X165883333Y-93849366D01*
X165883333Y-93849366D02*
X165916666Y-93916033D01*
X165916666Y-93916033D02*
X165916666Y-94082700D01*
X165916666Y-94082700D02*
X165883333Y-94149366D01*
X165883333Y-94149366D02*
X165849999Y-94182700D01*
X165849999Y-94182700D02*
X165783333Y-94216033D01*
X165783333Y-94216033D02*
X165583333Y-94216033D01*
X165583333Y-94216033D02*
X165516666Y-94182700D01*
X165516666Y-94182700D02*
X165483333Y-94149366D01*
X164916666Y-71016033D02*
X165316666Y-71016033D01*
X165116666Y-71716033D02*
X165116666Y-71016033D01*
X165549999Y-71716033D02*
X165549999Y-71016033D01*
X165549999Y-71016033D02*
X165816666Y-71016033D01*
X165816666Y-71016033D02*
X165883333Y-71049366D01*
X165883333Y-71049366D02*
X165916666Y-71082700D01*
X165916666Y-71082700D02*
X165949999Y-71149366D01*
X165949999Y-71149366D02*
X165949999Y-71249366D01*
X165949999Y-71249366D02*
X165916666Y-71316033D01*
X165916666Y-71316033D02*
X165883333Y-71349366D01*
X165883333Y-71349366D02*
X165816666Y-71382700D01*
X165816666Y-71382700D02*
X165549999Y-71382700D01*
X166549999Y-71016033D02*
X166416666Y-71016033D01*
X166416666Y-71016033D02*
X166349999Y-71049366D01*
X166349999Y-71049366D02*
X166316666Y-71082700D01*
X166316666Y-71082700D02*
X166249999Y-71182700D01*
X166249999Y-71182700D02*
X166216666Y-71316033D01*
X166216666Y-71316033D02*
X166216666Y-71582700D01*
X166216666Y-71582700D02*
X166249999Y-71649366D01*
X166249999Y-71649366D02*
X166283333Y-71682700D01*
X166283333Y-71682700D02*
X166349999Y-71716033D01*
X166349999Y-71716033D02*
X166483333Y-71716033D01*
X166483333Y-71716033D02*
X166549999Y-71682700D01*
X166549999Y-71682700D02*
X166583333Y-71649366D01*
X166583333Y-71649366D02*
X166616666Y-71582700D01*
X166616666Y-71582700D02*
X166616666Y-71416033D01*
X166616666Y-71416033D02*
X166583333Y-71349366D01*
X166583333Y-71349366D02*
X166549999Y-71316033D01*
X166549999Y-71316033D02*
X166483333Y-71282700D01*
X166483333Y-71282700D02*
X166349999Y-71282700D01*
X166349999Y-71282700D02*
X166283333Y-71316033D01*
X166283333Y-71316033D02*
X166249999Y-71349366D01*
X166249999Y-71349366D02*
X166216666Y-71416033D01*
X138316666Y-77016033D02*
X138716666Y-77016033D01*
X138516666Y-77716033D02*
X138516666Y-77016033D01*
X138949999Y-77716033D02*
X138949999Y-77016033D01*
X138949999Y-77016033D02*
X139216666Y-77016033D01*
X139216666Y-77016033D02*
X139283333Y-77049366D01*
X139283333Y-77049366D02*
X139316666Y-77082700D01*
X139316666Y-77082700D02*
X139349999Y-77149366D01*
X139349999Y-77149366D02*
X139349999Y-77249366D01*
X139349999Y-77249366D02*
X139316666Y-77316033D01*
X139316666Y-77316033D02*
X139283333Y-77349366D01*
X139283333Y-77349366D02*
X139216666Y-77382700D01*
X139216666Y-77382700D02*
X138949999Y-77382700D01*
X139983333Y-77016033D02*
X139649999Y-77016033D01*
X139649999Y-77016033D02*
X139616666Y-77349366D01*
X139616666Y-77349366D02*
X139649999Y-77316033D01*
X139649999Y-77316033D02*
X139716666Y-77282700D01*
X139716666Y-77282700D02*
X139883333Y-77282700D01*
X139883333Y-77282700D02*
X139949999Y-77316033D01*
X139949999Y-77316033D02*
X139983333Y-77349366D01*
X139983333Y-77349366D02*
X140016666Y-77416033D01*
X140016666Y-77416033D02*
X140016666Y-77582700D01*
X140016666Y-77582700D02*
X139983333Y-77649366D01*
X139983333Y-77649366D02*
X139949999Y-77682700D01*
X139949999Y-77682700D02*
X139883333Y-77716033D01*
X139883333Y-77716033D02*
X139716666Y-77716033D01*
X139716666Y-77716033D02*
X139649999Y-77682700D01*
X139649999Y-77682700D02*
X139616666Y-77649366D01*
D10*
X141633334Y-72302300D02*
X141704762Y-72326109D01*
X141704762Y-72326109D02*
X141823810Y-72326109D01*
X141823810Y-72326109D02*
X141871429Y-72302300D01*
X141871429Y-72302300D02*
X141895238Y-72278490D01*
X141895238Y-72278490D02*
X141919048Y-72230871D01*
X141919048Y-72230871D02*
X141919048Y-72183252D01*
X141919048Y-72183252D02*
X141895238Y-72135633D01*
X141895238Y-72135633D02*
X141871429Y-72111823D01*
X141871429Y-72111823D02*
X141823810Y-72088014D01*
X141823810Y-72088014D02*
X141728572Y-72064204D01*
X141728572Y-72064204D02*
X141680953Y-72040395D01*
X141680953Y-72040395D02*
X141657143Y-72016585D01*
X141657143Y-72016585D02*
X141633334Y-71968966D01*
X141633334Y-71968966D02*
X141633334Y-71921347D01*
X141633334Y-71921347D02*
X141657143Y-71873728D01*
X141657143Y-71873728D02*
X141680953Y-71849919D01*
X141680953Y-71849919D02*
X141728572Y-71826109D01*
X141728572Y-71826109D02*
X141847619Y-71826109D01*
X141847619Y-71826109D02*
X141919048Y-71849919D01*
X142085714Y-71826109D02*
X142204762Y-72326109D01*
X142204762Y-72326109D02*
X142300000Y-71968966D01*
X142300000Y-71968966D02*
X142395238Y-72326109D01*
X142395238Y-72326109D02*
X142514286Y-71826109D01*
X142680953Y-71873728D02*
X142704762Y-71849919D01*
X142704762Y-71849919D02*
X142752381Y-71826109D01*
X142752381Y-71826109D02*
X142871429Y-71826109D01*
X142871429Y-71826109D02*
X142919048Y-71849919D01*
X142919048Y-71849919D02*
X142942857Y-71873728D01*
X142942857Y-71873728D02*
X142966667Y-71921347D01*
X142966667Y-71921347D02*
X142966667Y-71968966D01*
X142966667Y-71968966D02*
X142942857Y-72040395D01*
X142942857Y-72040395D02*
X142657143Y-72326109D01*
X142657143Y-72326109D02*
X142966667Y-72326109D01*
X143323571Y-82626109D02*
X143156905Y-82388014D01*
X143037857Y-82626109D02*
X143037857Y-82126109D01*
X143037857Y-82126109D02*
X143228333Y-82126109D01*
X143228333Y-82126109D02*
X143275952Y-82149919D01*
X143275952Y-82149919D02*
X143299762Y-82173728D01*
X143299762Y-82173728D02*
X143323571Y-82221347D01*
X143323571Y-82221347D02*
X143323571Y-82292776D01*
X143323571Y-82292776D02*
X143299762Y-82340395D01*
X143299762Y-82340395D02*
X143275952Y-82364204D01*
X143275952Y-82364204D02*
X143228333Y-82388014D01*
X143228333Y-82388014D02*
X143037857Y-82388014D01*
X143799762Y-82626109D02*
X143514048Y-82626109D01*
X143656905Y-82626109D02*
X143656905Y-82126109D01*
X143656905Y-82126109D02*
X143609286Y-82197538D01*
X143609286Y-82197538D02*
X143561667Y-82245157D01*
X143561667Y-82245157D02*
X143514048Y-82268966D01*
X144109285Y-82126109D02*
X144156904Y-82126109D01*
X144156904Y-82126109D02*
X144204523Y-82149919D01*
X144204523Y-82149919D02*
X144228333Y-82173728D01*
X144228333Y-82173728D02*
X144252142Y-82221347D01*
X144252142Y-82221347D02*
X144275952Y-82316585D01*
X144275952Y-82316585D02*
X144275952Y-82435633D01*
X144275952Y-82435633D02*
X144252142Y-82530871D01*
X144252142Y-82530871D02*
X144228333Y-82578490D01*
X144228333Y-82578490D02*
X144204523Y-82602300D01*
X144204523Y-82602300D02*
X144156904Y-82626109D01*
X144156904Y-82626109D02*
X144109285Y-82626109D01*
X144109285Y-82626109D02*
X144061666Y-82602300D01*
X144061666Y-82602300D02*
X144037857Y-82578490D01*
X144037857Y-82578490D02*
X144014047Y-82530871D01*
X144014047Y-82530871D02*
X143990238Y-82435633D01*
X143990238Y-82435633D02*
X143990238Y-82316585D01*
X143990238Y-82316585D02*
X144014047Y-82221347D01*
X144014047Y-82221347D02*
X144037857Y-82173728D01*
X144037857Y-82173728D02*
X144061666Y-82149919D01*
X144061666Y-82149919D02*
X144109285Y-82126109D01*
D11*
X147383333Y-88168033D02*
X147783333Y-88168033D01*
X147583333Y-88868033D02*
X147583333Y-88168033D01*
X148016666Y-88868033D02*
X148016666Y-88168033D01*
X148016666Y-88168033D02*
X148283333Y-88168033D01*
X148283333Y-88168033D02*
X148350000Y-88201366D01*
X148350000Y-88201366D02*
X148383333Y-88234700D01*
X148383333Y-88234700D02*
X148416666Y-88301366D01*
X148416666Y-88301366D02*
X148416666Y-88401366D01*
X148416666Y-88401366D02*
X148383333Y-88468033D01*
X148383333Y-88468033D02*
X148350000Y-88501366D01*
X148350000Y-88501366D02*
X148283333Y-88534700D01*
X148283333Y-88534700D02*
X148016666Y-88534700D01*
X149083333Y-88868033D02*
X148683333Y-88868033D01*
X148883333Y-88868033D02*
X148883333Y-88168033D01*
X148883333Y-88168033D02*
X148816666Y-88268033D01*
X148816666Y-88268033D02*
X148750000Y-88334700D01*
X148750000Y-88334700D02*
X148683333Y-88368033D01*
X149516667Y-88168033D02*
X149583333Y-88168033D01*
X149583333Y-88168033D02*
X149650000Y-88201366D01*
X149650000Y-88201366D02*
X149683333Y-88234700D01*
X149683333Y-88234700D02*
X149716667Y-88301366D01*
X149716667Y-88301366D02*
X149750000Y-88434700D01*
X149750000Y-88434700D02*
X149750000Y-88601366D01*
X149750000Y-88601366D02*
X149716667Y-88734700D01*
X149716667Y-88734700D02*
X149683333Y-88801366D01*
X149683333Y-88801366D02*
X149650000Y-88834700D01*
X149650000Y-88834700D02*
X149583333Y-88868033D01*
X149583333Y-88868033D02*
X149516667Y-88868033D01*
X149516667Y-88868033D02*
X149450000Y-88834700D01*
X149450000Y-88834700D02*
X149416667Y-88801366D01*
X149416667Y-88801366D02*
X149383333Y-88734700D01*
X149383333Y-88734700D02*
X149350000Y-88601366D01*
X149350000Y-88601366D02*
X149350000Y-88434700D01*
X149350000Y-88434700D02*
X149383333Y-88301366D01*
X149383333Y-88301366D02*
X149416667Y-88234700D01*
X149416667Y-88234700D02*
X149450000Y-88201366D01*
X149450000Y-88201366D02*
X149516667Y-88168033D01*
D10*
X166926108Y-82706666D02*
X167283251Y-82706666D01*
X167283251Y-82706666D02*
X167354679Y-82730475D01*
X167354679Y-82730475D02*
X167402299Y-82778094D01*
X167402299Y-82778094D02*
X167426108Y-82849523D01*
X167426108Y-82849523D02*
X167426108Y-82897142D01*
X167426108Y-82468571D02*
X166926108Y-82468571D01*
X166926108Y-82468571D02*
X166926108Y-82278095D01*
X166926108Y-82278095D02*
X166949918Y-82230476D01*
X166949918Y-82230476D02*
X166973727Y-82206666D01*
X166973727Y-82206666D02*
X167021346Y-82182857D01*
X167021346Y-82182857D02*
X167092775Y-82182857D01*
X167092775Y-82182857D02*
X167140394Y-82206666D01*
X167140394Y-82206666D02*
X167164203Y-82230476D01*
X167164203Y-82230476D02*
X167188013Y-82278095D01*
X167188013Y-82278095D02*
X167188013Y-82468571D01*
X167426108Y-81706666D02*
X167426108Y-81992380D01*
X167426108Y-81849523D02*
X166926108Y-81849523D01*
X166926108Y-81849523D02*
X166997537Y-81897142D01*
X166997537Y-81897142D02*
X167045156Y-81944761D01*
X167045156Y-81944761D02*
X167068965Y-81992380D01*
X167878489Y-87011428D02*
X167902299Y-87035237D01*
X167902299Y-87035237D02*
X167926108Y-87106666D01*
X167926108Y-87106666D02*
X167926108Y-87154285D01*
X167926108Y-87154285D02*
X167902299Y-87225713D01*
X167902299Y-87225713D02*
X167854679Y-87273332D01*
X167854679Y-87273332D02*
X167807060Y-87297142D01*
X167807060Y-87297142D02*
X167711822Y-87320951D01*
X167711822Y-87320951D02*
X167640394Y-87320951D01*
X167640394Y-87320951D02*
X167545156Y-87297142D01*
X167545156Y-87297142D02*
X167497537Y-87273332D01*
X167497537Y-87273332D02*
X167449918Y-87225713D01*
X167449918Y-87225713D02*
X167426108Y-87154285D01*
X167426108Y-87154285D02*
X167426108Y-87106666D01*
X167426108Y-87106666D02*
X167449918Y-87035237D01*
X167449918Y-87035237D02*
X167473727Y-87011428D01*
X167926108Y-86535237D02*
X167926108Y-86820951D01*
X167926108Y-86678094D02*
X167426108Y-86678094D01*
X167426108Y-86678094D02*
X167497537Y-86725713D01*
X167497537Y-86725713D02*
X167545156Y-86773332D01*
X167545156Y-86773332D02*
X167568965Y-86820951D01*
X167473727Y-86344761D02*
X167449918Y-86320952D01*
X167449918Y-86320952D02*
X167426108Y-86273333D01*
X167426108Y-86273333D02*
X167426108Y-86154285D01*
X167426108Y-86154285D02*
X167449918Y-86106666D01*
X167449918Y-86106666D02*
X167473727Y-86082857D01*
X167473727Y-86082857D02*
X167521346Y-86059047D01*
X167521346Y-86059047D02*
X167568965Y-86059047D01*
X167568965Y-86059047D02*
X167640394Y-86082857D01*
X167640394Y-86082857D02*
X167926108Y-86368571D01*
X167926108Y-86368571D02*
X167926108Y-86059047D01*
X143526109Y-91583333D02*
X143288014Y-91749999D01*
X143526109Y-91869047D02*
X143026109Y-91869047D01*
X143026109Y-91869047D02*
X143026109Y-91678571D01*
X143026109Y-91678571D02*
X143049919Y-91630952D01*
X143049919Y-91630952D02*
X143073728Y-91607142D01*
X143073728Y-91607142D02*
X143121347Y-91583333D01*
X143121347Y-91583333D02*
X143192776Y-91583333D01*
X143192776Y-91583333D02*
X143240395Y-91607142D01*
X143240395Y-91607142D02*
X143264204Y-91630952D01*
X143264204Y-91630952D02*
X143288014Y-91678571D01*
X143288014Y-91678571D02*
X143288014Y-91869047D01*
X143073728Y-91392856D02*
X143049919Y-91369047D01*
X143049919Y-91369047D02*
X143026109Y-91321428D01*
X143026109Y-91321428D02*
X143026109Y-91202380D01*
X143026109Y-91202380D02*
X143049919Y-91154761D01*
X143049919Y-91154761D02*
X143073728Y-91130952D01*
X143073728Y-91130952D02*
X143121347Y-91107142D01*
X143121347Y-91107142D02*
X143168966Y-91107142D01*
X143168966Y-91107142D02*
X143240395Y-91130952D01*
X143240395Y-91130952D02*
X143526109Y-91416666D01*
X143526109Y-91416666D02*
X143526109Y-91107142D01*
X143526109Y-93121428D02*
X143288014Y-93288094D01*
X143526109Y-93407142D02*
X143026109Y-93407142D01*
X143026109Y-93407142D02*
X143026109Y-93216666D01*
X143026109Y-93216666D02*
X143049919Y-93169047D01*
X143049919Y-93169047D02*
X143073728Y-93145237D01*
X143073728Y-93145237D02*
X143121347Y-93121428D01*
X143121347Y-93121428D02*
X143192776Y-93121428D01*
X143192776Y-93121428D02*
X143240395Y-93145237D01*
X143240395Y-93145237D02*
X143264204Y-93169047D01*
X143264204Y-93169047D02*
X143288014Y-93216666D01*
X143288014Y-93216666D02*
X143288014Y-93407142D01*
X143526109Y-92645237D02*
X143526109Y-92930951D01*
X143526109Y-92788094D02*
X143026109Y-92788094D01*
X143026109Y-92788094D02*
X143097538Y-92835713D01*
X143097538Y-92835713D02*
X143145157Y-92883332D01*
X143145157Y-92883332D02*
X143168966Y-92930951D01*
X143073728Y-92454761D02*
X143049919Y-92430952D01*
X143049919Y-92430952D02*
X143026109Y-92383333D01*
X143026109Y-92383333D02*
X143026109Y-92264285D01*
X143026109Y-92264285D02*
X143049919Y-92216666D01*
X143049919Y-92216666D02*
X143073728Y-92192857D01*
X143073728Y-92192857D02*
X143121347Y-92169047D01*
X143121347Y-92169047D02*
X143168966Y-92169047D01*
X143168966Y-92169047D02*
X143240395Y-92192857D01*
X143240395Y-92192857D02*
X143526109Y-92478571D01*
X143526109Y-92478571D02*
X143526109Y-92169047D01*
X145716665Y-81866109D02*
X145549999Y-81628014D01*
X145430951Y-81866109D02*
X145430951Y-81366109D01*
X145430951Y-81366109D02*
X145621427Y-81366109D01*
X145621427Y-81366109D02*
X145669046Y-81389919D01*
X145669046Y-81389919D02*
X145692856Y-81413728D01*
X145692856Y-81413728D02*
X145716665Y-81461347D01*
X145716665Y-81461347D02*
X145716665Y-81532776D01*
X145716665Y-81532776D02*
X145692856Y-81580395D01*
X145692856Y-81580395D02*
X145669046Y-81604204D01*
X145669046Y-81604204D02*
X145621427Y-81628014D01*
X145621427Y-81628014D02*
X145430951Y-81628014D01*
X145954761Y-81866109D02*
X146049999Y-81866109D01*
X146049999Y-81866109D02*
X146097618Y-81842300D01*
X146097618Y-81842300D02*
X146121427Y-81818490D01*
X146121427Y-81818490D02*
X146169046Y-81747061D01*
X146169046Y-81747061D02*
X146192856Y-81651823D01*
X146192856Y-81651823D02*
X146192856Y-81461347D01*
X146192856Y-81461347D02*
X146169046Y-81413728D01*
X146169046Y-81413728D02*
X146145237Y-81389919D01*
X146145237Y-81389919D02*
X146097618Y-81366109D01*
X146097618Y-81366109D02*
X146002380Y-81366109D01*
X146002380Y-81366109D02*
X145954761Y-81389919D01*
X145954761Y-81389919D02*
X145930951Y-81413728D01*
X145930951Y-81413728D02*
X145907142Y-81461347D01*
X145907142Y-81461347D02*
X145907142Y-81580395D01*
X145907142Y-81580395D02*
X145930951Y-81628014D01*
X145930951Y-81628014D02*
X145954761Y-81651823D01*
X145954761Y-81651823D02*
X146002380Y-81675633D01*
X146002380Y-81675633D02*
X146097618Y-81675633D01*
X146097618Y-81675633D02*
X146145237Y-81651823D01*
X146145237Y-81651823D02*
X146169046Y-81628014D01*
X146169046Y-81628014D02*
X146192856Y-81580395D01*
D11*
X149916666Y-88168033D02*
X150316666Y-88168033D01*
X150116666Y-88868033D02*
X150116666Y-88168033D01*
X150549999Y-88868033D02*
X150549999Y-88168033D01*
X150549999Y-88168033D02*
X150816666Y-88168033D01*
X150816666Y-88168033D02*
X150883333Y-88201366D01*
X150883333Y-88201366D02*
X150916666Y-88234700D01*
X150916666Y-88234700D02*
X150949999Y-88301366D01*
X150949999Y-88301366D02*
X150949999Y-88401366D01*
X150949999Y-88401366D02*
X150916666Y-88468033D01*
X150916666Y-88468033D02*
X150883333Y-88501366D01*
X150883333Y-88501366D02*
X150816666Y-88534700D01*
X150816666Y-88534700D02*
X150549999Y-88534700D01*
X151216666Y-88234700D02*
X151249999Y-88201366D01*
X151249999Y-88201366D02*
X151316666Y-88168033D01*
X151316666Y-88168033D02*
X151483333Y-88168033D01*
X151483333Y-88168033D02*
X151549999Y-88201366D01*
X151549999Y-88201366D02*
X151583333Y-88234700D01*
X151583333Y-88234700D02*
X151616666Y-88301366D01*
X151616666Y-88301366D02*
X151616666Y-88368033D01*
X151616666Y-88368033D02*
X151583333Y-88468033D01*
X151583333Y-88468033D02*
X151183333Y-88868033D01*
X151183333Y-88868033D02*
X151616666Y-88868033D01*
D10*
X141933334Y-75102300D02*
X142004762Y-75126109D01*
X142004762Y-75126109D02*
X142123810Y-75126109D01*
X142123810Y-75126109D02*
X142171429Y-75102300D01*
X142171429Y-75102300D02*
X142195238Y-75078490D01*
X142195238Y-75078490D02*
X142219048Y-75030871D01*
X142219048Y-75030871D02*
X142219048Y-74983252D01*
X142219048Y-74983252D02*
X142195238Y-74935633D01*
X142195238Y-74935633D02*
X142171429Y-74911823D01*
X142171429Y-74911823D02*
X142123810Y-74888014D01*
X142123810Y-74888014D02*
X142028572Y-74864204D01*
X142028572Y-74864204D02*
X141980953Y-74840395D01*
X141980953Y-74840395D02*
X141957143Y-74816585D01*
X141957143Y-74816585D02*
X141933334Y-74768966D01*
X141933334Y-74768966D02*
X141933334Y-74721347D01*
X141933334Y-74721347D02*
X141957143Y-74673728D01*
X141957143Y-74673728D02*
X141980953Y-74649919D01*
X141980953Y-74649919D02*
X142028572Y-74626109D01*
X142028572Y-74626109D02*
X142147619Y-74626109D01*
X142147619Y-74626109D02*
X142219048Y-74649919D01*
X142385714Y-74626109D02*
X142504762Y-75126109D01*
X142504762Y-75126109D02*
X142600000Y-74768966D01*
X142600000Y-74768966D02*
X142695238Y-75126109D01*
X142695238Y-75126109D02*
X142814286Y-74626109D01*
X143266667Y-75126109D02*
X142980953Y-75126109D01*
X143123810Y-75126109D02*
X143123810Y-74626109D01*
X143123810Y-74626109D02*
X143076191Y-74697538D01*
X143076191Y-74697538D02*
X143028572Y-74745157D01*
X143028572Y-74745157D02*
X142980953Y-74768966D01*
X153380951Y-71566109D02*
X153380951Y-71066109D01*
X153380951Y-71066109D02*
X153499999Y-71066109D01*
X153499999Y-71066109D02*
X153571427Y-71089919D01*
X153571427Y-71089919D02*
X153619046Y-71137538D01*
X153619046Y-71137538D02*
X153642856Y-71185157D01*
X153642856Y-71185157D02*
X153666665Y-71280395D01*
X153666665Y-71280395D02*
X153666665Y-71351823D01*
X153666665Y-71351823D02*
X153642856Y-71447061D01*
X153642856Y-71447061D02*
X153619046Y-71494680D01*
X153619046Y-71494680D02*
X153571427Y-71542300D01*
X153571427Y-71542300D02*
X153499999Y-71566109D01*
X153499999Y-71566109D02*
X153380951Y-71566109D01*
X154119046Y-71066109D02*
X153880951Y-71066109D01*
X153880951Y-71066109D02*
X153857142Y-71304204D01*
X153857142Y-71304204D02*
X153880951Y-71280395D01*
X153880951Y-71280395D02*
X153928570Y-71256585D01*
X153928570Y-71256585D02*
X154047618Y-71256585D01*
X154047618Y-71256585D02*
X154095237Y-71280395D01*
X154095237Y-71280395D02*
X154119046Y-71304204D01*
X154119046Y-71304204D02*
X154142856Y-71351823D01*
X154142856Y-71351823D02*
X154142856Y-71470871D01*
X154142856Y-71470871D02*
X154119046Y-71518490D01*
X154119046Y-71518490D02*
X154095237Y-71542300D01*
X154095237Y-71542300D02*
X154047618Y-71566109D01*
X154047618Y-71566109D02*
X153928570Y-71566109D01*
X153928570Y-71566109D02*
X153880951Y-71542300D01*
X153880951Y-71542300D02*
X153857142Y-71518490D01*
X142161666Y-71636109D02*
X141995000Y-71398014D01*
X141875952Y-71636109D02*
X141875952Y-71136109D01*
X141875952Y-71136109D02*
X142066428Y-71136109D01*
X142066428Y-71136109D02*
X142114047Y-71159919D01*
X142114047Y-71159919D02*
X142137857Y-71183728D01*
X142137857Y-71183728D02*
X142161666Y-71231347D01*
X142161666Y-71231347D02*
X142161666Y-71302776D01*
X142161666Y-71302776D02*
X142137857Y-71350395D01*
X142137857Y-71350395D02*
X142114047Y-71374204D01*
X142114047Y-71374204D02*
X142066428Y-71398014D01*
X142066428Y-71398014D02*
X141875952Y-71398014D01*
X142614047Y-71136109D02*
X142375952Y-71136109D01*
X142375952Y-71136109D02*
X142352143Y-71374204D01*
X142352143Y-71374204D02*
X142375952Y-71350395D01*
X142375952Y-71350395D02*
X142423571Y-71326585D01*
X142423571Y-71326585D02*
X142542619Y-71326585D01*
X142542619Y-71326585D02*
X142590238Y-71350395D01*
X142590238Y-71350395D02*
X142614047Y-71374204D01*
X142614047Y-71374204D02*
X142637857Y-71421823D01*
X142637857Y-71421823D02*
X142637857Y-71540871D01*
X142637857Y-71540871D02*
X142614047Y-71588490D01*
X142614047Y-71588490D02*
X142590238Y-71612300D01*
X142590238Y-71612300D02*
X142542619Y-71636109D01*
X142542619Y-71636109D02*
X142423571Y-71636109D01*
X142423571Y-71636109D02*
X142375952Y-71612300D01*
X142375952Y-71612300D02*
X142352143Y-71588490D01*
D11*
X164216666Y-89516033D02*
X164616666Y-89516033D01*
X164416666Y-90216033D02*
X164416666Y-89516033D01*
X164849999Y-90216033D02*
X164849999Y-89516033D01*
X164849999Y-89516033D02*
X165116666Y-89516033D01*
X165116666Y-89516033D02*
X165183333Y-89549366D01*
X165183333Y-89549366D02*
X165216666Y-89582700D01*
X165216666Y-89582700D02*
X165249999Y-89649366D01*
X165249999Y-89649366D02*
X165249999Y-89749366D01*
X165249999Y-89749366D02*
X165216666Y-89816033D01*
X165216666Y-89816033D02*
X165183333Y-89849366D01*
X165183333Y-89849366D02*
X165116666Y-89882700D01*
X165116666Y-89882700D02*
X164849999Y-89882700D01*
X165649999Y-89816033D02*
X165583333Y-89782700D01*
X165583333Y-89782700D02*
X165549999Y-89749366D01*
X165549999Y-89749366D02*
X165516666Y-89682700D01*
X165516666Y-89682700D02*
X165516666Y-89649366D01*
X165516666Y-89649366D02*
X165549999Y-89582700D01*
X165549999Y-89582700D02*
X165583333Y-89549366D01*
X165583333Y-89549366D02*
X165649999Y-89516033D01*
X165649999Y-89516033D02*
X165783333Y-89516033D01*
X165783333Y-89516033D02*
X165849999Y-89549366D01*
X165849999Y-89549366D02*
X165883333Y-89582700D01*
X165883333Y-89582700D02*
X165916666Y-89649366D01*
X165916666Y-89649366D02*
X165916666Y-89682700D01*
X165916666Y-89682700D02*
X165883333Y-89749366D01*
X165883333Y-89749366D02*
X165849999Y-89782700D01*
X165849999Y-89782700D02*
X165783333Y-89816033D01*
X165783333Y-89816033D02*
X165649999Y-89816033D01*
X165649999Y-89816033D02*
X165583333Y-89849366D01*
X165583333Y-89849366D02*
X165549999Y-89882700D01*
X165549999Y-89882700D02*
X165516666Y-89949366D01*
X165516666Y-89949366D02*
X165516666Y-90082700D01*
X165516666Y-90082700D02*
X165549999Y-90149366D01*
X165549999Y-90149366D02*
X165583333Y-90182700D01*
X165583333Y-90182700D02*
X165649999Y-90216033D01*
X165649999Y-90216033D02*
X165783333Y-90216033D01*
X165783333Y-90216033D02*
X165849999Y-90182700D01*
X165849999Y-90182700D02*
X165883333Y-90149366D01*
X165883333Y-90149366D02*
X165916666Y-90082700D01*
X165916666Y-90082700D02*
X165916666Y-89949366D01*
X165916666Y-89949366D02*
X165883333Y-89882700D01*
X165883333Y-89882700D02*
X165849999Y-89849366D01*
X165849999Y-89849366D02*
X165783333Y-89816033D01*
D10*
X157278570Y-71543490D02*
X157254761Y-71567300D01*
X157254761Y-71567300D02*
X157183332Y-71591109D01*
X157183332Y-71591109D02*
X157135713Y-71591109D01*
X157135713Y-71591109D02*
X157064285Y-71567300D01*
X157064285Y-71567300D02*
X157016666Y-71519680D01*
X157016666Y-71519680D02*
X156992856Y-71472061D01*
X156992856Y-71472061D02*
X156969047Y-71376823D01*
X156969047Y-71376823D02*
X156969047Y-71305395D01*
X156969047Y-71305395D02*
X156992856Y-71210157D01*
X156992856Y-71210157D02*
X157016666Y-71162538D01*
X157016666Y-71162538D02*
X157064285Y-71114919D01*
X157064285Y-71114919D02*
X157135713Y-71091109D01*
X157135713Y-71091109D02*
X157183332Y-71091109D01*
X157183332Y-71091109D02*
X157254761Y-71114919D01*
X157254761Y-71114919D02*
X157278570Y-71138728D01*
X157754761Y-71591109D02*
X157469047Y-71591109D01*
X157611904Y-71591109D02*
X157611904Y-71091109D01*
X157611904Y-71091109D02*
X157564285Y-71162538D01*
X157564285Y-71162538D02*
X157516666Y-71210157D01*
X157516666Y-71210157D02*
X157469047Y-71233966D01*
X158183332Y-71091109D02*
X158088094Y-71091109D01*
X158088094Y-71091109D02*
X158040475Y-71114919D01*
X158040475Y-71114919D02*
X158016665Y-71138728D01*
X158016665Y-71138728D02*
X157969046Y-71210157D01*
X157969046Y-71210157D02*
X157945237Y-71305395D01*
X157945237Y-71305395D02*
X157945237Y-71495871D01*
X157945237Y-71495871D02*
X157969046Y-71543490D01*
X157969046Y-71543490D02*
X157992856Y-71567300D01*
X157992856Y-71567300D02*
X158040475Y-71591109D01*
X158040475Y-71591109D02*
X158135713Y-71591109D01*
X158135713Y-71591109D02*
X158183332Y-71567300D01*
X158183332Y-71567300D02*
X158207141Y-71543490D01*
X158207141Y-71543490D02*
X158230951Y-71495871D01*
X158230951Y-71495871D02*
X158230951Y-71376823D01*
X158230951Y-71376823D02*
X158207141Y-71329204D01*
X158207141Y-71329204D02*
X158183332Y-71305395D01*
X158183332Y-71305395D02*
X158135713Y-71281585D01*
X158135713Y-71281585D02*
X158040475Y-71281585D01*
X158040475Y-71281585D02*
X157992856Y-71305395D01*
X157992856Y-71305395D02*
X157969046Y-71329204D01*
X157969046Y-71329204D02*
X157945237Y-71376823D01*
X147223530Y-71667066D02*
X147056864Y-71428971D01*
X146937816Y-71667066D02*
X146937816Y-71167066D01*
X146937816Y-71167066D02*
X147128292Y-71167066D01*
X147128292Y-71167066D02*
X147175911Y-71190876D01*
X147175911Y-71190876D02*
X147199721Y-71214685D01*
X147199721Y-71214685D02*
X147223530Y-71262304D01*
X147223530Y-71262304D02*
X147223530Y-71333733D01*
X147223530Y-71333733D02*
X147199721Y-71381352D01*
X147199721Y-71381352D02*
X147175911Y-71405161D01*
X147175911Y-71405161D02*
X147128292Y-71428971D01*
X147128292Y-71428971D02*
X146937816Y-71428971D01*
X147652102Y-71167066D02*
X147556864Y-71167066D01*
X147556864Y-71167066D02*
X147509245Y-71190876D01*
X147509245Y-71190876D02*
X147485435Y-71214685D01*
X147485435Y-71214685D02*
X147437816Y-71286114D01*
X147437816Y-71286114D02*
X147414007Y-71381352D01*
X147414007Y-71381352D02*
X147414007Y-71571828D01*
X147414007Y-71571828D02*
X147437816Y-71619447D01*
X147437816Y-71619447D02*
X147461626Y-71643257D01*
X147461626Y-71643257D02*
X147509245Y-71667066D01*
X147509245Y-71667066D02*
X147604483Y-71667066D01*
X147604483Y-71667066D02*
X147652102Y-71643257D01*
X147652102Y-71643257D02*
X147675911Y-71619447D01*
X147675911Y-71619447D02*
X147699721Y-71571828D01*
X147699721Y-71571828D02*
X147699721Y-71452780D01*
X147699721Y-71452780D02*
X147675911Y-71405161D01*
X147675911Y-71405161D02*
X147652102Y-71381352D01*
X147652102Y-71381352D02*
X147604483Y-71357542D01*
X147604483Y-71357542D02*
X147509245Y-71357542D01*
X147509245Y-71357542D02*
X147461626Y-71381352D01*
X147461626Y-71381352D02*
X147437816Y-71405161D01*
X147437816Y-71405161D02*
X147414007Y-71452780D01*
X141730951Y-98426109D02*
X141730951Y-97926109D01*
X141730951Y-97926109D02*
X141849999Y-97926109D01*
X141849999Y-97926109D02*
X141921427Y-97949919D01*
X141921427Y-97949919D02*
X141969046Y-97997538D01*
X141969046Y-97997538D02*
X141992856Y-98045157D01*
X141992856Y-98045157D02*
X142016665Y-98140395D01*
X142016665Y-98140395D02*
X142016665Y-98211823D01*
X142016665Y-98211823D02*
X141992856Y-98307061D01*
X141992856Y-98307061D02*
X141969046Y-98354680D01*
X141969046Y-98354680D02*
X141921427Y-98402300D01*
X141921427Y-98402300D02*
X141849999Y-98426109D01*
X141849999Y-98426109D02*
X141730951Y-98426109D01*
X142183332Y-97926109D02*
X142492856Y-97926109D01*
X142492856Y-97926109D02*
X142326189Y-98116585D01*
X142326189Y-98116585D02*
X142397618Y-98116585D01*
X142397618Y-98116585D02*
X142445237Y-98140395D01*
X142445237Y-98140395D02*
X142469046Y-98164204D01*
X142469046Y-98164204D02*
X142492856Y-98211823D01*
X142492856Y-98211823D02*
X142492856Y-98330871D01*
X142492856Y-98330871D02*
X142469046Y-98378490D01*
X142469046Y-98378490D02*
X142445237Y-98402300D01*
X142445237Y-98402300D02*
X142397618Y-98426109D01*
X142397618Y-98426109D02*
X142254761Y-98426109D01*
X142254761Y-98426109D02*
X142207142Y-98402300D01*
X142207142Y-98402300D02*
X142183332Y-98378490D01*
D11*
X140075594Y-86144819D02*
X140075594Y-86954342D01*
X140075594Y-86954342D02*
X140123213Y-87049580D01*
X140123213Y-87049580D02*
X140170832Y-87097200D01*
X140170832Y-87097200D02*
X140266070Y-87144819D01*
X140266070Y-87144819D02*
X140456546Y-87144819D01*
X140456546Y-87144819D02*
X140551784Y-87097200D01*
X140551784Y-87097200D02*
X140599403Y-87049580D01*
X140599403Y-87049580D02*
X140647022Y-86954342D01*
X140647022Y-86954342D02*
X140647022Y-86144819D01*
X141551784Y-86478152D02*
X141551784Y-87144819D01*
X141313689Y-86097200D02*
X141075594Y-86811485D01*
X141075594Y-86811485D02*
X141694641Y-86811485D01*
D10*
X147516665Y-98068490D02*
X147492856Y-98092300D01*
X147492856Y-98092300D02*
X147421427Y-98116109D01*
X147421427Y-98116109D02*
X147373808Y-98116109D01*
X147373808Y-98116109D02*
X147302380Y-98092300D01*
X147302380Y-98092300D02*
X147254761Y-98044680D01*
X147254761Y-98044680D02*
X147230951Y-97997061D01*
X147230951Y-97997061D02*
X147207142Y-97901823D01*
X147207142Y-97901823D02*
X147207142Y-97830395D01*
X147207142Y-97830395D02*
X147230951Y-97735157D01*
X147230951Y-97735157D02*
X147254761Y-97687538D01*
X147254761Y-97687538D02*
X147302380Y-97639919D01*
X147302380Y-97639919D02*
X147373808Y-97616109D01*
X147373808Y-97616109D02*
X147421427Y-97616109D01*
X147421427Y-97616109D02*
X147492856Y-97639919D01*
X147492856Y-97639919D02*
X147516665Y-97663728D01*
X147992856Y-98116109D02*
X147707142Y-98116109D01*
X147849999Y-98116109D02*
X147849999Y-97616109D01*
X147849999Y-97616109D02*
X147802380Y-97687538D01*
X147802380Y-97687538D02*
X147754761Y-97735157D01*
X147754761Y-97735157D02*
X147707142Y-97758966D01*
X164616665Y-79668490D02*
X164592856Y-79692300D01*
X164592856Y-79692300D02*
X164521427Y-79716109D01*
X164521427Y-79716109D02*
X164473808Y-79716109D01*
X164473808Y-79716109D02*
X164402380Y-79692300D01*
X164402380Y-79692300D02*
X164354761Y-79644680D01*
X164354761Y-79644680D02*
X164330951Y-79597061D01*
X164330951Y-79597061D02*
X164307142Y-79501823D01*
X164307142Y-79501823D02*
X164307142Y-79430395D01*
X164307142Y-79430395D02*
X164330951Y-79335157D01*
X164330951Y-79335157D02*
X164354761Y-79287538D01*
X164354761Y-79287538D02*
X164402380Y-79239919D01*
X164402380Y-79239919D02*
X164473808Y-79216109D01*
X164473808Y-79216109D02*
X164521427Y-79216109D01*
X164521427Y-79216109D02*
X164592856Y-79239919D01*
X164592856Y-79239919D02*
X164616665Y-79263728D01*
X164902380Y-79430395D02*
X164854761Y-79406585D01*
X164854761Y-79406585D02*
X164830951Y-79382776D01*
X164830951Y-79382776D02*
X164807142Y-79335157D01*
X164807142Y-79335157D02*
X164807142Y-79311347D01*
X164807142Y-79311347D02*
X164830951Y-79263728D01*
X164830951Y-79263728D02*
X164854761Y-79239919D01*
X164854761Y-79239919D02*
X164902380Y-79216109D01*
X164902380Y-79216109D02*
X164997618Y-79216109D01*
X164997618Y-79216109D02*
X165045237Y-79239919D01*
X165045237Y-79239919D02*
X165069046Y-79263728D01*
X165069046Y-79263728D02*
X165092856Y-79311347D01*
X165092856Y-79311347D02*
X165092856Y-79335157D01*
X165092856Y-79335157D02*
X165069046Y-79382776D01*
X165069046Y-79382776D02*
X165045237Y-79406585D01*
X165045237Y-79406585D02*
X164997618Y-79430395D01*
X164997618Y-79430395D02*
X164902380Y-79430395D01*
X164902380Y-79430395D02*
X164854761Y-79454204D01*
X164854761Y-79454204D02*
X164830951Y-79478014D01*
X164830951Y-79478014D02*
X164807142Y-79525633D01*
X164807142Y-79525633D02*
X164807142Y-79620871D01*
X164807142Y-79620871D02*
X164830951Y-79668490D01*
X164830951Y-79668490D02*
X164854761Y-79692300D01*
X164854761Y-79692300D02*
X164902380Y-79716109D01*
X164902380Y-79716109D02*
X164997618Y-79716109D01*
X164997618Y-79716109D02*
X165045237Y-79692300D01*
X165045237Y-79692300D02*
X165069046Y-79668490D01*
X165069046Y-79668490D02*
X165092856Y-79620871D01*
X165092856Y-79620871D02*
X165092856Y-79525633D01*
X165092856Y-79525633D02*
X165069046Y-79478014D01*
X165069046Y-79478014D02*
X165045237Y-79454204D01*
X165045237Y-79454204D02*
X164997618Y-79430395D01*
X142319047Y-77926109D02*
X142319047Y-78330871D01*
X142319047Y-78330871D02*
X142342857Y-78378490D01*
X142342857Y-78378490D02*
X142366666Y-78402300D01*
X142366666Y-78402300D02*
X142414285Y-78426109D01*
X142414285Y-78426109D02*
X142509523Y-78426109D01*
X142509523Y-78426109D02*
X142557142Y-78402300D01*
X142557142Y-78402300D02*
X142580952Y-78378490D01*
X142580952Y-78378490D02*
X142604761Y-78330871D01*
X142604761Y-78330871D02*
X142604761Y-77926109D01*
X142795238Y-77926109D02*
X143128571Y-77926109D01*
X143128571Y-77926109D02*
X142914286Y-78426109D01*
X164878489Y-88811428D02*
X164902299Y-88835237D01*
X164902299Y-88835237D02*
X164926108Y-88906666D01*
X164926108Y-88906666D02*
X164926108Y-88954285D01*
X164926108Y-88954285D02*
X164902299Y-89025713D01*
X164902299Y-89025713D02*
X164854679Y-89073332D01*
X164854679Y-89073332D02*
X164807060Y-89097142D01*
X164807060Y-89097142D02*
X164711822Y-89120951D01*
X164711822Y-89120951D02*
X164640394Y-89120951D01*
X164640394Y-89120951D02*
X164545156Y-89097142D01*
X164545156Y-89097142D02*
X164497537Y-89073332D01*
X164497537Y-89073332D02*
X164449918Y-89025713D01*
X164449918Y-89025713D02*
X164426108Y-88954285D01*
X164426108Y-88954285D02*
X164426108Y-88906666D01*
X164426108Y-88906666D02*
X164449918Y-88835237D01*
X164449918Y-88835237D02*
X164473727Y-88811428D01*
X164926108Y-88335237D02*
X164926108Y-88620951D01*
X164926108Y-88478094D02*
X164426108Y-88478094D01*
X164426108Y-88478094D02*
X164497537Y-88525713D01*
X164497537Y-88525713D02*
X164545156Y-88573332D01*
X164545156Y-88573332D02*
X164568965Y-88620951D01*
X164926108Y-88097142D02*
X164926108Y-88001904D01*
X164926108Y-88001904D02*
X164902299Y-87954285D01*
X164902299Y-87954285D02*
X164878489Y-87930476D01*
X164878489Y-87930476D02*
X164807060Y-87882857D01*
X164807060Y-87882857D02*
X164711822Y-87859047D01*
X164711822Y-87859047D02*
X164521346Y-87859047D01*
X164521346Y-87859047D02*
X164473727Y-87882857D01*
X164473727Y-87882857D02*
X164449918Y-87906666D01*
X164449918Y-87906666D02*
X164426108Y-87954285D01*
X164426108Y-87954285D02*
X164426108Y-88049523D01*
X164426108Y-88049523D02*
X164449918Y-88097142D01*
X164449918Y-88097142D02*
X164473727Y-88120952D01*
X164473727Y-88120952D02*
X164521346Y-88144761D01*
X164521346Y-88144761D02*
X164640394Y-88144761D01*
X164640394Y-88144761D02*
X164688013Y-88120952D01*
X164688013Y-88120952D02*
X164711822Y-88097142D01*
X164711822Y-88097142D02*
X164735632Y-88049523D01*
X164735632Y-88049523D02*
X164735632Y-87954285D01*
X164735632Y-87954285D02*
X164711822Y-87906666D01*
X164711822Y-87906666D02*
X164688013Y-87882857D01*
X164688013Y-87882857D02*
X164640394Y-87859047D01*
D11*
X164216666Y-91516033D02*
X164616666Y-91516033D01*
X164416666Y-92216033D02*
X164416666Y-91516033D01*
X164849999Y-92216033D02*
X164849999Y-91516033D01*
X164849999Y-91516033D02*
X165116666Y-91516033D01*
X165116666Y-91516033D02*
X165183333Y-91549366D01*
X165183333Y-91549366D02*
X165216666Y-91582700D01*
X165216666Y-91582700D02*
X165249999Y-91649366D01*
X165249999Y-91649366D02*
X165249999Y-91749366D01*
X165249999Y-91749366D02*
X165216666Y-91816033D01*
X165216666Y-91816033D02*
X165183333Y-91849366D01*
X165183333Y-91849366D02*
X165116666Y-91882700D01*
X165116666Y-91882700D02*
X164849999Y-91882700D01*
X165849999Y-91749366D02*
X165849999Y-92216033D01*
X165683333Y-91482700D02*
X165516666Y-91982700D01*
X165516666Y-91982700D02*
X165949999Y-91982700D01*
D10*
X140916666Y-93178490D02*
X140892857Y-93202300D01*
X140892857Y-93202300D02*
X140821428Y-93226109D01*
X140821428Y-93226109D02*
X140773809Y-93226109D01*
X140773809Y-93226109D02*
X140702381Y-93202300D01*
X140702381Y-93202300D02*
X140654762Y-93154680D01*
X140654762Y-93154680D02*
X140630952Y-93107061D01*
X140630952Y-93107061D02*
X140607143Y-93011823D01*
X140607143Y-93011823D02*
X140607143Y-92940395D01*
X140607143Y-92940395D02*
X140630952Y-92845157D01*
X140630952Y-92845157D02*
X140654762Y-92797538D01*
X140654762Y-92797538D02*
X140702381Y-92749919D01*
X140702381Y-92749919D02*
X140773809Y-92726109D01*
X140773809Y-92726109D02*
X140821428Y-92726109D01*
X140821428Y-92726109D02*
X140892857Y-92749919D01*
X140892857Y-92749919D02*
X140916666Y-92773728D01*
X141083333Y-92726109D02*
X141392857Y-92726109D01*
X141392857Y-92726109D02*
X141226190Y-92916585D01*
X141226190Y-92916585D02*
X141297619Y-92916585D01*
X141297619Y-92916585D02*
X141345238Y-92940395D01*
X141345238Y-92940395D02*
X141369047Y-92964204D01*
X141369047Y-92964204D02*
X141392857Y-93011823D01*
X141392857Y-93011823D02*
X141392857Y-93130871D01*
X141392857Y-93130871D02*
X141369047Y-93178490D01*
X141369047Y-93178490D02*
X141345238Y-93202300D01*
X141345238Y-93202300D02*
X141297619Y-93226109D01*
X141297619Y-93226109D02*
X141154762Y-93226109D01*
X141154762Y-93226109D02*
X141107143Y-93202300D01*
X141107143Y-93202300D02*
X141083333Y-93178490D01*
X142316666Y-88788490D02*
X142292857Y-88812300D01*
X142292857Y-88812300D02*
X142221428Y-88836109D01*
X142221428Y-88836109D02*
X142173809Y-88836109D01*
X142173809Y-88836109D02*
X142102381Y-88812300D01*
X142102381Y-88812300D02*
X142054762Y-88764680D01*
X142054762Y-88764680D02*
X142030952Y-88717061D01*
X142030952Y-88717061D02*
X142007143Y-88621823D01*
X142007143Y-88621823D02*
X142007143Y-88550395D01*
X142007143Y-88550395D02*
X142030952Y-88455157D01*
X142030952Y-88455157D02*
X142054762Y-88407538D01*
X142054762Y-88407538D02*
X142102381Y-88359919D01*
X142102381Y-88359919D02*
X142173809Y-88336109D01*
X142173809Y-88336109D02*
X142221428Y-88336109D01*
X142221428Y-88336109D02*
X142292857Y-88359919D01*
X142292857Y-88359919D02*
X142316666Y-88383728D01*
X142507143Y-88383728D02*
X142530952Y-88359919D01*
X142530952Y-88359919D02*
X142578571Y-88336109D01*
X142578571Y-88336109D02*
X142697619Y-88336109D01*
X142697619Y-88336109D02*
X142745238Y-88359919D01*
X142745238Y-88359919D02*
X142769047Y-88383728D01*
X142769047Y-88383728D02*
X142792857Y-88431347D01*
X142792857Y-88431347D02*
X142792857Y-88478966D01*
X142792857Y-88478966D02*
X142769047Y-88550395D01*
X142769047Y-88550395D02*
X142483333Y-88836109D01*
X142483333Y-88836109D02*
X142792857Y-88836109D01*
X142416666Y-94326109D02*
X142250000Y-94088014D01*
X142130952Y-94326109D02*
X142130952Y-93826109D01*
X142130952Y-93826109D02*
X142321428Y-93826109D01*
X142321428Y-93826109D02*
X142369047Y-93849919D01*
X142369047Y-93849919D02*
X142392857Y-93873728D01*
X142392857Y-93873728D02*
X142416666Y-93921347D01*
X142416666Y-93921347D02*
X142416666Y-93992776D01*
X142416666Y-93992776D02*
X142392857Y-94040395D01*
X142392857Y-94040395D02*
X142369047Y-94064204D01*
X142369047Y-94064204D02*
X142321428Y-94088014D01*
X142321428Y-94088014D02*
X142130952Y-94088014D01*
X142892857Y-94326109D02*
X142607143Y-94326109D01*
X142750000Y-94326109D02*
X142750000Y-93826109D01*
X142750000Y-93826109D02*
X142702381Y-93897538D01*
X142702381Y-93897538D02*
X142654762Y-93945157D01*
X142654762Y-93945157D02*
X142607143Y-93968966D01*
X146861666Y-84826109D02*
X146695000Y-84588014D01*
X146575952Y-84826109D02*
X146575952Y-84326109D01*
X146575952Y-84326109D02*
X146766428Y-84326109D01*
X146766428Y-84326109D02*
X146814047Y-84349919D01*
X146814047Y-84349919D02*
X146837857Y-84373728D01*
X146837857Y-84373728D02*
X146861666Y-84421347D01*
X146861666Y-84421347D02*
X146861666Y-84492776D01*
X146861666Y-84492776D02*
X146837857Y-84540395D01*
X146837857Y-84540395D02*
X146814047Y-84564204D01*
X146814047Y-84564204D02*
X146766428Y-84588014D01*
X146766428Y-84588014D02*
X146575952Y-84588014D01*
X147147381Y-84540395D02*
X147099762Y-84516585D01*
X147099762Y-84516585D02*
X147075952Y-84492776D01*
X147075952Y-84492776D02*
X147052143Y-84445157D01*
X147052143Y-84445157D02*
X147052143Y-84421347D01*
X147052143Y-84421347D02*
X147075952Y-84373728D01*
X147075952Y-84373728D02*
X147099762Y-84349919D01*
X147099762Y-84349919D02*
X147147381Y-84326109D01*
X147147381Y-84326109D02*
X147242619Y-84326109D01*
X147242619Y-84326109D02*
X147290238Y-84349919D01*
X147290238Y-84349919D02*
X147314047Y-84373728D01*
X147314047Y-84373728D02*
X147337857Y-84421347D01*
X147337857Y-84421347D02*
X147337857Y-84445157D01*
X147337857Y-84445157D02*
X147314047Y-84492776D01*
X147314047Y-84492776D02*
X147290238Y-84516585D01*
X147290238Y-84516585D02*
X147242619Y-84540395D01*
X147242619Y-84540395D02*
X147147381Y-84540395D01*
X147147381Y-84540395D02*
X147099762Y-84564204D01*
X147099762Y-84564204D02*
X147075952Y-84588014D01*
X147075952Y-84588014D02*
X147052143Y-84635633D01*
X147052143Y-84635633D02*
X147052143Y-84730871D01*
X147052143Y-84730871D02*
X147075952Y-84778490D01*
X147075952Y-84778490D02*
X147099762Y-84802300D01*
X147099762Y-84802300D02*
X147147381Y-84826109D01*
X147147381Y-84826109D02*
X147242619Y-84826109D01*
X147242619Y-84826109D02*
X147290238Y-84802300D01*
X147290238Y-84802300D02*
X147314047Y-84778490D01*
X147314047Y-84778490D02*
X147337857Y-84730871D01*
X147337857Y-84730871D02*
X147337857Y-84635633D01*
X147337857Y-84635633D02*
X147314047Y-84588014D01*
X147314047Y-84588014D02*
X147290238Y-84564204D01*
X147290238Y-84564204D02*
X147242619Y-84540395D01*
X148416666Y-71578490D02*
X148392857Y-71602300D01*
X148392857Y-71602300D02*
X148321428Y-71626109D01*
X148321428Y-71626109D02*
X148273809Y-71626109D01*
X148273809Y-71626109D02*
X148202381Y-71602300D01*
X148202381Y-71602300D02*
X148154762Y-71554680D01*
X148154762Y-71554680D02*
X148130952Y-71507061D01*
X148130952Y-71507061D02*
X148107143Y-71411823D01*
X148107143Y-71411823D02*
X148107143Y-71340395D01*
X148107143Y-71340395D02*
X148130952Y-71245157D01*
X148130952Y-71245157D02*
X148154762Y-71197538D01*
X148154762Y-71197538D02*
X148202381Y-71149919D01*
X148202381Y-71149919D02*
X148273809Y-71126109D01*
X148273809Y-71126109D02*
X148321428Y-71126109D01*
X148321428Y-71126109D02*
X148392857Y-71149919D01*
X148392857Y-71149919D02*
X148416666Y-71173728D01*
X148654762Y-71626109D02*
X148750000Y-71626109D01*
X148750000Y-71626109D02*
X148797619Y-71602300D01*
X148797619Y-71602300D02*
X148821428Y-71578490D01*
X148821428Y-71578490D02*
X148869047Y-71507061D01*
X148869047Y-71507061D02*
X148892857Y-71411823D01*
X148892857Y-71411823D02*
X148892857Y-71221347D01*
X148892857Y-71221347D02*
X148869047Y-71173728D01*
X148869047Y-71173728D02*
X148845238Y-71149919D01*
X148845238Y-71149919D02*
X148797619Y-71126109D01*
X148797619Y-71126109D02*
X148702381Y-71126109D01*
X148702381Y-71126109D02*
X148654762Y-71149919D01*
X148654762Y-71149919D02*
X148630952Y-71173728D01*
X148630952Y-71173728D02*
X148607143Y-71221347D01*
X148607143Y-71221347D02*
X148607143Y-71340395D01*
X148607143Y-71340395D02*
X148630952Y-71388014D01*
X148630952Y-71388014D02*
X148654762Y-71411823D01*
X148654762Y-71411823D02*
X148702381Y-71435633D01*
X148702381Y-71435633D02*
X148797619Y-71435633D01*
X148797619Y-71435633D02*
X148845238Y-71411823D01*
X148845238Y-71411823D02*
X148869047Y-71388014D01*
X148869047Y-71388014D02*
X148892857Y-71340395D01*
D11*
X140816666Y-77016033D02*
X141216666Y-77016033D01*
X141016666Y-77716033D02*
X141016666Y-77016033D01*
X141449999Y-77716033D02*
X141449999Y-77016033D01*
X141449999Y-77016033D02*
X141716666Y-77016033D01*
X141716666Y-77016033D02*
X141783333Y-77049366D01*
X141783333Y-77049366D02*
X141816666Y-77082700D01*
X141816666Y-77082700D02*
X141849999Y-77149366D01*
X141849999Y-77149366D02*
X141849999Y-77249366D01*
X141849999Y-77249366D02*
X141816666Y-77316033D01*
X141816666Y-77316033D02*
X141783333Y-77349366D01*
X141783333Y-77349366D02*
X141716666Y-77382700D01*
X141716666Y-77382700D02*
X141449999Y-77382700D01*
X142516666Y-77716033D02*
X142116666Y-77716033D01*
X142316666Y-77716033D02*
X142316666Y-77016033D01*
X142316666Y-77016033D02*
X142249999Y-77116033D01*
X142249999Y-77116033D02*
X142183333Y-77182700D01*
X142183333Y-77182700D02*
X142116666Y-77216033D01*
D10*
X147516665Y-96568490D02*
X147492856Y-96592300D01*
X147492856Y-96592300D02*
X147421427Y-96616109D01*
X147421427Y-96616109D02*
X147373808Y-96616109D01*
X147373808Y-96616109D02*
X147302380Y-96592300D01*
X147302380Y-96592300D02*
X147254761Y-96544680D01*
X147254761Y-96544680D02*
X147230951Y-96497061D01*
X147230951Y-96497061D02*
X147207142Y-96401823D01*
X147207142Y-96401823D02*
X147207142Y-96330395D01*
X147207142Y-96330395D02*
X147230951Y-96235157D01*
X147230951Y-96235157D02*
X147254761Y-96187538D01*
X147254761Y-96187538D02*
X147302380Y-96139919D01*
X147302380Y-96139919D02*
X147373808Y-96116109D01*
X147373808Y-96116109D02*
X147421427Y-96116109D01*
X147421427Y-96116109D02*
X147492856Y-96139919D01*
X147492856Y-96139919D02*
X147516665Y-96163728D01*
X147945237Y-96116109D02*
X147849999Y-96116109D01*
X147849999Y-96116109D02*
X147802380Y-96139919D01*
X147802380Y-96139919D02*
X147778570Y-96163728D01*
X147778570Y-96163728D02*
X147730951Y-96235157D01*
X147730951Y-96235157D02*
X147707142Y-96330395D01*
X147707142Y-96330395D02*
X147707142Y-96520871D01*
X147707142Y-96520871D02*
X147730951Y-96568490D01*
X147730951Y-96568490D02*
X147754761Y-96592300D01*
X147754761Y-96592300D02*
X147802380Y-96616109D01*
X147802380Y-96616109D02*
X147897618Y-96616109D01*
X147897618Y-96616109D02*
X147945237Y-96592300D01*
X147945237Y-96592300D02*
X147969046Y-96568490D01*
X147969046Y-96568490D02*
X147992856Y-96520871D01*
X147992856Y-96520871D02*
X147992856Y-96401823D01*
X147992856Y-96401823D02*
X147969046Y-96354204D01*
X147969046Y-96354204D02*
X147945237Y-96330395D01*
X147945237Y-96330395D02*
X147897618Y-96306585D01*
X147897618Y-96306585D02*
X147802380Y-96306585D01*
X147802380Y-96306585D02*
X147754761Y-96330395D01*
X147754761Y-96330395D02*
X147730951Y-96354204D01*
X147730951Y-96354204D02*
X147707142Y-96401823D01*
X147736665Y-77916109D02*
X147569999Y-77678014D01*
X147450951Y-77916109D02*
X147450951Y-77416109D01*
X147450951Y-77416109D02*
X147641427Y-77416109D01*
X147641427Y-77416109D02*
X147689046Y-77439919D01*
X147689046Y-77439919D02*
X147712856Y-77463728D01*
X147712856Y-77463728D02*
X147736665Y-77511347D01*
X147736665Y-77511347D02*
X147736665Y-77582776D01*
X147736665Y-77582776D02*
X147712856Y-77630395D01*
X147712856Y-77630395D02*
X147689046Y-77654204D01*
X147689046Y-77654204D02*
X147641427Y-77678014D01*
X147641427Y-77678014D02*
X147450951Y-77678014D01*
X148165237Y-77582776D02*
X148165237Y-77916109D01*
X148046189Y-77392300D02*
X147927142Y-77749442D01*
X147927142Y-77749442D02*
X148236665Y-77749442D01*
X148219047Y-78126109D02*
X148219047Y-78530871D01*
X148219047Y-78530871D02*
X148242857Y-78578490D01*
X148242857Y-78578490D02*
X148266666Y-78602300D01*
X148266666Y-78602300D02*
X148314285Y-78626109D01*
X148314285Y-78626109D02*
X148409523Y-78626109D01*
X148409523Y-78626109D02*
X148457142Y-78602300D01*
X148457142Y-78602300D02*
X148480952Y-78578490D01*
X148480952Y-78578490D02*
X148504761Y-78530871D01*
X148504761Y-78530871D02*
X148504761Y-78126109D01*
X148980952Y-78126109D02*
X148742857Y-78126109D01*
X148742857Y-78126109D02*
X148719048Y-78364204D01*
X148719048Y-78364204D02*
X148742857Y-78340395D01*
X148742857Y-78340395D02*
X148790476Y-78316585D01*
X148790476Y-78316585D02*
X148909524Y-78316585D01*
X148909524Y-78316585D02*
X148957143Y-78340395D01*
X148957143Y-78340395D02*
X148980952Y-78364204D01*
X148980952Y-78364204D02*
X149004762Y-78411823D01*
X149004762Y-78411823D02*
X149004762Y-78530871D01*
X149004762Y-78530871D02*
X148980952Y-78578490D01*
X148980952Y-78578490D02*
X148957143Y-78602300D01*
X148957143Y-78602300D02*
X148909524Y-78626109D01*
X148909524Y-78626109D02*
X148790476Y-78626109D01*
X148790476Y-78626109D02*
X148742857Y-78602300D01*
X148742857Y-78602300D02*
X148719048Y-78578490D01*
D11*
X137854819Y-80633333D02*
X138569104Y-80633333D01*
X138569104Y-80633333D02*
X138711961Y-80680952D01*
X138711961Y-80680952D02*
X138807200Y-80776190D01*
X138807200Y-80776190D02*
X138854819Y-80919047D01*
X138854819Y-80919047D02*
X138854819Y-81014285D01*
X138283390Y-80014285D02*
X138235771Y-80109523D01*
X138235771Y-80109523D02*
X138188152Y-80157142D01*
X138188152Y-80157142D02*
X138092914Y-80204761D01*
X138092914Y-80204761D02*
X138045295Y-80204761D01*
X138045295Y-80204761D02*
X137950057Y-80157142D01*
X137950057Y-80157142D02*
X137902438Y-80109523D01*
X137902438Y-80109523D02*
X137854819Y-80014285D01*
X137854819Y-80014285D02*
X137854819Y-79823809D01*
X137854819Y-79823809D02*
X137902438Y-79728571D01*
X137902438Y-79728571D02*
X137950057Y-79680952D01*
X137950057Y-79680952D02*
X138045295Y-79633333D01*
X138045295Y-79633333D02*
X138092914Y-79633333D01*
X138092914Y-79633333D02*
X138188152Y-79680952D01*
X138188152Y-79680952D02*
X138235771Y-79728571D01*
X138235771Y-79728571D02*
X138283390Y-79823809D01*
X138283390Y-79823809D02*
X138283390Y-80014285D01*
X138283390Y-80014285D02*
X138331009Y-80109523D01*
X138331009Y-80109523D02*
X138378628Y-80157142D01*
X138378628Y-80157142D02*
X138473866Y-80204761D01*
X138473866Y-80204761D02*
X138664342Y-80204761D01*
X138664342Y-80204761D02*
X138759580Y-80157142D01*
X138759580Y-80157142D02*
X138807200Y-80109523D01*
X138807200Y-80109523D02*
X138854819Y-80014285D01*
X138854819Y-80014285D02*
X138854819Y-79823809D01*
X138854819Y-79823809D02*
X138807200Y-79728571D01*
X138807200Y-79728571D02*
X138759580Y-79680952D01*
X138759580Y-79680952D02*
X138664342Y-79633333D01*
X138664342Y-79633333D02*
X138473866Y-79633333D01*
X138473866Y-79633333D02*
X138378628Y-79680952D01*
X138378628Y-79680952D02*
X138331009Y-79728571D01*
X138331009Y-79728571D02*
X138283390Y-79823809D01*
D10*
X146861665Y-83816109D02*
X146694999Y-83578014D01*
X146575951Y-83816109D02*
X146575951Y-83316109D01*
X146575951Y-83316109D02*
X146766427Y-83316109D01*
X146766427Y-83316109D02*
X146814046Y-83339919D01*
X146814046Y-83339919D02*
X146837856Y-83363728D01*
X146837856Y-83363728D02*
X146861665Y-83411347D01*
X146861665Y-83411347D02*
X146861665Y-83482776D01*
X146861665Y-83482776D02*
X146837856Y-83530395D01*
X146837856Y-83530395D02*
X146814046Y-83554204D01*
X146814046Y-83554204D02*
X146766427Y-83578014D01*
X146766427Y-83578014D02*
X146575951Y-83578014D01*
X147028332Y-83316109D02*
X147337856Y-83316109D01*
X147337856Y-83316109D02*
X147171189Y-83506585D01*
X147171189Y-83506585D02*
X147242618Y-83506585D01*
X147242618Y-83506585D02*
X147290237Y-83530395D01*
X147290237Y-83530395D02*
X147314046Y-83554204D01*
X147314046Y-83554204D02*
X147337856Y-83601823D01*
X147337856Y-83601823D02*
X147337856Y-83720871D01*
X147337856Y-83720871D02*
X147314046Y-83768490D01*
X147314046Y-83768490D02*
X147290237Y-83792300D01*
X147290237Y-83792300D02*
X147242618Y-83816109D01*
X147242618Y-83816109D02*
X147099761Y-83816109D01*
X147099761Y-83816109D02*
X147052142Y-83792300D01*
X147052142Y-83792300D02*
X147028332Y-83768490D01*
D12*
%TO.C,C20*%
X139638731Y-87629060D02*
X139638731Y-87347900D01*
X138618731Y-87629060D02*
X138618731Y-87347900D01*
%TO.C,C21*%
X141138731Y-87629060D02*
X141138731Y-87347900D01*
X140118731Y-87629060D02*
X140118731Y-87347900D01*
D13*
%TO.C,J5*%
X148409999Y-93075000D02*
X148409999Y-96505000D01*
X154929999Y-96505000D02*
X154929999Y-93075000D01*
X147979999Y-96825000D02*
G75*
G02*
X147779999Y-96825000I-100000J0D01*
G01*
X147779999Y-96825000D02*
G75*
G02*
X147979999Y-96825000I100000J0D01*
G01*
D14*
%TO.C,U6*%
X164549999Y-78740000D02*
X164949999Y-78740000D01*
X164949999Y-76140000D02*
X164549999Y-76140000D01*
X167649999Y-76140000D02*
X167249999Y-76140000D01*
X167649999Y-78740000D02*
X167249999Y-78740000D01*
D10*
X164049999Y-76440000D02*
G75*
G02*
X163949999Y-76440000I-50000J0D01*
G01*
X163949999Y-76440000D02*
G75*
G02*
X164049999Y-76440000I50000J0D01*
G01*
D14*
%TO.C,Y1*%
X159999999Y-72527500D02*
X160999999Y-72527500D01*
X159999999Y-74027500D02*
X160999999Y-74027500D01*
D13*
X159249999Y-74977500D02*
G75*
G02*
X159049999Y-74977500I-100000J0D01*
G01*
X159049999Y-74977500D02*
G75*
G02*
X159249999Y-74977500I100000J0D01*
G01*
D12*
%TO.C,F1*%
X138589999Y-92692064D02*
X138589999Y-91487936D01*
X140409999Y-92692064D02*
X140409999Y-91487936D01*
D13*
%TO.C,D4*%
X149349999Y-73090000D02*
X149349999Y-73290000D01*
X150349999Y-72090000D02*
X150549999Y-72090000D01*
X150349999Y-74290000D02*
X150549999Y-74290000D01*
X151549999Y-73090000D02*
X151549999Y-73290000D01*
X148749999Y-74390000D02*
G75*
G02*
X148549999Y-74390000I-100000J0D01*
G01*
X148549999Y-74390000D02*
G75*
G02*
X148749999Y-74390000I100000J0D01*
G01*
D12*
%TO.C,C15*%
X155439999Y-73049420D02*
X155439999Y-73330580D01*
X156459999Y-73049420D02*
X156459999Y-73330580D01*
D11*
%TO.C,U2*%
X143999999Y-89190000D02*
X147199999Y-89190000D01*
X143999999Y-94990000D02*
X147199999Y-94990000D01*
D15*
X147999999Y-94090000D02*
G75*
G02*
X147749999Y-94090000I-125000J0D01*
G01*
X147749999Y-94090000D02*
G75*
G02*
X147999999Y-94090000I125000J0D01*
G01*
D12*
%TO.C,C7*%
X148304419Y-75080000D02*
X148585579Y-75080000D01*
X148304419Y-76100000D02*
X148585579Y-76100000D01*
D11*
%TO.C,U1*%
X151986499Y-76776500D02*
X151986499Y-77701499D01*
X151986499Y-76776500D02*
X152911498Y-76776500D01*
X151986499Y-86078501D02*
X151986499Y-87003500D01*
X151986499Y-87003500D02*
X152911498Y-87003500D01*
X161288500Y-76776500D02*
X162213499Y-76776500D01*
X161288500Y-87003500D02*
X162213499Y-87003500D01*
X162213499Y-76776500D02*
X162213499Y-77701499D01*
X162213499Y-86078501D02*
X162213499Y-87003500D01*
D15*
X161700000Y-75490000D02*
G75*
G02*
X161449998Y-75490000I-125001J0D01*
G01*
X161449998Y-75490000D02*
G75*
G02*
X161700000Y-75490000I125001J0D01*
G01*
D12*
%TO.C,J2*%
X155588999Y-91780000D02*
X156863999Y-91780000D01*
X155588999Y-97000000D02*
X155588999Y-91780000D01*
X155588999Y-97000000D02*
X156863999Y-97000000D01*
X161873999Y-98025000D02*
X161623999Y-98025000D01*
X162133999Y-91780000D02*
X163408999Y-91780000D01*
X163408999Y-91780000D02*
X163408999Y-97000000D01*
X163408999Y-97000000D02*
X162133999Y-97000000D01*
%TO.C,TP7*%
X153800000Y-90000000D02*
G75*
G02*
X152400000Y-90000000I-700000J0D01*
G01*
X152400000Y-90000000D02*
G75*
G02*
X153800000Y-90000000I700000J0D01*
G01*
%TO.C,TP3*%
X167700000Y-93900000D02*
G75*
G02*
X166300000Y-93900000I-700000J0D01*
G01*
X166300000Y-93900000D02*
G75*
G02*
X167700000Y-93900000I700000J0D01*
G01*
%TO.C,TP6*%
X164300000Y-72200000D02*
G75*
G02*
X162900000Y-72200000I-700000J0D01*
G01*
X162900000Y-72200000D02*
G75*
G02*
X164300000Y-72200000I700000J0D01*
G01*
%TO.C,TP5*%
X140200000Y-75900000D02*
G75*
G02*
X138800000Y-75900000I-700000J0D01*
G01*
X138800000Y-75900000D02*
G75*
G02*
X140200000Y-75900000I700000J0D01*
G01*
%TO.C,SW2*%
D10*
X143299999Y-71940000D02*
X146289999Y-71940000D01*
X146289999Y-74430000D01*
X143299999Y-74430000D01*
X143299999Y-71940000D01*
D12*
%TO.C,TP10*%
X149300000Y-90000000D02*
G75*
G02*
X147900000Y-90000000I-700000J0D01*
G01*
X147900000Y-90000000D02*
G75*
G02*
X149300000Y-90000000I700000J0D01*
G01*
%TO.C,JP1*%
X164599999Y-83790000D02*
X164599999Y-82390000D01*
X165299999Y-81690000D02*
X165899999Y-81690000D01*
X165899999Y-84490000D02*
X165299999Y-84490000D01*
X166599999Y-82390000D02*
X166599999Y-83790000D01*
X164599999Y-82390000D02*
G75*
G02*
X165299999Y-81690000I699999J1D01*
G01*
X165299999Y-84490000D02*
G75*
G02*
X164599999Y-83790000I0J700000D01*
G01*
X165899999Y-81690000D02*
G75*
G02*
X166599999Y-82390000I1J-699999D01*
G01*
X166599999Y-83790000D02*
G75*
G02*
X165899999Y-84490000I-700000J0D01*
G01*
%TO.C,C12*%
X166089999Y-86405580D02*
X166089999Y-86124420D01*
X167109999Y-86405580D02*
X167109999Y-86124420D01*
%TO.C,TP2*%
X151500000Y-90000000D02*
G75*
G02*
X150100000Y-90000000I-700000J0D01*
G01*
X150100000Y-90000000D02*
G75*
G02*
X151500000Y-90000000I700000J0D01*
G01*
%TO.C,SW1*%
D10*
X143299999Y-74840000D02*
X146289999Y-74840000D01*
X146289999Y-77330000D01*
X143299999Y-77330000D01*
X143299999Y-74840000D01*
D13*
%TO.C,D5*%
X152549999Y-73090000D02*
X152549999Y-73290000D01*
X153749999Y-72090000D02*
X153549999Y-72090000D01*
X153749999Y-74290000D02*
X153549999Y-74290000D01*
X154749999Y-73090000D02*
X154749999Y-73290000D01*
X152549999Y-71390000D02*
G75*
G02*
X152349999Y-71390000I-100000J0D01*
G01*
X152349999Y-71390000D02*
G75*
G02*
X152549999Y-71390000I100000J0D01*
G01*
D12*
%TO.C,TP8*%
X167700000Y-89900000D02*
G75*
G02*
X166300000Y-89900000I-700000J0D01*
G01*
X166300000Y-89900000D02*
G75*
G02*
X167700000Y-89900000I700000J0D01*
G01*
%TO.C,C16*%
X157089999Y-73305580D02*
X157089999Y-73024420D01*
X158109999Y-73305580D02*
X158109999Y-73024420D01*
%TO.C,D3*%
X142699999Y-96190000D02*
X142699999Y-98150000D01*
X142699999Y-98150000D02*
X143899999Y-98150000D01*
X143899999Y-96190000D02*
X143899999Y-98150000D01*
%TO.C,U4*%
X139927499Y-82730000D02*
X141747499Y-82730000D01*
X139927499Y-82780000D02*
X139927499Y-82730000D01*
X139927499Y-85850000D02*
X139927499Y-85800000D01*
X141747499Y-82730000D02*
X141747499Y-82780000D01*
X141747499Y-85800000D02*
X141747499Y-85850000D01*
X141747499Y-85850000D02*
X139927499Y-85850000D01*
X142527499Y-86130000D02*
X142047499Y-86130000D01*
X142287499Y-85800000D01*
X142527499Y-86130000D01*
G36*
X142527499Y-86130000D02*
G01*
X142047499Y-86130000D01*
X142287499Y-85800000D01*
X142527499Y-86130000D01*
G37*
%TO.C,C1*%
X145531166Y-96953239D02*
X145812326Y-96953239D01*
X145531166Y-97973239D02*
X145812326Y-97973239D01*
%TO.C,C8*%
X165659419Y-80080000D02*
X165940579Y-80080000D01*
X165659419Y-81100000D02*
X165940579Y-81100000D01*
%TO.C,U7*%
X139927499Y-78330000D02*
X141747499Y-78330000D01*
X139927499Y-78380000D02*
X139927499Y-78330000D01*
X139927499Y-81450000D02*
X139927499Y-81400000D01*
X141747499Y-78330000D02*
X141747499Y-78380000D01*
X141747499Y-81400000D02*
X141747499Y-81450000D01*
X141747499Y-81450000D02*
X139927499Y-81450000D01*
X139387499Y-78380000D02*
X139147499Y-78050000D01*
X139627499Y-78050000D01*
X139387499Y-78380000D01*
G36*
X139387499Y-78380000D02*
G01*
X139147499Y-78050000D01*
X139627499Y-78050000D01*
X139387499Y-78380000D01*
G37*
%TO.C,C19*%
X164589999Y-86124420D02*
X164589999Y-86405580D01*
X165609999Y-86124420D02*
X165609999Y-86405580D01*
%TO.C,TP4*%
X167700000Y-91900000D02*
G75*
G02*
X166300000Y-91900000I-700000J0D01*
G01*
X166300000Y-91900000D02*
G75*
G02*
X167700000Y-91900000I700000J0D01*
G01*
%TO.C,C3*%
X141686999Y-91845920D02*
X141686999Y-92127080D01*
X142706999Y-91845920D02*
X142706999Y-92127080D01*
%TO.C,C2*%
X142440579Y-89190000D02*
X142159419Y-89190000D01*
X142440579Y-90210000D02*
X142159419Y-90210000D01*
%TO.C,C9*%
X147639999Y-73049420D02*
X147639999Y-73330580D01*
X148659999Y-73049420D02*
X148659999Y-73330580D01*
%TO.C,TP1*%
X142300000Y-75900000D02*
G75*
G02*
X140900000Y-75900000I-700000J0D01*
G01*
X140900000Y-75900000D02*
G75*
G02*
X142300000Y-75900000I700000J0D01*
G01*
%TO.C,C6*%
X145520015Y-95431394D02*
X145801175Y-95431394D01*
X145520015Y-96451394D02*
X145801175Y-96451394D01*
%TO.C,U5*%
X144789999Y-77880000D02*
X148009999Y-77880000D01*
X144789999Y-78080000D02*
X144789999Y-77880000D01*
X144789999Y-81100000D02*
X144789999Y-80900000D01*
X148009999Y-77880000D02*
X148009999Y-78080000D01*
X148009999Y-80900000D02*
X148009999Y-81100000D01*
X148009999Y-81100000D02*
X144789999Y-81100000D01*
X144199999Y-78080000D02*
X143959999Y-77750000D01*
X144439999Y-77750000D01*
X144199999Y-78080000D01*
G36*
X144199999Y-78080000D02*
G01*
X143959999Y-77750000D01*
X144439999Y-77750000D01*
X144199999Y-78080000D01*
G37*
%TO.C,J8*%
X129493550Y-80420000D02*
X130953550Y-80420000D01*
X129493550Y-89360000D02*
X129493550Y-80420000D01*
X129493550Y-89360000D02*
X130953550Y-89360000D01*
X135003550Y-80420000D02*
X133203550Y-80420000D01*
X135003550Y-89360000D02*
X133203550Y-89360000D01*
%TD*%
M02*
