%TF.GenerationSoftware,KiCad,Pcbnew,9.0.7*%
%TF.CreationDate,2026-04-17T21:52:01+02:00*%
%TF.ProjectId,SensorHub_2.0,53656e73-6f72-4487-9562-5f322e302e6b,rev?*%
%TF.SameCoordinates,Original*%
%TF.FileFunction,Copper,L4,Bot*%
%TF.FilePolarity,Positive*%
%FSLAX46Y46*%
G04 Gerber Fmt 4.6, Leading zero omitted, Abs format (unit mm)*
G04 Created by KiCad (PCBNEW 9.0.7) date 2026-04-17 21:52:01*
%MOMM*%
%LPD*%
G01*
G04 APERTURE LIST*
G04 Aperture macros list*
%AMRoundRect*
0 Rectangle with rounded corners*
0 $1 Rounding radius*
0 $2 $3 $4 $5 $6 $7 $8 $9 X,Y pos of 4 corners*
0 Add a 4 corners polygon primitive as box body*
4,1,4,$2,$3,$4,$5,$6,$7,$8,$9,$2,$3,0*
0 Add four circle primitives for the rounded corners*
1,1,$1+$1,$2,$3*
1,1,$1+$1,$4,$5*
1,1,$1+$1,$6,$7*
1,1,$1+$1,$8,$9*
0 Add four rect primitives between the rounded corners*
20,1,$1+$1,$2,$3,$4,$5,0*
20,1,$1+$1,$4,$5,$6,$7,0*
20,1,$1+$1,$6,$7,$8,$9,0*
20,1,$1+$1,$8,$9,$2,$3,0*%
G04 Aperture macros list end*
%TA.AperFunction,ComponentPad*%
%ADD10C,1.000000*%
%TD*%
%TA.AperFunction,HeatsinkPad*%
%ADD11O,2.000000X0.900000*%
%TD*%
%TA.AperFunction,HeatsinkPad*%
%ADD12O,1.700000X0.900000*%
%TD*%
%TA.AperFunction,SMDPad,CuDef*%
%ADD13RoundRect,0.150000X0.825000X0.150000X-0.825000X0.150000X-0.825000X-0.150000X0.825000X-0.150000X0*%
%TD*%
%TA.AperFunction,SMDPad,CuDef*%
%ADD14RoundRect,0.225000X-0.225000X-0.250000X0.225000X-0.250000X0.225000X0.250000X-0.225000X0.250000X0*%
%TD*%
%TA.AperFunction,SMDPad,CuDef*%
%ADD15RoundRect,0.100000X0.100000X-0.130000X0.100000X0.130000X-0.100000X0.130000X-0.100000X-0.130000X0*%
%TD*%
%TA.AperFunction,SMDPad,CuDef*%
%ADD16RoundRect,0.100000X-0.100000X0.130000X-0.100000X-0.130000X0.100000X-0.130000X0.100000X0.130000X0*%
%TD*%
%TA.AperFunction,SMDPad,CuDef*%
%ADD17RoundRect,0.225000X-0.250000X0.225000X-0.250000X-0.225000X0.250000X-0.225000X0.250000X0.225000X0*%
%TD*%
%TA.AperFunction,SMDPad,CuDef*%
%ADD18RoundRect,0.125000X0.125000X-0.537500X0.125000X0.537500X-0.125000X0.537500X-0.125000X-0.537500X0*%
%TD*%
%TA.AperFunction,SMDPad,CuDef*%
%ADD19R,1.160000X0.600000*%
%TD*%
%TA.AperFunction,SMDPad,CuDef*%
%ADD20R,1.160000X0.300000*%
%TD*%
%TA.AperFunction,SMDPad,CuDef*%
%ADD21R,0.250000X1.100000*%
%TD*%
%TA.AperFunction,SMDPad,CuDef*%
%ADD22RoundRect,0.225000X0.250000X-0.225000X0.250000X0.225000X-0.250000X0.225000X-0.250000X-0.225000X0*%
%TD*%
%TA.AperFunction,ViaPad*%
%ADD23C,0.300000*%
%TD*%
%TA.AperFunction,ViaPad*%
%ADD24C,0.600000*%
%TD*%
%TA.AperFunction,ViaPad*%
%ADD25C,0.400000*%
%TD*%
%TA.AperFunction,Conductor*%
%ADD26C,0.200000*%
%TD*%
%TA.AperFunction,Conductor*%
%ADD27C,0.300000*%
%TD*%
%TA.AperFunction,Conductor*%
%ADD28C,0.400000*%
%TD*%
G04 APERTURE END LIST*
D10*
%TO.P,TP7,1,1*%
%TO.N,/GP2*%
X153100000Y-90000000D03*
%TD*%
%TO.P,TP3,1,1*%
%TO.N,/SDA_0*%
X167000000Y-93900000D03*
%TD*%
%TO.P,TP6,1,1*%
%TO.N,/RA4E2_microcontroller/EXTAL*%
X163600000Y-72200000D03*
%TD*%
%TO.P,TP5,1,1*%
%TO.N,/RES*%
X139500000Y-75900000D03*
%TD*%
%TO.P,TP10,1,1*%
%TO.N,GND*%
X148600000Y-90000000D03*
%TD*%
%TO.P,TP2,1,1*%
%TO.N,/GP3*%
X150800000Y-90000000D03*
%TD*%
%TO.P,TP8,1,1*%
%TO.N,/TXD*%
X167000000Y-89900000D03*
%TD*%
%TO.P,TP4,1,1*%
%TO.N,/SCL_0*%
X167000000Y-91900000D03*
%TD*%
%TO.P,TP1,1,1*%
%TO.N,/RA4E2_microcontroller/Boot*%
X141600000Y-75900000D03*
%TD*%
D11*
%TO.P,J8,S1,SHIELD*%
%TO.N,GND*%
X136263550Y-80570000D03*
D12*
X132093550Y-80570000D03*
D11*
X136263550Y-89210000D03*
D12*
X132093550Y-89210000D03*
%TD*%
D13*
%TO.P,U10,1*%
%TO.N,Net-(U10D-+)*%
X148274999Y-79480000D03*
%TO.P,U10,2*%
%TO.N,/USB_C_2.0+SBUS/cable_orient*%
X148274999Y-80750000D03*
%TO.P,U10,3,V+*%
%TO.N,/V_Bus*%
X148274999Y-82020000D03*
%TO.P,U10,4,-*%
%TO.N,/USB_C_2.0+SBUS/CC2*%
X148274999Y-83290000D03*
%TO.P,U10,5,+*%
%TO.N,/USB_C_2.0+SBUS/CC1*%
X148274999Y-84560000D03*
%TO.P,U10,6,-*%
X148274999Y-85830000D03*
%TO.P,U10,7,+*%
%TO.N,Net-(U10B-+)*%
X148274999Y-87100000D03*
%TO.P,U10,8,-*%
X143324999Y-87100000D03*
%TO.P,U10,9,+*%
%TO.N,Net-(U10D-+)*%
X143324999Y-85830000D03*
%TO.P,U10,10,-*%
%TO.N,/USB_C_2.0+SBUS/CC2*%
X143324999Y-84560000D03*
%TO.P,U10,11,+*%
%TO.N,Net-(U10B-+)*%
X143324999Y-83290000D03*
%TO.P,U10,12,V-*%
%TO.N,GND*%
X143324999Y-82020000D03*
%TO.P,U10,13*%
%TO.N,Net-(U10D-+)*%
X143324999Y-80750000D03*
%TO.P,U10,14*%
%TO.N,/USB_C_2.0+SBUS/EN*%
X143324999Y-79480000D03*
%TD*%
D14*
%TO.P,C11,1*%
%TO.N,+3.3V*%
X156324999Y-87390000D03*
%TO.P,C11,2*%
%TO.N,GND*%
X157874999Y-87390000D03*
%TD*%
D15*
%TO.P,R7,1*%
%TO.N,+3.3V*%
X160499999Y-78530000D03*
%TO.P,R7,2*%
%TO.N,/SCL_0*%
X160499999Y-77890000D03*
%TD*%
D16*
%TO.P,R14,1*%
%TO.N,Net-(C4-Pad1)*%
X153949999Y-80185000D03*
%TO.P,R14,2*%
%TO.N,/Can_L*%
X153949999Y-80825000D03*
%TD*%
D14*
%TO.P,C10,1*%
%TO.N,/RA4E2_microcontroller/VCL*%
X159024999Y-76090000D03*
%TO.P,C10,2*%
%TO.N,GND*%
X160574999Y-76090000D03*
%TD*%
D17*
%TO.P,C14,1*%
%TO.N,+3.3V*%
X162699999Y-82190000D03*
%TO.P,C14,2*%
%TO.N,GND*%
X162699999Y-83740000D03*
%TD*%
D18*
%TO.P,U3,1,TXD*%
%TO.N,/TXD*%
X156049999Y-84480000D03*
%TO.P,U3,2,GND*%
%TO.N,GND*%
X155399999Y-84480000D03*
%TO.P,U3,3,VCC*%
%TO.N,+3.3V*%
X154749999Y-84480000D03*
%TO.P,U3,4,RXD*%
%TO.N,/RXD*%
X154099999Y-84480000D03*
%TO.P,U3,5,SHDN*%
%TO.N,GND*%
X154099999Y-82205000D03*
%TO.P,U3,6,CANL*%
%TO.N,/Can_L*%
X154749999Y-82205000D03*
%TO.P,U3,7,CANH*%
%TO.N,/Can_H*%
X155399999Y-82205000D03*
%TO.P,U3,8,STB*%
%TO.N,GND*%
X156049999Y-82205000D03*
%TD*%
D14*
%TO.P,C4,1*%
%TO.N,Net-(C4-Pad1)*%
X155749999Y-80505000D03*
%TO.P,C4,2*%
%TO.N,GND*%
X157299999Y-80505000D03*
%TD*%
D19*
%TO.P,J6,A1,GND*%
%TO.N,GND*%
X136843550Y-88090000D03*
%TO.P,J6,A4,VBUS*%
%TO.N,/V_Bus*%
X136843550Y-87290000D03*
D20*
%TO.P,J6,A5,CC1*%
%TO.N,/USB_C_2.0+SBUS/CC1*%
X136843550Y-86140000D03*
%TO.P,J6,A6,D+*%
%TO.N,/USB_DM*%
X136843550Y-85140000D03*
%TO.P,J6,A7,D-*%
%TO.N,/USB_DP*%
X136843550Y-84640000D03*
%TO.P,J6,A8,SBU1*%
%TO.N,/USB_C_2.0+SBUS/SBU1*%
X136843550Y-83640000D03*
D19*
%TO.P,J6,A9,VBUS*%
%TO.N,/V_Bus*%
X136843550Y-82490000D03*
%TO.P,J6,A12,GND*%
%TO.N,GND*%
X136843550Y-81690000D03*
%TO.P,J6,B1,GND*%
X136843550Y-81690000D03*
%TO.P,J6,B4,VBUS*%
%TO.N,/V_Bus*%
X136843550Y-82490000D03*
D20*
%TO.P,J6,B5,CC2*%
%TO.N,/USB_C_2.0+SBUS/CC2*%
X136843550Y-83140000D03*
%TO.P,J6,B6,D+*%
%TO.N,/USB_DM*%
X136843550Y-84140000D03*
%TO.P,J6,B7,D-*%
%TO.N,/USB_DP*%
X136843550Y-85640000D03*
%TO.P,J6,B8,SBU2*%
%TO.N,/USB_C_2.0+SBUS/SBU2*%
X136843550Y-86640000D03*
D19*
%TO.P,J6,B9,VBUS*%
%TO.N,/V_Bus*%
X136843550Y-87290000D03*
%TO.P,J6,B12,GND*%
%TO.N,GND*%
X136843550Y-88090000D03*
D12*
%TO.P,J6,S1,SHIELD*%
X132093550Y-89210000D03*
D11*
X136263550Y-89210000D03*
D12*
X132093550Y-80570000D03*
D11*
X136263550Y-80570000D03*
%TD*%
D14*
%TO.P,C13,1*%
%TO.N,+3.3V*%
X156024999Y-76090000D03*
%TO.P,C13,2*%
%TO.N,GND*%
X157574999Y-76090000D03*
%TD*%
D21*
%TO.P,J3,1,1*%
%TO.N,GND*%
X161748999Y-91600000D03*
%TO.P,J3,2,2*%
%TO.N,/SCL_0*%
X161248999Y-91600000D03*
%TO.P,J3,3,3*%
%TO.N,GND*%
X160748999Y-91600000D03*
%TO.P,J3,4,4*%
%TO.N,/SDA_0*%
X160248999Y-91600000D03*
%TO.P,J3,5,5*%
%TO.N,GND*%
X159748999Y-91600000D03*
%TO.P,J3,6,6*%
%TO.N,/CS*%
X159248999Y-91600000D03*
%TO.P,J3,7,7*%
%TO.N,/SCK*%
X158748999Y-91600000D03*
%TO.P,J3,8,8*%
%TO.N,/MOSI*%
X158248999Y-91600000D03*
%TO.P,J3,9,9*%
%TO.N,/MISO*%
X157748999Y-91600000D03*
%TO.P,J3,10,10*%
%TO.N,GND*%
X157248999Y-91600000D03*
%TO.P,J3,11,11*%
X161748999Y-97100000D03*
%TO.P,J3,12,12*%
%TO.N,+3.3V*%
X161248999Y-97100000D03*
%TO.P,J3,13,13*%
%TO.N,GND*%
X160748999Y-97100000D03*
%TO.P,J3,14,14*%
%TO.N,/Analog*%
X160248999Y-97100000D03*
%TO.P,J3,15,15*%
%TO.N,GND*%
X159748999Y-97100000D03*
%TO.P,J3,16,16*%
%TO.N,/INT2*%
X159248999Y-97100000D03*
%TO.P,J3,17,17*%
%TO.N,/GP1*%
X158748999Y-97100000D03*
%TO.P,J3,18,18*%
%TO.N,GND*%
X158248999Y-97100000D03*
%TO.P,J3,19,19*%
%TO.N,+5V*%
X157748999Y-97100000D03*
%TO.P,J3,20,20*%
%TO.N,GND*%
X157248999Y-97100000D03*
%TD*%
D16*
%TO.P,R13,1*%
%TO.N,Net-(C4-Pad1)*%
X154649999Y-80185000D03*
%TO.P,R13,2*%
%TO.N,/Can_H*%
X154649999Y-80825000D03*
%TD*%
D22*
%TO.P,C17,1*%
%TO.N,+3.3V*%
X151599999Y-79665000D03*
%TO.P,C17,2*%
%TO.N,GND*%
X151599999Y-78115000D03*
%TD*%
%TO.P,C18,1*%
%TO.N,+3.3V*%
X162699999Y-80590000D03*
%TO.P,C18,2*%
%TO.N,GND*%
X162699999Y-79040000D03*
%TD*%
D15*
%TO.P,R15,1*%
%TO.N,+3.3V*%
X159699999Y-78530000D03*
%TO.P,R15,2*%
%TO.N,/SDA_0*%
X159699999Y-77890000D03*
%TD*%
D23*
%TO.N,/USB_C_2.0+SBUS/SBU2*%
X135058547Y-84890000D03*
X145499999Y-79490000D03*
X139599999Y-78290000D03*
X146899999Y-79490000D03*
%TO.N,/USB_C_2.0+SBUS/CC1*%
X139699999Y-85890000D03*
X135533550Y-84890000D03*
%TO.N,/Can_H*%
X149999999Y-80965003D03*
X155289999Y-81345000D03*
X153600000Y-81400000D03*
%TO.N,/Can_L*%
X149999999Y-80490000D03*
%TO.N,GND*%
X160748999Y-90640000D03*
D24*
X162200000Y-92150000D03*
X157788909Y-92911091D03*
X166159999Y-77490000D03*
X147499999Y-97290000D03*
X158198999Y-95900000D03*
X151300000Y-75200000D03*
D23*
X161748999Y-90640000D03*
D24*
X155061177Y-83288758D03*
X161599999Y-83690000D03*
X140837499Y-79390000D03*
X156400000Y-97700000D03*
D23*
X159748999Y-90640000D03*
D24*
X159700000Y-92900000D03*
D23*
X159754127Y-98140000D03*
D24*
X142500000Y-76900000D03*
X157409306Y-77240066D03*
X141599999Y-86690000D03*
X147499999Y-95790000D03*
X152600999Y-77700000D03*
X163000000Y-73900000D03*
X144899999Y-81390000D03*
X161299999Y-77390000D03*
D23*
X144400000Y-71490000D03*
D24*
X157300000Y-81800000D03*
X166499999Y-79390000D03*
D23*
X157254127Y-98140000D03*
D24*
X161599999Y-78290000D03*
X158800000Y-71800000D03*
D23*
X158254127Y-98140000D03*
D24*
X150300000Y-75600000D03*
X161800000Y-96100000D03*
D23*
X160754127Y-98140000D03*
D24*
X151000000Y-94900000D03*
X146100000Y-85679616D03*
X140999999Y-90800000D03*
X159900000Y-95900000D03*
X154625701Y-94930093D03*
X140799999Y-84790000D03*
X157199999Y-86390000D03*
D23*
X157248999Y-90640000D03*
D24*
X145599999Y-91590000D03*
D23*
%TO.N,/RES*%
X150000000Y-79900000D03*
X152000000Y-90800000D03*
X150000000Y-82100000D03*
%TO.N,/RXD*%
X160800000Y-86600000D03*
%TO.N,/USB_DM*%
X147100000Y-86600000D03*
X149600000Y-86700000D03*
X152500000Y-84300000D03*
X137751279Y-84251419D03*
X141999999Y-82690000D03*
%TO.N,/USB_DP*%
X149500000Y-85400000D03*
X152500000Y-83600000D03*
X135933597Y-85528338D03*
X141999999Y-85890000D03*
%TO.N,/Analog*%
X165400000Y-89000000D03*
X163000000Y-93600000D03*
X160254127Y-98140000D03*
D24*
%TO.N,+5V*%
X142300000Y-97600000D03*
D23*
X157754127Y-98140000D03*
D24*
%TO.N,+3.3V*%
X167354999Y-79390000D03*
X161599999Y-82090000D03*
X166600000Y-75600000D03*
X160500000Y-71700000D03*
X152599999Y-79690000D03*
X154900000Y-85550000D03*
D23*
X161254127Y-98140000D03*
D24*
X148500000Y-94800000D03*
X160099999Y-79290000D03*
X165599999Y-79390000D03*
X161599999Y-80590000D03*
X164099999Y-80690000D03*
D23*
X149800000Y-77100000D03*
D24*
X155799999Y-77190000D03*
D23*
X145200000Y-71490000D03*
D24*
X156299999Y-86490000D03*
X145599999Y-90190000D03*
X141000000Y-92200000D03*
D23*
%TO.N,/CS*%
X159248999Y-90640000D03*
%TO.N,/SCK*%
X158748999Y-90640000D03*
%TO.N,/INT2*%
X158600000Y-88900000D03*
X159254127Y-98140000D03*
X156800000Y-90300000D03*
%TO.N,/SCL_0*%
X160499999Y-77290000D03*
X161248999Y-90640000D03*
%TO.N,/SDA_0*%
X160248999Y-90640000D03*
X165099999Y-75690000D03*
X159699999Y-77290000D03*
X164199999Y-74790000D03*
D24*
%TO.N,/V_Bus*%
X146899999Y-81990000D03*
D23*
X134582547Y-84900000D03*
D24*
%TO.N,/RA4E2_microcontroller/VCL*%
X158799999Y-77190000D03*
D23*
%TO.N,/RA4E2_microcontroller/SWDIO*%
X153300000Y-86700000D03*
X151900000Y-88100000D03*
%TO.N,/MOSI*%
X158248999Y-90640000D03*
%TO.N,/GP1*%
X158754127Y-98140000D03*
%TO.N,/MISO*%
X157748999Y-90640000D03*
D24*
%TO.N,/RA4E2_microcontroller/Boot*%
X147149999Y-74390000D03*
D23*
X149900000Y-82700000D03*
X150000000Y-78000000D03*
%TO.N,/RA4E2_microcontroller/EXTAL*%
X160000000Y-73900000D03*
%TO.N,/USB_C_2.0+SBUS/CC2*%
X139699999Y-82690000D03*
X138633550Y-84890000D03*
%TO.N,/RA4E2_microcontroller/LED*%
X153300000Y-79700000D03*
X153300000Y-77500000D03*
%TO.N,/TXD*%
X160300000Y-86600000D03*
%TO.N,/USB_C_2.0+SBUS/SBU1*%
X146105000Y-79395000D03*
X139599999Y-81490000D03*
X138133550Y-84890000D03*
%TO.N,Net-(U10B-+)*%
X144749999Y-85696857D03*
X144696089Y-83386091D03*
%TO.N,Net-(U10D-+)*%
X143299999Y-86390000D03*
X144699999Y-82690000D03*
D25*
%TO.N,/USB_C_2.0+SBUS/EN*%
X142100000Y-81490000D03*
X146900000Y-78964998D03*
D23*
%TO.N,/GP3*%
X150000000Y-86200000D03*
%TO.N,/USB_C_2.0+SBUS/cable_orient*%
X145199999Y-78490000D03*
%TD*%
D26*
%TO.N,/USB_C_2.0+SBUS/CC1*%
X135941095Y-86140000D02*
X136843550Y-86140000D01*
X135500000Y-85698905D02*
X135941095Y-86140000D01*
X135500000Y-84923550D02*
X135500000Y-85698905D01*
X135533550Y-84890000D02*
X135500000Y-84923550D01*
%TO.N,/USB_DP*%
X136043234Y-85640000D02*
X136843550Y-85640000D01*
X135933597Y-85530363D02*
X136043234Y-85640000D01*
X135933597Y-85528338D02*
X135933597Y-85530363D01*
D27*
%TO.N,GND*%
X157574999Y-77165000D02*
X157574999Y-76090000D01*
X157499933Y-77240066D02*
X157574999Y-77165000D01*
X157409306Y-77240066D02*
X157499933Y-77240066D01*
D26*
%TO.N,/USB_DM*%
X137751279Y-84250861D02*
X137640418Y-84140000D01*
X137640418Y-84140000D02*
X136843550Y-84140000D01*
X137751279Y-84251419D02*
X137751279Y-84250861D01*
%TO.N,/USB_C_2.0+SBUS/SBU1*%
X137746005Y-83640000D02*
X136843550Y-83640000D01*
X138207282Y-84101277D02*
X137746005Y-83640000D01*
X138207282Y-84816268D02*
X138207282Y-84101277D01*
X138133550Y-84890000D02*
X138207282Y-84816268D01*
%TO.N,/USB_C_2.0+SBUS/SBU2*%
X146568999Y-79821000D02*
X146899999Y-79490000D01*
X145830999Y-79821000D02*
X146568999Y-79821000D01*
X135058547Y-84890000D02*
X135058547Y-85753840D01*
X135058547Y-85753840D02*
X135944707Y-86640000D01*
X145499999Y-79490000D02*
X145830999Y-79821000D01*
X135944707Y-86640000D02*
X136843550Y-86640000D01*
%TO.N,/USB_C_2.0+SBUS/CC1*%
X141239615Y-85129616D02*
X140479231Y-85890000D01*
X147705383Y-85129616D02*
X147705383Y-85260384D01*
X140479231Y-85890000D02*
X139699999Y-85890000D01*
X147705383Y-85129616D02*
X141239615Y-85129616D01*
X148274999Y-84560000D02*
X147705383Y-85129616D01*
X147705383Y-85260384D02*
X148274999Y-85830000D01*
%TO.N,/Can_H*%
X153509999Y-81400000D02*
X153075002Y-80965003D01*
X153075002Y-80965003D02*
X149999999Y-80965003D01*
X155399999Y-81575000D02*
X154649999Y-80825000D01*
X155399999Y-82205000D02*
X155399999Y-81575000D01*
X153600000Y-81400000D02*
X153509999Y-81400000D01*
%TO.N,/Can_L*%
X153634999Y-80825000D02*
X153949999Y-80825000D01*
X154749999Y-82045000D02*
X154749999Y-81654160D01*
X153299999Y-80490000D02*
X153634999Y-80825000D01*
X149999999Y-80490000D02*
X153299999Y-80490000D01*
X154749999Y-81654160D02*
X153949999Y-80854160D01*
X154749999Y-82205000D02*
X154749999Y-82045000D01*
%TO.N,GND*%
X160872999Y-96339000D02*
X160748999Y-96463000D01*
X160748999Y-92392001D02*
X160700000Y-92441000D01*
D27*
X152600999Y-77700000D02*
X152210999Y-78090000D01*
D26*
X161697999Y-92441000D02*
X161988999Y-92150000D01*
X159748999Y-90640000D02*
X159748999Y-91640000D01*
X159861000Y-96300000D02*
X159861000Y-95939000D01*
D28*
X155399999Y-83544130D02*
X155074369Y-83218500D01*
X156049999Y-82894130D02*
X156049999Y-82205000D01*
D26*
X159748999Y-92390000D02*
X159748999Y-91640000D01*
X159624999Y-96339000D02*
X159748999Y-96463000D01*
D28*
X155399999Y-84480000D02*
X155399999Y-83544130D01*
D27*
X162349999Y-79040000D02*
X161599999Y-78290000D01*
D26*
X160754127Y-97145128D02*
X160748999Y-97140000D01*
X157372999Y-92441000D02*
X159697999Y-92441000D01*
X157372999Y-92441000D02*
X157372999Y-92495181D01*
X161754127Y-97145128D02*
X161748999Y-97140000D01*
X157254127Y-98140000D02*
X157254127Y-97145128D01*
X159754127Y-98140000D02*
X159754127Y-97145128D01*
X158299999Y-96339000D02*
X159500000Y-96339000D01*
X144269999Y-82020000D02*
X144899999Y-81390000D01*
X159861000Y-95939000D02*
X159900000Y-95900000D01*
X161697999Y-92441000D02*
X160700000Y-92441000D01*
X157248999Y-90640000D02*
X157248999Y-91640000D01*
X156820528Y-97140000D02*
X157248999Y-97140000D01*
X159900000Y-96339000D02*
X159861000Y-96300000D01*
X158299999Y-96001000D02*
X158198999Y-95900000D01*
X161748999Y-96463000D02*
X161624999Y-96339000D01*
X156400000Y-97560528D02*
X156820528Y-97140000D01*
D27*
X161649999Y-83740000D02*
X161599999Y-83690000D01*
D26*
X143324999Y-82020000D02*
X144269999Y-82020000D01*
X159500000Y-96339000D02*
X159624999Y-96339000D01*
X157248999Y-91640000D02*
X157248999Y-92317000D01*
D27*
X136843550Y-88090000D02*
X136843550Y-88630000D01*
D28*
X157299999Y-80505000D02*
X157300000Y-81800000D01*
D26*
X159748999Y-92390000D02*
X159700000Y-92438999D01*
X160748999Y-96463000D02*
X160748999Y-97140000D01*
D28*
X155074369Y-83218500D02*
X154424369Y-83218500D01*
D27*
X157874999Y-87390000D02*
X157874999Y-87065000D01*
D28*
X154424369Y-83218500D02*
X154099999Y-82894130D01*
D27*
X162699999Y-83740000D02*
X161649999Y-83740000D01*
D26*
X159700000Y-92438999D02*
X159700000Y-92900000D01*
X158299999Y-96339000D02*
X158299999Y-96001000D01*
D27*
X136843550Y-81690000D02*
X136843550Y-81150000D01*
D26*
X159754127Y-97145128D02*
X159748999Y-97140000D01*
X160748999Y-91640000D02*
X160748999Y-92392001D01*
X161988999Y-92150000D02*
X162200000Y-92150000D01*
D27*
X152210999Y-78090000D02*
X151624999Y-78090000D01*
D26*
X161748999Y-90640000D02*
X161748999Y-91640000D01*
X159500000Y-96339000D02*
X159900000Y-96339000D01*
X158254127Y-97145128D02*
X158248999Y-97140000D01*
X161748999Y-91640000D02*
X161748999Y-92390000D01*
X158254127Y-98140000D02*
X158254127Y-97145128D01*
D27*
X162699999Y-79040000D02*
X162349999Y-79040000D01*
D26*
X157254127Y-97145128D02*
X157248999Y-97140000D01*
X157248999Y-92317000D02*
X157372999Y-92441000D01*
X159900000Y-96339000D02*
X160872999Y-96339000D01*
D27*
X136843550Y-81150000D02*
X136263550Y-80570000D01*
D26*
X157372999Y-92495181D02*
X157788909Y-92911091D01*
D28*
X155725629Y-83218500D02*
X156049999Y-82894130D01*
D26*
X158248999Y-97140000D02*
X158248999Y-96390000D01*
D27*
X157874999Y-87065000D02*
X157199999Y-86390000D01*
X151624999Y-78090000D02*
X151599999Y-78115000D01*
D26*
X158248999Y-96390000D02*
X158299999Y-96339000D01*
D28*
X154099999Y-82894130D02*
X154099999Y-82205000D01*
D26*
X156400000Y-97700000D02*
X156400000Y-97560528D01*
D28*
X155074369Y-83218500D02*
X155725629Y-83218500D01*
D26*
X161624999Y-96339000D02*
X160872999Y-96339000D01*
D27*
X160574999Y-76665000D02*
X161299999Y-77390000D01*
X136843550Y-88630000D02*
X136263550Y-89210000D01*
X160574999Y-76090000D02*
X160574999Y-76665000D01*
D26*
X160754127Y-98140000D02*
X160754127Y-97145128D01*
X161748999Y-92390000D02*
X161697999Y-92441000D01*
X159697999Y-92441000D02*
X159748999Y-92390000D01*
X161748999Y-97140000D02*
X161748999Y-96463000D01*
X160748999Y-90640000D02*
X160748999Y-91640000D01*
X160700000Y-92441000D02*
X159697999Y-92441000D01*
X159748999Y-96463000D02*
X159748999Y-97140000D01*
%TO.N,/RES*%
X139500000Y-75900000D02*
X141591000Y-77991000D01*
X151151000Y-87953455D02*
X151151000Y-83251000D01*
X151151000Y-83251000D02*
X150000000Y-82100000D01*
X141591000Y-77991000D02*
X148828643Y-77991000D01*
X152000000Y-88802455D02*
X151151000Y-87953455D01*
X150000000Y-79162357D02*
X150000000Y-79900000D01*
X148828643Y-77991000D02*
X150000000Y-79162357D01*
X152000000Y-90800000D02*
X152000000Y-88802455D01*
%TO.N,/RXD*%
X155600000Y-85800000D02*
X158897545Y-85800000D01*
X155300000Y-86100000D02*
X155600000Y-85800000D01*
X158897545Y-85800000D02*
X160123545Y-87026000D01*
X160476455Y-87026000D02*
X160800000Y-86702455D01*
X154099999Y-85799999D02*
X154400000Y-86100000D01*
X154400000Y-86100000D02*
X155300000Y-86100000D01*
X160123545Y-87026000D02*
X160476455Y-87026000D01*
X154099999Y-84480000D02*
X154099999Y-85799999D01*
X160800000Y-86702455D02*
X160800000Y-86600000D01*
%TO.N,/USB_DM*%
X149449000Y-86549000D02*
X147151000Y-86549000D01*
X149600000Y-86700000D02*
X149449000Y-86549000D01*
X136012550Y-85041000D02*
X136111550Y-85140000D01*
X147151000Y-86549000D02*
X147100000Y-86600000D01*
X136111550Y-85140000D02*
X136843550Y-85140000D01*
X136111550Y-84140000D02*
X136012550Y-84239000D01*
X136843550Y-84140000D02*
X136111550Y-84140000D01*
X136012550Y-84239000D02*
X136012550Y-85041000D01*
%TO.N,/USB_DP*%
X137674550Y-84739000D02*
X137674550Y-85589000D01*
X137623550Y-85640000D02*
X136843550Y-85640000D01*
X137575550Y-84640000D02*
X137674550Y-84739000D01*
X136843550Y-84640000D02*
X137575550Y-84640000D01*
X137674550Y-85589000D02*
X137623550Y-85640000D01*
%TO.N,/Analog*%
X160254127Y-98140000D02*
X160254127Y-97145128D01*
X160254127Y-97145128D02*
X160248999Y-97140000D01*
X163000000Y-93600000D02*
X165400000Y-91200000D01*
X165400000Y-91200000D02*
X165400000Y-89000000D01*
%TO.N,+5V*%
X157754127Y-97145128D02*
X157748999Y-97140000D01*
X157754127Y-98140000D02*
X157754127Y-97145128D01*
D27*
X142597962Y-97897962D02*
X155214037Y-97897962D01*
X155214037Y-97897962D02*
X156822999Y-96289000D01*
X142300000Y-97600000D02*
X142597962Y-97897962D01*
X156822999Y-96289000D02*
X157674999Y-96289000D01*
X157674999Y-96289000D02*
X157748999Y-96363000D01*
X157748999Y-96363000D02*
X157748999Y-97140000D01*
D26*
%TO.N,+3.3V*%
X161254127Y-98140000D02*
X161254127Y-97145128D01*
D28*
X156024999Y-76090000D02*
X156024999Y-76965000D01*
D26*
X159699999Y-78890000D02*
X160099999Y-79290000D01*
D27*
X154749999Y-84480000D02*
X154749999Y-85399999D01*
D26*
X161254127Y-97145128D02*
X161248999Y-97140000D01*
D27*
X152574999Y-79665000D02*
X152599999Y-79690000D01*
X156299999Y-87365000D02*
X156324999Y-87390000D01*
X154749999Y-85399999D02*
X154900000Y-85550000D01*
X161599999Y-80590000D02*
X162699999Y-80590000D01*
D26*
X160499999Y-78530000D02*
X160499999Y-78890000D01*
X159699999Y-78530000D02*
X159699999Y-78890000D01*
D27*
X156299999Y-86490000D02*
X156299999Y-87365000D01*
D28*
X156024999Y-76965000D02*
X155799999Y-77190000D01*
D27*
X151599999Y-79665000D02*
X152574999Y-79665000D01*
X162599999Y-82090000D02*
X161599999Y-82090000D01*
X162699999Y-82190000D02*
X162599999Y-82090000D01*
D26*
X160499999Y-78890000D02*
X160099999Y-79290000D01*
%TO.N,Net-(C4-Pad1)*%
X155749999Y-80505000D02*
X155429999Y-80185000D01*
X155429999Y-80185000D02*
X153949999Y-80185000D01*
%TO.N,/CS*%
X159248999Y-90640000D02*
X159248999Y-91640000D01*
%TO.N,/SCK*%
X158748999Y-90640000D02*
X158748999Y-91640000D01*
%TO.N,/INT2*%
X158200000Y-88900000D02*
X158600000Y-88900000D01*
X159254127Y-98140000D02*
X159254127Y-97145128D01*
X159254127Y-97145128D02*
X159248999Y-97140000D01*
X156800000Y-90300000D02*
X158200000Y-88900000D01*
%TO.N,/SCL_0*%
X161248999Y-90640000D02*
X161248999Y-91640000D01*
X160499999Y-77890000D02*
X160499999Y-77290000D01*
%TO.N,/SDA_0*%
X165099999Y-75690000D02*
X164199999Y-74790000D01*
X160248999Y-90640000D02*
X160248999Y-91640000D01*
X159699999Y-77890000D02*
X159699999Y-77290000D01*
D27*
%TO.N,/V_Bus*%
X134582547Y-85844940D02*
X135816607Y-87079000D01*
X135850087Y-82701000D02*
X134582547Y-83968540D01*
X136843550Y-82490000D02*
X136644550Y-82689000D01*
X135816607Y-87079000D02*
X136079000Y-87079000D01*
X134582547Y-83968540D02*
X134582547Y-84900000D01*
X134582547Y-84900000D02*
X134582547Y-85844940D01*
X136290000Y-87290000D02*
X136843550Y-87290000D01*
X136644550Y-82689000D02*
X136085914Y-82689000D01*
X136073914Y-82701000D02*
X135850087Y-82701000D01*
X136079000Y-87079000D02*
X136290000Y-87290000D01*
X148244999Y-81990000D02*
X148274999Y-82020000D01*
X136085914Y-82689000D02*
X136073914Y-82701000D01*
X146899999Y-81990000D02*
X148244999Y-81990000D01*
%TO.N,/RA4E2_microcontroller/VCL*%
X158799999Y-76315000D02*
X159024999Y-76090000D01*
X158799999Y-77190000D02*
X158799999Y-76315000D01*
D26*
%TO.N,/RA4E2_microcontroller/SWDIO*%
X151900000Y-88100000D02*
X153300000Y-86700000D01*
%TO.N,/MOSI*%
X158248999Y-90640000D02*
X158248999Y-91640000D01*
%TO.N,/GP1*%
X158754127Y-97145128D02*
X158748999Y-97140000D01*
X158754127Y-98140000D02*
X158754127Y-97145128D01*
%TO.N,/MISO*%
X157748999Y-90640000D02*
X157748999Y-91640000D01*
%TO.N,/RA4E2_microcontroller/Boot*%
X150000000Y-78000000D02*
X147209619Y-75209619D01*
X141600000Y-75900000D02*
X143110000Y-74390000D01*
X147209619Y-75209619D02*
X147209619Y-74330381D01*
X143110000Y-74390000D02*
X147149999Y-74390000D01*
%TO.N,/RA4E2_microcontroller/EXTAL*%
X161700000Y-72200000D02*
X163600000Y-72200000D01*
X160000000Y-73900000D02*
X161700000Y-72200000D01*
%TO.N,/USB_C_2.0+SBUS/CC2*%
X143324999Y-84560000D02*
X144299998Y-84560000D01*
X141569999Y-84560000D02*
X143324999Y-84560000D01*
X138633550Y-84031157D02*
X137742393Y-83140000D01*
X137742393Y-83140000D02*
X136843550Y-83140000D01*
X145569998Y-83290000D02*
X148274999Y-83290000D01*
X139699999Y-82690000D02*
X141569999Y-84560000D01*
X144299998Y-84560000D02*
X145569998Y-83290000D01*
X138633550Y-84890000D02*
X138633550Y-84031157D01*
%TO.N,/RA4E2_microcontroller/LED*%
X153300000Y-79700000D02*
X153300000Y-77500000D01*
%TO.N,/TXD*%
X160623545Y-86174000D02*
X160300000Y-86497545D01*
X156049999Y-84480000D02*
X156049999Y-84949999D01*
X156049999Y-84949999D02*
X156500000Y-85400000D01*
X167000000Y-89900000D02*
X163274000Y-86174000D01*
X159100000Y-85400000D02*
X160300000Y-86600000D01*
X156500000Y-85400000D02*
X159100000Y-85400000D01*
X160300000Y-86497545D02*
X160300000Y-86600000D01*
X163274000Y-86174000D02*
X160623545Y-86174000D01*
%TO.N,Net-(U10B-+)*%
X144749999Y-86649999D02*
X145200000Y-87100000D01*
X145200000Y-87100000D02*
X148274999Y-87100000D01*
X144599998Y-83290000D02*
X144696089Y-83386091D01*
X143324999Y-83290000D02*
X144599998Y-83290000D01*
X144749999Y-85696857D02*
X144749999Y-86649999D01*
X144749999Y-86649999D02*
X144299998Y-87100000D01*
X144299998Y-87100000D02*
X143324999Y-87100000D01*
%TO.N,Net-(U10D-+)*%
X147555999Y-80199000D02*
X148274999Y-79480000D01*
X145450999Y-81939000D02*
X145450999Y-80250000D01*
X143324999Y-86365000D02*
X143299999Y-86390000D01*
X145450999Y-80250000D02*
X145399999Y-80199000D01*
X144699999Y-82690000D02*
X145450999Y-81939000D01*
X143324999Y-85830000D02*
X143324999Y-86365000D01*
X143324999Y-80750000D02*
X143875999Y-80199000D01*
X145399999Y-80199000D02*
X147555999Y-80199000D01*
X143875999Y-80199000D02*
X145399999Y-80199000D01*
%TO.N,/USB_C_2.0+SBUS/EN*%
X146875002Y-78940000D02*
X146900000Y-78964998D01*
X143048743Y-79480000D02*
X142100000Y-80428743D01*
X142100000Y-80428743D02*
X142100000Y-81490000D01*
X143864999Y-78940000D02*
X146875002Y-78940000D01*
X143324999Y-79480000D02*
X143864999Y-78940000D01*
X143324999Y-79480000D02*
X143048743Y-79480000D01*
%TO.N,/GP3*%
X150800000Y-90000000D02*
X150800000Y-87000000D01*
X150800000Y-87000000D02*
X150000000Y-86200000D01*
%TO.N,/USB_C_2.0+SBUS/cable_orient*%
X149500999Y-79159744D02*
X148831255Y-78490000D01*
X149249998Y-80750000D02*
X149500999Y-80498999D01*
X148274999Y-80750000D02*
X149249998Y-80750000D01*
X149500999Y-80498999D02*
X149500999Y-79159744D01*
X148831255Y-78490000D02*
X145199999Y-78490000D01*
%TD*%
M02*
