%TF.GenerationSoftware,KiCad,Pcbnew,9.0.7*%
%TF.CreationDate,2026-04-17T21:52:01+02:00*%
%TF.ProjectId,SensorHub_2.0,53656e73-6f72-4487-9562-5f322e302e6b,rev?*%
%TF.SameCoordinates,Original*%
%TF.FileFunction,Paste,Top*%
%TF.FilePolarity,Positive*%
%FSLAX46Y46*%
G04 Gerber Fmt 4.6, Leading zero omitted, Abs format (unit mm)*
G04 Created by KiCad (PCBNEW 9.0.7) date 2026-04-17 21:52:01*
%MOMM*%
%LPD*%
G01*
G04 APERTURE LIST*
G04 Aperture macros list*
%AMRoundRect*
0 Rectangle with rounded corners*
0 $1 Rounding radius*
0 $2 $3 $4 $5 $6 $7 $8 $9 X,Y pos of 4 corners*
0 Add a 4 corners polygon primitive as box body*
4,1,4,$2,$3,$4,$5,$6,$7,$8,$9,$2,$3,0*
0 Add four circle primitives for the rounded corners*
1,1,$1+$1,$2,$3*
1,1,$1+$1,$4,$5*
1,1,$1+$1,$6,$7*
1,1,$1+$1,$8,$9*
0 Add four rect primitives between the rounded corners*
20,1,$1+$1,$2,$3,$4,$5,0*
20,1,$1+$1,$4,$5,$6,$7,0*
20,1,$1+$1,$6,$7,$8,$9,0*
20,1,$1+$1,$8,$9,$2,$3,0*%
G04 Aperture macros list end*
%ADD10C,0.000000*%
%ADD11RoundRect,0.225000X0.250000X-0.225000X0.250000X0.225000X-0.250000X0.225000X-0.250000X-0.225000X0*%
%ADD12R,0.740000X2.790000*%
%ADD13R,0.600000X0.350000*%
%ADD14R,0.350000X0.600000*%
%ADD15R,1.000000X0.800000*%
%ADD16RoundRect,0.250001X0.624999X-0.462499X0.624999X0.462499X-0.624999X0.462499X-0.624999X-0.462499X0*%
%ADD17R,0.900000X0.900000*%
%ADD18RoundRect,0.225000X-0.250000X0.225000X-0.250000X-0.225000X0.250000X-0.225000X0.250000X0.225000X0*%
%ADD19R,0.400000X0.550000*%
%ADD20R,0.400000X0.300000*%
%ADD21R,0.550000X0.400000*%
%ADD22R,0.300000X0.450000*%
%ADD23R,0.300000X0.200000*%
%ADD24R,0.450000X0.300000*%
%ADD25RoundRect,0.079500X0.079500X0.100500X-0.079500X0.100500X-0.079500X-0.100500X0.079500X-0.100500X0*%
%ADD26RoundRect,0.225000X-0.225000X-0.250000X0.225000X-0.250000X0.225000X0.250000X-0.225000X0.250000X0*%
%ADD27RoundRect,0.175000X-0.000010X-0.649999X0.000010X-0.649999X0.000010X0.649999X-0.000010X0.649999X0*%
%ADD28RoundRect,0.175000X-0.649999X0.000010X-0.649999X-0.000010X0.649999X-0.000010X0.649999X0.000010X0*%
%ADD29R,0.250000X1.100000*%
%ADD30RoundRect,0.150000X-0.350000X-0.600000X0.350000X-0.600000X0.350000X0.600000X-0.350000X0.600000X0*%
%ADD31RoundRect,0.079500X-0.079500X-0.100500X0.079500X-0.100500X0.079500X0.100500X-0.079500X0.100500X0*%
%ADD32RoundRect,0.079500X-0.100500X0.079500X-0.100500X-0.079500X0.100500X-0.079500X0.100500X0.079500X0*%
%ADD33RoundRect,0.150000X-0.200000X0.150000X-0.200000X-0.150000X0.200000X-0.150000X0.200000X0.150000X0*%
%ADD34RoundRect,0.150000X0.512500X0.150000X-0.512500X0.150000X-0.512500X-0.150000X0.512500X-0.150000X0*%
%ADD35RoundRect,0.150000X-0.512500X-0.150000X0.512500X-0.150000X0.512500X0.150000X-0.512500X0.150000X0*%
%ADD36RoundRect,0.225000X0.225000X0.250000X-0.225000X0.250000X-0.225000X-0.250000X0.225000X-0.250000X0*%
%ADD37RoundRect,0.075000X-0.650000X-0.075000X0.650000X-0.075000X0.650000X0.075000X-0.650000X0.075000X0*%
%ADD38R,1.160000X0.600000*%
%ADD39R,1.160000X0.300000*%
G04 APERTURE END LIST*
D10*
%TO.C,U2*%
G36*
X146599999Y-93890000D02*
G01*
X145849999Y-93890000D01*
X145849999Y-94540000D01*
X145349999Y-94540000D01*
X145349999Y-93890000D01*
X144599999Y-93890000D01*
X144599999Y-93090000D01*
X146599999Y-93090000D01*
X146599999Y-93890000D01*
G37*
G36*
X144949999Y-89940000D02*
G01*
X145049999Y-89940000D01*
X145049999Y-91040000D01*
X143949999Y-91040000D01*
X143949999Y-90740000D01*
X144249999Y-90740000D01*
X144249999Y-89940000D01*
X144649999Y-89940000D01*
X144649999Y-89640000D01*
X144949999Y-89640000D01*
X144949999Y-89940000D01*
G37*
G36*
X146549999Y-89940000D02*
G01*
X146949999Y-89940000D01*
X146949999Y-90740000D01*
X147249999Y-90740000D01*
X147249999Y-91040000D01*
X146149999Y-91040000D01*
X146149999Y-89940000D01*
X146249999Y-89940000D01*
X146249999Y-89640000D01*
X146549999Y-89640000D01*
X146549999Y-89940000D01*
G37*
%TD*%
D11*
%TO.C,C20*%
X139128731Y-86713480D03*
X139128731Y-88263480D03*
%TD*%
%TO.C,C21*%
X140628731Y-86713480D03*
X140628731Y-88263480D03*
%TD*%
D12*
%TO.C,J5*%
X149129999Y-96825000D03*
X149129999Y-92755000D03*
X150399999Y-96825000D03*
X150399999Y-92755000D03*
X151669999Y-96825000D03*
X151669999Y-92755000D03*
X152939999Y-96825000D03*
X152939999Y-92755000D03*
X154209999Y-96825000D03*
X154209999Y-92755000D03*
%TD*%
D13*
%TO.C,U6*%
X164939999Y-76690000D03*
X164939999Y-77190000D03*
X164939999Y-77690000D03*
X164939999Y-78190000D03*
D14*
X165599999Y-78350000D03*
X166099999Y-78350000D03*
X166599999Y-78350000D03*
D13*
X167259999Y-78190000D03*
X167259999Y-77690000D03*
X167259999Y-77190000D03*
X167259999Y-76690000D03*
D14*
X166599999Y-76530000D03*
X166099999Y-76530000D03*
X165599999Y-76530000D03*
%TD*%
D15*
%TO.C,Y1*%
X159149999Y-73877500D03*
X161849999Y-73877500D03*
X161849999Y-72677500D03*
X159149999Y-72677500D03*
%TD*%
D16*
%TO.C,F1*%
X139499999Y-93577500D03*
X139499999Y-90602500D03*
%TD*%
D17*
%TO.C,D4*%
X149599999Y-74040000D03*
X149599999Y-72340000D03*
X151299999Y-72340000D03*
X151299999Y-74040000D03*
%TD*%
D18*
%TO.C,C15*%
X155949999Y-72415000D03*
X155949999Y-73965000D03*
%TD*%
D19*
%TO.C,U2*%
X147099999Y-94090000D03*
D20*
X147099999Y-93415000D03*
D19*
X147099999Y-92740000D03*
X144099999Y-92740000D03*
D20*
X144099999Y-93415000D03*
D19*
X144099999Y-94090000D03*
D21*
X144799999Y-94390000D03*
X146399999Y-94390000D03*
D22*
X144099999Y-92740000D03*
X147099999Y-92740000D03*
D23*
X144099999Y-93415000D03*
X147099999Y-93415000D03*
D22*
X144099999Y-94090000D03*
X147099999Y-94090000D03*
D24*
X144799999Y-94390000D03*
X146399999Y-94390000D03*
%TD*%
D25*
%TO.C,R11*%
X166044999Y-88140000D03*
X165354999Y-88140000D03*
%TD*%
D26*
%TO.C,C7*%
X147669999Y-75590000D03*
X149219999Y-75590000D03*
%TD*%
D27*
%TO.C,U1*%
X160849999Y-76065000D03*
X160349998Y-76065000D03*
X159849999Y-76065000D03*
X159350000Y-76065000D03*
X158849998Y-76065000D03*
X158349999Y-76065000D03*
X157850000Y-76065000D03*
X157349999Y-76065000D03*
X156849998Y-76065000D03*
X156349997Y-76065000D03*
X155849998Y-76065000D03*
X155349999Y-76065000D03*
X154849997Y-76065000D03*
X154349998Y-76065000D03*
X153849997Y-76065000D03*
X153349998Y-76065000D03*
D28*
X151274998Y-78139999D03*
X151274998Y-78640000D03*
X151274998Y-79139999D03*
X151274998Y-79639998D03*
X151274998Y-80140000D03*
X151274998Y-80639999D03*
X151274998Y-81139998D03*
X151274998Y-81639999D03*
X151274998Y-82140000D03*
X151274998Y-82640001D03*
X151274998Y-83140000D03*
X151274998Y-83639999D03*
X151274998Y-84140001D03*
X151274998Y-84640000D03*
X151274998Y-85140001D03*
X151274998Y-85640000D03*
D27*
X153349998Y-87715001D03*
X153849997Y-87715001D03*
X154349998Y-87715001D03*
X154849997Y-87715001D03*
X155349999Y-87715001D03*
X155849998Y-87715001D03*
X156349997Y-87715001D03*
X156849998Y-87715001D03*
X157349999Y-87715001D03*
X157850000Y-87715001D03*
X158349999Y-87715001D03*
X158849998Y-87715001D03*
X159350000Y-87715001D03*
X159849999Y-87715001D03*
X160349998Y-87715001D03*
X160849999Y-87715001D03*
D28*
X162924999Y-85640000D03*
X162924999Y-85140001D03*
X162924999Y-84640000D03*
X162924999Y-84140001D03*
X162924999Y-83639999D03*
X162924999Y-83140000D03*
X162924999Y-82640001D03*
X162924999Y-82140000D03*
X162924999Y-81639999D03*
X162924999Y-81139998D03*
X162924999Y-80639999D03*
X162924999Y-80140000D03*
X162924999Y-79639998D03*
X162924999Y-79139999D03*
X162924999Y-78640000D03*
X162924999Y-78139999D03*
%TD*%
D29*
%TO.C,J2*%
X161748999Y-97140000D03*
X161248999Y-97140000D03*
X160748999Y-97140000D03*
X160248999Y-97140000D03*
X159748999Y-97140000D03*
X159248999Y-97140000D03*
X158748999Y-97140000D03*
X158248999Y-97140000D03*
X157748999Y-97140000D03*
X157248999Y-97140000D03*
X161748999Y-91640000D03*
X161248999Y-91640000D03*
X160748999Y-91640000D03*
X160248999Y-91640000D03*
X159748999Y-91640000D03*
X159248999Y-91640000D03*
X158748999Y-91640000D03*
X158248999Y-91640000D03*
X157748999Y-91640000D03*
X157248999Y-91640000D03*
%TD*%
D30*
%TO.C,SW2*%
X143099999Y-73190000D03*
X146499999Y-73190000D03*
%TD*%
D31*
%TO.C,R10*%
X143300000Y-81400000D03*
X143990000Y-81400000D03*
%TD*%
D11*
%TO.C,C12*%
X166599999Y-87040000D03*
X166599999Y-85490000D03*
%TD*%
D32*
%TO.C,R2*%
X143271999Y-90919573D03*
X143271999Y-91609573D03*
%TD*%
%TO.C,R12*%
X143289941Y-92382301D03*
X143289941Y-93072301D03*
%TD*%
D31*
%TO.C,R9*%
X145454999Y-82690000D03*
X146144999Y-82690000D03*
%TD*%
D30*
%TO.C,SW1*%
X143099999Y-76090000D03*
X146499999Y-76090000D03*
%TD*%
D17*
%TO.C,D5*%
X152799999Y-72340000D03*
X154499999Y-72340000D03*
X154499999Y-74040000D03*
X152799999Y-74040000D03*
%TD*%
D31*
%TO.C,R5*%
X143155000Y-71500000D03*
X143845000Y-71500000D03*
%TD*%
D11*
%TO.C,C16*%
X157599999Y-73940000D03*
X157599999Y-72390000D03*
%TD*%
D31*
%TO.C,R6*%
X145761864Y-71530957D03*
X146451864Y-71530957D03*
%TD*%
D33*
%TO.C,D3*%
X143299999Y-97590000D03*
X143299999Y-96190000D03*
%TD*%
D34*
%TO.C,U4*%
X141974999Y-85240000D03*
X141974999Y-84290000D03*
X141974999Y-83340000D03*
X139699999Y-83340000D03*
X139699999Y-84290000D03*
X139699999Y-85240000D03*
%TD*%
D26*
%TO.C,C1*%
X144896746Y-97463239D03*
X146446746Y-97463239D03*
%TD*%
%TO.C,C8*%
X165024999Y-80590000D03*
X166574999Y-80590000D03*
%TD*%
D35*
%TO.C,U7*%
X139699999Y-78940000D03*
X139699999Y-79890000D03*
X139699999Y-80840000D03*
X141974999Y-80840000D03*
X141974999Y-79890000D03*
X141974999Y-78940000D03*
%TD*%
D18*
%TO.C,C19*%
X165099999Y-85490000D03*
X165099999Y-87040000D03*
%TD*%
%TO.C,C3*%
X142196999Y-91211500D03*
X142196999Y-92761500D03*
%TD*%
D36*
%TO.C,C2*%
X143074999Y-89700000D03*
X141524999Y-89700000D03*
%TD*%
D32*
%TO.C,R1*%
X143299999Y-94145000D03*
X143299999Y-94835000D03*
%TD*%
D25*
%TO.C,R8*%
X146145000Y-84600000D03*
X145455000Y-84600000D03*
%TD*%
D18*
%TO.C,C9*%
X148149999Y-72415000D03*
X148149999Y-73965000D03*
%TD*%
D26*
%TO.C,C6*%
X144885595Y-95941394D03*
X146435595Y-95941394D03*
%TD*%
D25*
%TO.C,R4*%
X148164999Y-76890000D03*
X147474999Y-76890000D03*
%TD*%
D37*
%TO.C,U5*%
X144199999Y-78490000D03*
X144199999Y-78990000D03*
X144199999Y-79490000D03*
X144199999Y-79990000D03*
X144199999Y-80490000D03*
X148599999Y-80490000D03*
X148599999Y-79990000D03*
X148599999Y-79490000D03*
X148599999Y-78990000D03*
X148599999Y-78490000D03*
%TD*%
D38*
%TO.C,J8*%
X136843550Y-81690000D03*
X136843550Y-82490000D03*
D39*
X136843550Y-83640000D03*
X136843550Y-84640000D03*
X136843550Y-85140000D03*
X136843550Y-86140000D03*
D38*
X136843550Y-87290000D03*
X136843550Y-88090000D03*
X136843550Y-88090000D03*
X136843550Y-87290000D03*
D39*
X136843550Y-86640000D03*
X136843550Y-85640000D03*
X136843550Y-84140000D03*
X136843550Y-83140000D03*
D38*
X136843550Y-82490000D03*
X136843550Y-81690000D03*
%TD*%
D31*
%TO.C,R3*%
X145454999Y-83590000D03*
X146144999Y-83590000D03*
%TD*%
M02*
